<svg width="619" height="619" viewBox="0 0 619 619" fill="none" xmlns="http://www.w3.org/2000/svg">
<mask id="mask0_3_276" style="mask-type:alpha" maskUnits="userSpaceOnUse" x="0" y="0" width="619" height="619">
<circle cx="309.5" cy="309.5" r="309.5" fill="#D9D9D9"/>
</mask>
<g mask="url(#mask0_3_276)">
<path d="M4174.67 3115H-92V-85.0002H4174.67V3115Z" fill="white"/>
<path d="M140.799 562C140.799 560.814 138.968 555.52 135.304 546.12C131.763 537 129.26 531.027 127.795 528.174C119.369 549.667 115.156 560.92 115.156 561.934C115.156 563.32 116.703 564.134 119.796 564.374C119.959 564.414 121.953 564.44 125.78 564.44H132.068C137.889 564.44 140.799 563.627 140.799 562V562ZM169.251 595.693C169.251 596.187 168.763 596.427 167.785 596.427C167.012 596.427 165.883 596.374 164.397 596.254C162.911 596.12 161.781 596.067 161.008 596.067C160.235 596.067 159.075 596.12 157.528 596.254C155.981 596.374 154.821 596.427 154.048 596.427C152.908 596.427 151.453 593.347 149.683 587.187C147.912 581.014 146.111 577.893 144.279 577.813C142.773 577.733 138.845 577.693 132.496 577.693H122.849C116.133 577.693 112.307 577.733 111.371 577.813C109.905 577.933 108.348 581.067 106.7 587.213C105.052 593.36 103.78 596.427 102.884 596.427H89.1466C88.3333 596.427 87.9253 596.147 87.9253 595.574C87.9253 595.174 88.2106 594.253 88.78 592.827L103.739 551.92C105 548.627 108.827 539.12 115.217 523.413C116.357 520.813 117.904 516.88 119.857 511.627C120.345 510.08 120.875 509.307 121.445 509.307C122.219 509.307 123.357 509.413 124.864 509.613C126.369 509.813 127.509 509.92 128.283 509.92C129.016 509.92 130.124 509.8 131.611 509.587C133.096 509.36 134.185 509.24 134.877 509.24C135.243 509.24 135.752 510 136.403 511.507C137.38 513.787 142.203 526.054 150.873 548.32C163.125 579.627 169.251 595.413 169.251 595.693" fill="#8F9295"/>
<path d="M243.493 582.334C243.493 582.814 243.107 583.507 242.333 584.4C234.396 593.6 224.567 598.2 212.844 598.2C200.632 598.2 190.864 593.747 183.537 584.827C176.699 576.533 173.28 566.147 173.28 553.693C173.28 541.24 176.76 530.813 183.72 522.427C191.128 513.4 200.917 508.88 213.088 508.88C225.421 508.88 234.965 513.054 241.723 521.4C242.373 522.254 242.699 522.96 242.699 523.534C242.699 524.227 241.62 526.267 239.464 529.667C237.307 533.067 236.004 534.76 235.556 534.76C235.027 534.76 233.785 533.774 231.832 531.774C229.431 529.334 227.171 527.507 225.055 526.28C221.553 524.28 217.687 523.293 213.455 523.293C205.395 523.293 199.127 526.36 194.649 532.507C190.66 538 188.665 544.92 188.665 553.267C188.665 561.614 190.64 568.587 194.588 574.213C199.065 580.52 205.313 583.667 213.332 583.667C217.321 583.667 221.167 582.68 224.871 580.68C227.313 579.373 229.796 577.52 232.32 575.12C234.436 573.134 235.596 572.134 235.8 572.134C236.044 572.134 237.388 573.747 239.829 576.987C242.272 580.227 243.493 582 243.493 582.334" fill="#8F9295"/>
<path d="M307.051 522.307C307.051 523.374 306.684 523.893 305.952 523.893C304.812 523.893 297.608 523.653 284.339 523.16C283.972 535.587 283.789 545.533 283.789 553.027C283.789 557.707 283.963 564.72 284.308 574.08C284.653 583.453 284.827 590.467 284.827 595.147C284.827 596 284.237 596.427 283.056 596.427C282.324 596.427 281.204 596.374 279.699 596.254C278.192 596.12 277.053 596.067 276.28 596.067C275.547 596.067 274.427 596.12 272.921 596.254C271.415 596.374 270.296 596.427 269.563 596.427C268.545 596.427 268.037 595.92 268.037 594.907C268.037 590.267 268.231 583.294 268.617 574C269.004 564.694 269.197 557.707 269.197 553.027C269.197 545.773 268.973 535.827 268.525 523.16C258.024 523.813 250.331 524.147 245.447 524.147C244.959 524.147 244.715 523.947 244.715 523.534C244.715 522.8 244.897 521.747 245.264 520.36C245.711 518.56 245.976 517.507 246.057 517.187C246.139 515.76 246.424 513.787 246.912 511.254C247.116 510.734 247.461 510.467 247.949 510.467L248.683 510.534C263.092 511.387 272.596 511.813 277.195 511.813C281.265 511.813 287.92 511.507 297.16 510.893C303.469 510.493 306.095 510.28 305.036 510.28C306.095 510.28 306.684 510.654 306.807 511.387C306.725 510.934 306.684 512.907 306.684 517.307C306.684 517.84 306.745 518.654 306.868 519.774C306.989 520.894 307.051 521.747 307.051 522.307" fill="#8F9295"/>
<path d="M331.228 595.147C331.228 596 330.639 596.427 329.457 596.427C328.725 596.427 327.605 596.374 326.1 596.254C324.593 596.12 323.475 596.067 322.741 596.067C321.968 596.067 320.829 596.12 319.323 596.254C317.817 596.374 316.697 596.427 315.965 596.427C314.947 596.427 314.439 595.96 314.439 595.027C314.439 590.387 314.652 583.4 315.08 574.054C315.507 564.707 315.72 557.707 315.72 553.027C315.72 548.507 315.507 541.72 315.08 532.654C314.652 523.6 314.439 516.813 314.439 512.293C314.439 511.28 314.907 510.774 315.843 510.774C316.616 510.774 317.796 510.827 319.384 510.96C320.971 511.08 322.172 511.134 322.987 511.134C323.719 511.134 324.817 511.08 326.283 510.96C327.748 510.827 328.848 510.774 329.58 510.774C330.639 510.774 331.168 511.174 331.168 511.987C331.168 516.547 331.004 523.387 330.679 532.507C330.353 541.627 330.191 548.467 330.191 553.027C330.191 557.707 330.364 564.72 330.709 574.08C331.056 583.453 331.228 590.467 331.228 595.147Z" fill="#8F9295"/>
<path d="M409.989 553.387C409.989 545.413 407.507 538.467 402.54 532.573C397.331 526.307 390.797 523.16 382.941 523.16C375.168 523.16 368.696 526.347 363.527 532.693C358.643 538.64 356.2 545.6 356.2 553.573C356.2 561.507 358.643 568.453 363.527 574.387C368.696 580.747 375.168 583.92 382.941 583.92C390.839 583.92 397.392 580.747 402.601 574.387C407.527 568.453 409.989 561.453 409.989 553.387ZM424.703 553.573C424.703 565.653 420.836 576.067 413.103 584.773C405.044 593.813 395.031 598.32 383.064 598.32C371.056 598.32 361.044 593.827 353.025 584.827C345.292 576.16 341.424 565.747 341.424 553.573C341.424 541.52 345.332 531.12 353.147 522.373C361.207 513.293 371.179 508.76 383.064 508.76C394.989 508.76 404.983 513.293 413.041 522.373C420.816 531.08 424.703 541.48 424.703 553.573" fill="#8F9295"/>
<path d="M511.523 512.12C511.523 516.8 511.36 523.854 511.035 533.307C510.709 542.747 510.547 549.827 510.547 554.547C510.547 558.987 510.587 565.627 510.668 574.48C510.749 583.333 510.791 589.987 510.791 594.413C510.791 595.76 510.281 596.427 509.264 596.427C508.653 596.427 507.737 596.374 506.516 596.254C505.295 596.12 504.38 596.067 503.769 596.067C503.117 596.067 502.12 596.12 500.777 596.254C499.435 596.374 498.437 596.427 497.785 596.427C497.053 596.427 496.177 595.76 495.16 594.413C486.368 582.573 473.039 564.907 455.169 541.427C452.401 537.84 450.793 535.84 450.347 535.44C449.939 535.44 449.736 536.267 449.736 537.947C449.736 544.213 449.837 553.627 450.041 566.174C450.244 578.734 450.347 588.147 450.347 594.413C450.347 595.76 449.939 596.427 449.125 596.427C448.433 596.427 447.375 596.374 445.951 596.254C444.525 596.12 443.467 596.067 442.776 596.067C442.043 596.067 440.953 596.12 439.509 596.254C438.064 596.374 436.975 596.427 436.243 596.427C435.225 596.427 434.716 596.027 434.716 595.213C434.716 590.733 434.929 583.987 435.357 574.974C435.784 565.96 435.999 559.187 435.999 554.667C435.999 549.747 435.815 540.867 435.449 528.054C435.368 524.707 435.164 519.707 434.839 513.027L434.777 512.24C434.736 511.627 435.225 511.307 436.243 511.254C438.888 511.214 440.964 511.133 442.471 511.013C443.04 510.973 444.119 510.814 445.705 510.534C447.049 510.28 448.108 510.16 448.881 510.16C449.247 510.16 449.879 510.747 450.773 511.934C460.135 524.8 474.463 543.92 493.756 569.32C494.611 570.387 495.404 571.294 496.137 572.067C496.423 570.36 496.564 566.453 496.564 560.347C496.564 555.053 496.371 547.12 495.984 536.534C495.597 525.96 495.404 518.04 495.404 512.787C495.404 511.44 495.812 510.774 496.625 510.774C497.359 510.774 498.468 510.827 499.953 510.96C501.439 511.08 502.548 511.134 503.28 511.134C504.053 511.134 505.213 511.08 506.76 510.96C508.308 510.827 509.468 510.774 510.241 510.774C511.096 510.774 511.523 511.214 511.523 512.12Z" fill="#8F9295"/>
<path d="M542.781 184.787H541.483V153.227H542.781C551.251 153.227 558.115 160.093 558.115 168.56V169.454C558.115 177.92 551.251 184.787 542.781 184.787Z" fill="#8F9295"/>
<path d="M378.028 147.04H269.435V166.88H378.028V147.04Z" fill="#8F9295"/>
<path d="M291.9 297.6C261.967 305.587 240.597 294.573 236.804 280.36C233.82 269.173 240.492 256.973 258.044 248.387C257.796 259.667 262.339 274.813 285.947 281.6C288.236 282.267 289.889 279.413 288.183 277.76C280.559 270.333 271.617 256.613 284.971 240.147C310.253 236.253 330.331 243.987 333.684 256.547C337.477 270.76 321.832 289.613 291.9 297.6V297.6ZM146.712 422.907C144.879 428.427 139.716 432.147 133.899 432.147H94.0732C84.8119 432.147 78.2985 423.04 81.2985 414.28C84.3065 374.453 106.645 320.92 132.399 264.96H199.155C176.687 317.693 158.595 370.347 146.712 422.907V422.907ZM85.7999 204.827C85.3865 205.107 85.1359 205.253 85.1359 205.253C70.4492 212.973 60.9985 219.613 55.0252 224.627C50.9679 228.027 53.0759 234.627 58.3519 235.08C89.3185 237.747 97.3905 252.147 98.9119 255.667C99.1985 256.32 99.4852 256.987 99.7839 257.653C107.893 275.52 98.8972 288.893 92.3732 295.587C87.9599 300.12 84.4399 305.44 81.8799 311.213C58.8665 363.16 47.0812 413.08 41.6932 441.307C39.3457 453.6 48.7865 464.987 61.3039 464.987H165.103C169.225 464.987 172.567 461.653 172.567 457.533V451.72C172.567 438.173 174.532 424.707 178.401 411.733L199.221 341.907C204.156 325.36 219.375 314.013 236.645 314.013H258.717C312.359 314.013 335.775 295.147 345.788 281.013C349.94 275.16 352.429 268.32 353.377 261.2C355.955 241.88 368.817 232.653 379.452 228.293H442.845C445.429 228.293 447.865 227.094 449.44 225.04L452.188 221.467H524.422C531.253 221.467 536.791 215.92 536.791 209.093V204.827H85.7999" fill="#8F9295"/>
<path d="M157.377 291.76C151.747 288.72 144.585 290.067 140.483 295.253C136.38 300.453 136.727 307.72 140.977 312.507L157.377 291.76" fill="#8F9295"/>
<path d="M161.068 294.666L144.668 315.426C150.299 318.453 157.46 317.107 161.563 311.92C165.665 306.72 165.319 299.453 161.068 294.666Z" fill="#8F9295"/>
<path d="M107.757 390.653C103.72 395.613 103.692 402.893 108.019 407.907C112.344 412.907 119.557 413.947 125.049 410.667L107.757 390.653" fill="#8F9295"/>
<path d="M111.316 387.574L128.608 407.587C132.645 402.627 132.673 395.347 128.348 390.334C124.021 385.334 116.808 384.307 111.316 387.574" fill="#8F9295"/>
<path d="M180.001 158.707L170.803 187.107C170.295 188.68 168.609 189.547 167.04 189.027C165.471 188.52 164.611 186.84 165.119 185.267L174.317 156.867C174.827 155.307 176.511 154.44 178.08 154.947C179.651 155.453 180.511 157.147 180.001 158.707ZM155.951 189.027C154.381 188.52 153.521 186.84 154.029 185.267L163.229 156.867C163.737 155.307 165.421 154.44 166.992 154.947C168.561 155.453 169.421 157.147 168.913 158.707L159.715 187.107C159.205 188.68 157.521 189.547 155.951 189.027ZM144.863 189.027C143.293 188.52 142.432 186.84 142.941 185.267L152.14 156.867C152.648 155.307 154.333 154.44 155.903 154.947C157.472 155.453 158.333 157.147 157.824 158.707L148.625 187.107C148.117 188.68 146.432 189.547 144.863 189.027ZM133.773 189.027C132.204 188.52 131.344 186.84 131.852 185.267L141.051 156.867C141.56 155.307 143.244 154.44 144.815 154.947C146.384 155.453 147.244 157.147 146.736 158.707L137.536 187.107C137.028 188.68 135.344 189.547 133.773 189.027ZM122.685 189.027C121.115 188.52 120.255 186.84 120.764 185.267L129.963 156.867C130.471 155.307 132.156 154.44 133.725 154.947C135.295 155.453 136.155 157.147 135.647 158.707L126.448 187.107C125.939 188.68 124.255 189.547 122.685 189.027ZM111.596 189.027C110.027 188.52 109.167 186.84 109.675 185.267L118.873 156.867C119.383 155.307 121.067 154.44 122.636 154.947C124.207 155.453 125.067 157.147 124.557 158.707L115.359 187.107C114.851 188.68 113.165 189.547 111.596 189.027ZM528.688 142.987H383.224V171.133H264.239V142.987H142.844L136.207 132.067C133.099 126.947 125.225 129.147 125.225 135.133V142.987H116.245C111.412 142.987 106.845 145.2 103.851 149L101.632 151.8C97.9986 156.413 92.2652 158.84 86.4292 158.254L76.3292 157.227C70.3292 156.627 66.9759 163.96 71.3652 168.107L80.0172 176.254C94.1266 185.134 94.6359 192.787 92.0412 198.013H536.791V151.093C536.791 146.613 533.163 142.987 528.688 142.987" fill="#8F9295"/>
<rect x="77" y="507" width="3978" height="222" fill="white"/>
</g>
</svg>
