<svg width="619" height="619" viewBox="0 0 619 619" fill="none" xmlns="http://www.w3.org/2000/svg">
<mask id="mask0_3_276" style="mask-type:alpha" maskUnits="userSpaceOnUse" x="0" y="0" width="619" height="619">
<circle cx="309.5" cy="309.5" r="309.5" fill="#D9D9D9"/>
</mask>
<g mask="url(#mask0_3_276)">
<path d="M3307.67 3133H-959V-67.0002H3307.67V3133Z" fill="white"/>
<path d="M17.2306 580.36C17.2306 579.187 15.3986 573.893 11.7346 564.493C8.19458 555.373 5.6906 549.387 4.22527 546.533C-4.20006 568.027 -8.4134 579.28 -8.4134 580.307C-8.4134 581.68 -6.86673 582.493 -3.77206 582.747C-3.60939 582.787 -1.61604 582.8 2.21062 582.8H8.49995C14.3199 582.8 17.2306 581.987 17.2306 580.36ZM45.6813 614.067C45.6813 614.547 45.1933 614.8 44.216 614.8C43.4426 614.8 42.3133 614.733 40.8279 614.613C39.3426 614.493 38.212 614.427 37.4386 614.427C36.6653 614.427 35.5053 614.493 33.9586 614.613C32.4119 614.733 31.2519 614.8 30.4786 614.8C29.3399 614.8 27.884 611.72 26.1133 605.547C24.3426 599.387 22.5413 596.253 20.7106 596.173C19.204 596.093 15.276 596.053 8.92664 596.053H-0.720042C-7.43604 596.053 -11.2628 596.093 -12.1988 596.173C-13.6641 596.293 -15.2201 599.427 -16.8694 605.573C-18.5174 611.72 -19.7894 614.8 -20.6854 614.8H-34.4227C-35.236 614.8 -35.6427 614.507 -35.6427 613.947C-35.6427 613.533 -35.3587 612.627 -34.7881 611.2L-19.8294 570.293C-18.5681 566.987 -14.7427 557.493 -8.35207 541.773C-7.21207 539.173 -5.66537 535.24 -3.71203 529.987C-3.2227 528.44 -2.69475 527.68 -2.12408 527.68C-1.35075 527.68 -0.210727 527.773 1.29461 527.973C2.80127 528.187 3.93996 528.28 4.71329 528.28C5.44662 528.28 6.55595 528.173 8.04129 527.947C9.52662 527.72 10.616 527.613 11.308 527.613C11.6746 527.613 12.1826 528.36 12.8346 529.867C13.8106 532.147 18.6346 544.427 27.3039 566.68C39.5559 597.987 45.6813 613.787 45.6813 614.067Z" fill="#8F9295"/>
<path d="M112.781 571.507C112.781 562.72 110.277 555.56 105.271 550.013C100.061 544.28 93.1013 541.413 84.3907 541.413C77.1853 541.413 74.276 541.373 75.66 541.293C70.8973 541.533 68.516 542.413 68.516 543.907C68.516 547.053 68.4453 551.733 68.3027 557.987C68.16 564.24 68.0893 568.92 68.0893 572.053C68.0893 575.147 68.16 579.787 68.3027 585.973C68.4453 592.173 68.516 596.813 68.516 599.907C68.516 601.453 70.9586 602.347 75.8426 602.587C75.192 602.547 78.1626 602.52 84.756 602.52C89.4373 602.52 93.1614 602.04 95.9294 601.067C99.348 599.84 102.421 597.573 105.149 594.28C110.237 588.093 112.781 580.507 112.781 571.507V571.507ZM127.739 571.507C127.739 582.947 124.483 592.84 117.971 601.187C110.888 610.253 101.811 614.8 90.74 614.8C88.624 614.8 85.4387 614.72 81.1853 614.547C76.932 614.387 73.7467 614.307 71.6294 614.307C69.7174 614.307 66.8373 614.387 62.9907 614.547C59.144 614.72 56.264 614.8 54.352 614.8C53.3333 614.8 52.8253 614.293 52.8253 613.267C52.8253 608.84 52.9973 602.147 53.344 593.187C53.6893 584.227 53.8627 577.52 53.8627 573.04C53.8627 568.32 53.7 561.213 53.3747 551.733C53.0493 542.24 52.8866 535.147 52.8866 530.413C52.8866 529.56 53.4146 529.133 54.4733 529.133C55.98 529.133 58.228 529.16 61.22 529.2C64.212 529.24 66.46 529.253 67.9667 529.253C69.3507 529.253 71.4667 529.24 74.316 529.2C77.1653 529.16 79.3227 529.133 80.788 529.133C94.912 529.133 105.433 531.8 112.353 537.133C117.319 540.96 121.165 546.107 123.892 552.587C126.457 558.613 127.739 564.92 127.739 571.507" fill="#8F9295"/>
<path d="M204.912 559.667C204.912 561.373 200.923 569.76 192.945 584.813C187.899 594.227 182.851 603.627 177.804 613.027C177.193 614.213 176.521 614.8 175.789 614.8H163.517C162.947 614.8 162.377 614.213 161.808 613.027C161.685 612.787 156.841 603.667 147.276 585.68C139.095 570.253 135.004 561.827 135.004 560.4C135.004 557.187 135.116 552.347 135.34 545.893C135.564 539.44 135.676 534.613 135.676 531.4C135.676 529.893 136.164 529.133 137.141 529.133C137.915 529.133 139.044 529.2 140.531 529.32C142.016 529.44 143.145 529.507 143.919 529.507C144.651 529.507 145.771 529.44 147.276 529.32C148.783 529.2 149.901 529.133 150.635 529.133C151.571 529.133 152.039 529.52 152.039 530.293C152.039 533.6 151.825 538.56 151.397 545.2C150.971 551.827 150.757 556.813 150.757 560.16C150.757 562.92 157.065 575.253 169.684 597.147C173.021 591.453 176.644 584.92 180.552 577.56C186.209 566.893 189.037 560.627 189.037 558.747C189.037 555.573 188.936 550.827 188.732 544.52C188.529 538.213 188.428 533.493 188.428 530.36C188.428 529.547 188.875 529.133 189.771 529.133C190.544 529.133 191.684 529.2 193.189 529.32C194.696 529.44 195.815 529.507 196.548 529.507C197.28 529.507 198.389 529.44 199.875 529.32C201.361 529.2 202.469 529.133 203.203 529.133C204.099 529.133 204.607 529.52 204.729 530.293C204.688 530.013 204.668 530.787 204.668 532.613C204.668 535.627 204.708 540.133 204.791 546.147C204.872 552.147 204.912 556.653 204.912 559.667" fill="#8F9295"/>
<path d="M272.865 602.52C272.865 603.173 272.703 604.107 272.377 605.333C272.011 606.88 271.788 607.813 271.705 608.147C271.584 609.613 271.299 611.747 270.851 614.547C270.648 615.28 270.119 615.653 269.264 615.653C268.857 615.653 268.084 615.573 266.944 615.413C261.937 614.68 254.183 614.307 243.681 614.307C240.711 614.307 236.233 614.387 230.249 614.547C224.267 614.72 219.789 614.8 216.817 614.8C215.475 614.8 214.802 614.213 214.802 613.026C214.802 608.466 215.057 601.613 215.567 592.48C216.075 583.347 216.329 576.493 216.329 571.933C216.329 567.293 216.085 558.653 215.597 545.987C215.515 542.733 215.292 537.867 214.925 531.4L214.864 530.547C214.824 529.613 215.352 529.133 216.452 529.133C219.301 529.133 223.575 529.213 229.273 529.387C234.972 529.547 239.245 529.627 242.095 529.627C244.821 529.627 248.902 529.547 254.336 529.387C259.769 529.213 263.851 529.133 266.577 529.133C268.491 529.133 269.528 529.733 269.691 530.907C270.545 536.28 270.973 539.613 270.973 540.92C270.973 541.853 270.525 542.32 269.631 542.32C266.171 542.32 260.929 542.133 253.908 541.747C246.886 541.36 241.607 541.16 238.065 541.16C234.727 541.16 232.621 541.613 231.745 542.507C230.871 543.4 230.433 545.627 230.433 549.16V558.267C230.433 560.747 230.495 562.187 230.616 562.6C230.983 563.853 232.041 564.493 233.791 564.493C234.28 564.493 234.972 564.467 235.867 564.427C236.803 564.427 237.495 564.427 237.943 564.427C245.92 564.427 253.084 564.28 259.435 564C261.917 563.92 264.848 563.72 268.225 563.387C269.08 563.307 269.508 563.68 269.508 564.493C269.508 565.787 269.356 567.787 269.051 570.467C268.745 573.16 268.592 575.173 268.592 576.52C268.592 577.253 267.981 577.613 266.76 577.613C266.272 577.613 264.461 577.48 261.327 577.187C259.047 576.947 253.918 576.826 245.941 576.826C239.225 576.826 234.972 576.907 233.18 577.067C231.552 577.187 230.616 578.04 230.372 579.626C230.413 579.346 230.433 580.907 230.433 584.333V593.373C230.433 597.6 231.084 600.24 232.387 601.307C233.404 602.16 235.948 602.587 240.019 602.587L246.735 602.52C249.584 602.52 257.581 602.04 270.729 601.067L271.645 601C272.459 600.92 272.865 601.427 272.865 602.52" fill="#8F9295"/>
<path d="M359.136 530.48C359.136 535.16 358.973 542.227 358.648 551.667C358.323 561.107 358.16 568.187 358.16 572.92C358.16 577.347 358.2 584 358.281 592.853C358.363 601.707 358.404 608.347 358.404 612.787C358.404 614.12 357.895 614.8 356.877 614.8C356.267 614.8 355.351 614.733 354.129 614.613C352.909 614.493 351.993 614.427 351.383 614.427C350.731 614.427 349.733 614.493 348.391 614.613C347.048 614.733 346.051 614.8 345.399 614.8C344.667 614.8 343.791 614.12 342.773 612.787C333.981 600.933 320.652 583.28 302.783 559.787C300.015 556.213 298.407 554.213 297.96 553.8C297.552 553.8 297.349 554.64 297.349 556.307C297.349 562.573 297.451 571.987 297.655 584.547C297.857 597.107 297.96 606.52 297.96 612.787C297.96 614.12 297.552 614.8 296.739 614.8C296.047 614.8 294.988 614.733 293.564 614.613C292.139 614.493 291.08 614.427 290.389 614.427C289.656 614.427 288.567 614.493 287.123 614.613C285.677 614.733 284.588 614.8 283.856 614.8C282.839 614.8 282.329 614.387 282.329 613.573C282.329 609.093 282.543 602.347 282.971 593.333C283.397 584.32 283.612 577.56 283.612 573.04C283.612 568.107 283.428 559.24 283.063 546.413C282.981 543.08 282.777 538.08 282.452 531.4L282.391 530.6C282.349 529.987 282.839 529.667 283.856 529.627C286.501 529.587 288.577 529.507 290.084 529.387C290.653 529.347 291.732 529.173 293.32 528.893C294.663 528.653 295.721 528.533 296.495 528.533C296.86 528.533 297.492 529.12 298.387 530.293C307.748 543.16 322.076 562.293 341.369 587.693C342.224 588.747 343.017 589.667 343.751 590.44C344.036 588.733 344.177 584.813 344.177 578.72C344.177 573.427 343.984 565.48 343.597 554.907C343.211 544.32 343.017 536.4 343.017 531.147C343.017 529.813 343.425 529.133 344.239 529.133C344.972 529.133 346.081 529.2 347.567 529.32C349.052 529.44 350.161 529.507 350.893 529.507C351.667 529.507 352.827 529.44 354.373 529.32C355.92 529.2 357.081 529.133 357.855 529.133C358.709 529.133 359.136 529.587 359.136 530.48" fill="#8F9295"/>
<path d="M428.867 540.68C428.867 541.733 428.493 542.267 427.76 542.267C426.627 542.267 419.413 542.027 406.147 541.533C405.787 553.947 405.6 563.893 405.6 571.387C405.6 576.067 405.773 583.093 406.12 592.453C406.467 601.813 406.64 608.84 406.64 613.52C406.64 614.373 406.04 614.8 404.867 614.8C404.133 614.8 403.013 614.733 401.507 614.613C400 614.493 398.867 614.427 398.093 614.427C397.36 614.427 396.24 614.493 394.733 614.613C393.227 614.733 392.107 614.8 391.373 614.8C390.36 614.8 389.853 614.293 389.853 613.267C389.853 608.627 390.04 601.667 390.427 592.36C390.813 583.053 391.013 576.067 391.013 571.387C391.013 564.147 390.787 554.187 390.333 541.533C379.84 542.187 372.141 542.507 367.256 542.507C366.768 542.507 366.524 542.307 366.524 541.893C366.524 541.16 366.707 540.107 367.073 538.72C367.521 536.933 367.785 535.88 367.867 535.547C367.948 534.12 368.233 532.147 368.721 529.627C368.925 529.093 369.271 528.827 369.76 528.827L370.492 528.893C384.907 529.747 394.4 530.173 399 530.173C403.08 530.173 409.733 529.867 418.973 529.253C425.28 528.853 427.907 528.653 426.84 528.653C427.907 528.653 428.493 529.013 428.613 529.747C428.533 529.307 428.493 531.28 428.493 535.667C428.493 536.2 428.56 537.027 428.68 538.147C428.8 539.267 428.867 540.107 428.867 540.68" fill="#8F9295"/>
<path d="M506.213 530.48C506.213 535.2 506.027 542.28 505.64 551.693C505.253 561.12 505.053 568.187 505.053 572.92C505.053 574.467 505.08 576.773 505.12 579.84C505.16 582.92 505.173 585.213 505.173 586.707C505.173 595.227 504.387 601.12 502.8 604.413C500.36 609.467 495.613 612.88 488.573 614.68C484.253 615.773 478.173 616.32 470.32 616.32C456.067 616.32 446.733 613.96 442.293 609.24C438.88 605.573 437.16 598.253 437.16 587.267C437.16 585.92 437.187 583.653 437.227 580.453C437.267 577.253 437.28 574.747 437.28 572.92C437.28 568.107 437.08 559.253 436.68 546.36C436.68 543.013 436.493 538.027 436.12 531.4C436.08 530.907 436.067 530.587 436.067 530.413C436.067 529.56 436.6 529.133 437.653 529.133C439.32 529.133 441.587 529.16 444.427 529.2C447.72 529.24 449.96 529.253 451.147 529.253C452.08 529.253 452.547 529.627 452.547 530.36C452.547 536.547 452.413 545.84 452.147 558.267C451.893 570.68 451.76 579.973 451.76 586.16C451.76 593.16 453.32 597.907 456.453 600.387C459.147 602.587 464.093 603.68 471.293 603.68C477.853 603.68 482.507 602.787 485.28 601C488.773 598.76 490.52 594.573 490.52 588.427C490.52 581.987 490.427 572.333 490.227 559.453C490.013 546.573 489.92 536.907 489.92 530.48C489.92 529.827 490.507 529.427 491.68 529.253C492.547 529.133 493.76 529.133 495.347 529.253C497.227 529.427 498.12 529.507 498.04 529.507C498.773 529.507 499.88 529.44 501.36 529.32C502.853 529.2 503.96 529.133 504.693 529.133C505.707 529.133 506.213 529.587 506.213 530.48" fill="#8F9295"/>
<path d="M568.067 558.933C568.067 551.56 565.947 546.64 561.72 544.16C558.587 542.32 552.947 541.413 544.8 541.413C538.213 541.413 534.853 541.947 534.733 543C534.44 545.2 534.307 551.08 534.307 560.64V572.307C534.427 572.387 534.693 572.467 535.093 572.547C535.827 572.627 537.027 572.733 538.693 572.853C542.56 573.053 546.733 573.16 551.213 573.16C562.453 573.16 568.067 568.413 568.067 558.933V558.933ZM584.8 614.307C584.8 614.64 584.467 614.8 583.813 614.8C583.04 614.8 581.867 614.733 580.28 614.613C578.693 614.493 577.507 614.427 576.733 614.427C575.88 614.427 574.613 614.493 572.92 614.613C571.227 614.733 569.96 614.8 569.107 614.8C568.173 614.8 567.453 614.293 566.96 613.267C565.667 610.507 561.96 601.934 555.853 587.574C555.24 586.107 553.76 585.213 551.4 584.88C550.867 584.84 549.013 584.813 545.84 584.813C540.227 584.813 536.893 584.907 535.827 585.067C534.973 585.187 534.547 586.227 534.547 588.174C534.547 591.027 534.68 595.294 534.947 600.974C535.213 606.64 535.347 610.893 535.347 613.693C535.347 614.547 534.933 614.987 534.12 614.987C533.307 614.987 532.08 614.894 530.427 614.707C528.773 614.52 527.52 614.427 526.667 614.427C525.973 614.427 524.92 614.493 523.493 614.613C522.067 614.733 521.013 614.8 520.32 614.8C519.307 614.8 518.8 614.333 518.8 613.387C518.8 608.88 519.013 602.093 519.44 593.027C519.867 583.973 520.08 577.187 520.08 572.667C520.08 559.813 519.613 546.093 518.667 531.52L518.613 530.547C518.573 529.733 519.427 529.32 521.173 529.32C524.68 529.32 529.92 529.227 536.893 529.04C543.88 528.867 549.093 528.774 552.56 528.774C561.6 528.774 568.84 530.934 574.293 535.24C580.32 540.014 583.333 546.76 583.333 555.507C583.333 561.534 582.52 566.28 580.893 569.747C579.173 573.4 576 576.88 571.36 580.174C570.587 580.707 570.2 581.214 570.2 581.707C570.2 582.28 572.64 587.693 577.493 597.947C582.36 608.2 584.8 613.654 584.8 614.307" fill="#8F9295"/>
<path d="M650.92 602.52C650.92 603.173 650.76 604.107 650.427 605.333C650.067 606.88 649.84 607.813 649.76 608.147C649.64 609.613 649.347 611.747 648.907 614.547C648.693 615.28 648.173 615.653 647.32 615.653C646.907 615.653 646.133 615.573 645 615.413C639.987 614.68 632.24 614.307 621.733 614.307C618.76 614.307 614.28 614.387 608.307 614.547C602.32 614.72 597.84 614.8 594.867 614.8C593.52 614.8 592.853 614.213 592.853 613.026C592.853 608.466 593.107 601.613 593.613 592.48C594.12 583.347 594.373 576.493 594.373 571.933C594.373 567.293 594.133 558.653 593.653 545.987C593.56 542.733 593.347 537.867 592.973 531.4L592.92 530.547C592.88 529.613 593.4 529.133 594.507 529.133C597.347 529.133 601.627 529.213 607.32 529.387C613.027 529.547 617.293 529.627 620.146 529.627C622.866 529.627 626.947 529.547 632.387 529.387C637.827 529.213 641.907 529.133 644.627 529.133C646.547 529.133 647.573 529.733 647.746 530.907C648.6 536.28 649.027 539.613 649.027 540.92C649.027 541.853 648.573 542.32 647.68 542.32C644.226 542.32 638.987 542.133 631.96 541.747C624.933 541.36 619.653 541.16 616.12 541.16C612.773 541.16 610.667 541.613 609.8 542.507C608.92 543.4 608.48 545.627 608.48 549.16V558.267C608.48 560.747 608.547 562.187 608.667 562.6C609.027 563.853 610.093 564.493 611.84 564.493C612.333 564.493 613.027 564.467 613.92 564.427C614.853 564.427 615.547 564.427 615.987 564.427C623.973 564.427 631.133 564.28 637.48 564C639.973 563.92 642.893 563.72 646.28 563.387C647.133 563.307 647.56 563.68 647.56 564.493C647.56 565.787 647.4 567.787 647.107 570.467C646.8 573.16 646.64 575.173 646.64 576.52C646.64 577.253 646.026 577.613 644.813 577.613C644.32 577.613 642.507 577.48 639.373 577.187C637.093 576.947 631.973 576.826 623.987 576.826C617.28 576.826 613.027 576.907 611.227 577.067C609.6 577.187 608.667 578.04 608.427 579.626C608.467 579.346 608.48 580.907 608.48 584.333V593.373C608.48 597.6 609.133 600.24 610.44 601.307C611.453 602.16 614 602.587 618.067 602.587L624.787 602.52C627.64 602.52 635.627 602.04 648.773 601.067L649.693 601C650.507 600.92 650.92 601.427 650.92 602.52" fill="#8F9295"/>
<path d="M324.479 309.813C327.443 312.6 330.199 315.613 332.665 318.76C334.307 320.867 335.992 323.24 337.969 326.227L326.652 333.707C324.852 330.987 323.408 328.96 321.973 327.12C319.935 324.507 317.655 322.027 315.199 319.72L324.479 309.813ZM348.713 341.96C350.16 343.747 351.567 345.28 353.013 346.653C355.533 349.027 358.451 351.147 361.683 352.947L355.085 364.8C350.868 362.453 347.037 359.667 343.696 356.52C341.805 354.733 339.996 352.76 338.163 350.493L348.713 341.96ZM378.373 359.16C383.587 360.413 389.493 361.36 396.96 362.16L395.52 375.653C387.453 374.787 381 373.747 375.213 372.36L378.373 359.16ZM312.892 442.04L412.627 496.32V201.187L312.892 146.907V442.04Z" fill="#8F9295"/>
<path d="M248.613 304.507L244.491 291.573C251.376 289.373 258.476 288.107 265.592 287.773L266.205 301.333C260.28 301.6 254.363 302.667 248.613 304.507ZM222.185 320.16C221.085 321.213 220.004 322.333 218.86 323.507L218.595 323.787L208.859 314.333L209.123 314.053C210.292 312.853 211.5 311.613 212.757 310.4C216.493 306.787 220.645 303.507 225.096 300.667L232.409 312.093C228.715 314.453 225.276 317.173 222.185 320.16V320.16ZM300.655 309.307C295.341 306.467 289.711 304.333 283.921 302.987L287.009 289.773C292.276 291 297.425 292.76 302.381 295.027V146.907L202.647 201.187V496.32L302.381 442.04V306.08L300.655 309.307Z" fill="#8F9295"/>
<path d="M156.483 331.227C151.493 328.813 147.719 325.773 144.941 321.907C143.055 319.28 141.613 316.227 140.536 312.573L153.552 308.733C154.191 310.907 154.979 312.627 155.96 313.987C157.384 315.96 159.488 317.613 162.392 319.013L156.483 331.227ZM133.709 272.88L147.108 270.72L150.233 290.187L136.835 292.347L133.709 272.88ZM116.941 230.547C116.941 221.28 124.449 213.773 133.709 213.773C142.971 213.773 150.477 221.28 150.477 230.547C150.477 236.413 147.465 241.56 142.908 244.56L143.983 251.267L130.584 253.413L129.52 246.787C122.287 244.92 116.941 238.36 116.941 230.547V230.547ZM188.568 338.387C185.095 338.387 181.353 338.013 177.128 337.253L179.531 323.893C185.411 324.96 189.968 325.093 193.821 324.347V201.187L94.0867 146.907V442.04L193.821 496.32V338.08C192.14 338.28 190.397 338.387 188.568 338.387" fill="#8F9295"/>
<path d="M463.68 134.093C454.227 134.093 446.56 126.44 446.56 116.987C446.56 107.533 454.227 99.8666 463.68 99.8666C473.133 99.8666 480.787 107.533 480.787 116.987C480.787 126.44 473.133 134.093 463.68 134.093ZM463.68 73.3333C438.347 73.3333 417.827 93.8533 417.827 119.187C417.827 119.24 417.827 119.293 417.827 119.347C417.84 126.333 419.92 133.16 423.627 139.093C425.613 142.267 428.293 146.627 431.347 151.707C444.253 173.213 463.68 207.706 463.68 220.493C463.68 207.706 483.093 173.227 496.013 151.72C499.013 146.72 501.733 142.307 503.747 139.08C507.44 133.147 509.52 126.333 509.547 119.347C509.547 119.293 509.547 119.24 509.547 119.187C509.547 93.8533 489.013 73.3333 463.68 73.3333Z" fill="#8F9295"/>
<path d="M473.133 273.093L472.813 280.44L459.253 279.827L459.547 273.173C453.627 270.587 449.493 264.68 449.493 257.8C449.493 248.547 457 241.04 466.253 241.04C475.52 241.04 483.027 248.547 483.027 257.8C483.027 264.613 478.96 270.467 473.133 273.093ZM471.8 302.88C471.56 308.253 471.293 314.347 470.68 320.267L457.187 318.88C457.747 313.347 458 307.72 458.24 302.28L458.36 299.6L471.92 300.213L471.8 302.88ZM466.173 342.133C463.84 348.92 460.373 355.267 456.16 360.453L445.627 351.907C448.84 347.933 451.507 343.027 453.333 337.72C453.44 337.413 453.547 337.093 453.653 336.787L466.56 340.96C466.44 341.36 466.307 341.747 466.173 342.133V342.133ZM497.933 159.56C482.92 185.053 463.68 220.413 463.68 234.28C463.68 225.187 455.4 206.853 445.48 188.12L421.453 201.187V363.653C425.92 363.453 429.613 362.773 432.88 361.52L437.72 374.2C432.907 376.04 427.68 377.027 421.453 377.253V496.32L521.187 442.04V146.907L497.933 159.56" fill="#8F9295"/>
<rect x="-790" y="525" width="3978" height="222" fill="white"/>
</g>
</svg>
