<svg width="619" height="619" viewBox="0 0 619 619" fill="none" xmlns="http://www.w3.org/2000/svg">
<mask id="mask0_3_276" style="mask-type:alpha" maskUnits="userSpaceOnUse" x="0" y="0" width="619" height="619">
<circle cx="309.5" cy="309.5" r="309.5" fill="#D9D9D9"/>
</mask>
<g mask="url(#mask0_3_276)">
<path d="M2434.67 3139H-1832V-61.0002H2434.67V3139Z" fill="white"/>
<path d="M37.4 586C37.4 584.814 35.5599 579.52 31.9066 570.12C28.3599 561 25.8534 555.027 24.3867 552.174C15.9734 573.667 11.76 584.92 11.76 585.934C11.76 587.32 13.3066 588.134 16.4 588.374C16.56 588.414 18.5466 588.44 22.3733 588.44H28.6666C34.4933 588.44 37.4 587.627 37.4 586V586ZM65.8533 619.693C65.8533 620.187 65.36 620.427 64.3867 620.427C63.6133 620.427 62.48 620.374 61 620.254C59.5066 620.12 58.3866 620.067 57.6132 620.067C56.8399 620.067 55.68 620.12 54.1333 620.254C52.5866 620.374 51.4266 620.427 50.6399 620.427C49.5066 620.427 48.0532 617.347 46.2799 611.187C44.5066 605.014 42.7066 601.893 40.8799 601.813C39.3732 601.733 35.44 601.693 29.0933 601.693H19.4534C12.7334 601.693 8.90661 601.733 7.97327 601.813C6.50661 601.933 4.94666 605.067 3.29333 611.213C1.65333 617.36 0.373248 620.427 -0.520086 620.427H-14.2534C-15.0668 620.427 -15.48 620.147 -15.48 619.574C-15.48 619.174 -15.1867 618.253 -14.6267 616.827L0.3333 575.92C1.59997 572.627 5.42658 563.12 11.8132 547.413C12.9599 544.8 14.5067 540.88 16.4534 535.627C16.9467 534.08 17.4799 533.307 18.0399 533.307C18.8133 533.307 19.96 533.413 21.4666 533.613C22.9733 533.813 24.1066 533.92 24.8799 533.92C25.6132 533.92 26.7199 533.8 28.2132 533.587C29.6932 533.36 30.7866 533.24 31.4799 533.24C31.8399 533.24 32.3466 534 33 535.507C33.9733 537.787 38.8 550.054 47.4666 572.32C59.72 603.627 65.8533 619.413 65.8533 619.693" fill="#8F9295"/>
<path d="M149.56 536.12C149.56 540.8 149.387 547.854 149.067 557.307C148.747 566.747 148.573 573.827 148.573 578.547C148.573 582.987 148.613 589.627 148.707 598.48C148.787 607.333 148.827 613.973 148.827 618.413C148.827 619.76 148.32 620.427 147.293 620.427C146.68 620.427 145.773 620.374 144.547 620.254C143.333 620.12 142.413 620.067 141.8 620.067C141.147 620.067 140.147 620.12 138.813 620.254C137.467 620.374 136.467 620.427 135.813 620.427C135.08 620.427 134.213 619.76 133.187 618.413C124.4 606.573 111.067 588.907 93.2 565.427C90.44 561.84 88.8266 559.84 88.3733 559.44C87.9733 559.44 87.7733 560.267 87.7733 561.947C87.7733 568.213 87.8666 577.627 88.0666 590.174C88.28 602.734 88.3733 612.147 88.3733 618.413C88.3733 619.76 87.9733 620.427 87.16 620.427C86.4667 620.427 85.4134 620.374 83.9867 620.254C82.56 620.12 81.4932 620.067 80.8132 620.067C80.0799 620.067 78.9866 620.12 77.5466 620.254C76.0932 620.374 75.0132 620.427 74.2799 620.427C73.2532 620.427 72.7466 620.027 72.7466 619.213C72.7466 614.733 72.96 607.987 73.3867 598.974C73.8134 589.96 74.0267 583.187 74.0267 578.667C74.0267 573.747 73.8532 564.867 73.4799 552.054C73.3999 548.707 73.2 543.707 72.8666 537.027L72.8132 536.24C72.7732 535.627 73.2532 535.307 74.2799 535.254C76.9199 535.214 78.9999 535.133 80.5066 535.013C81.0666 534.973 82.1466 534.814 83.7333 534.534C85.08 534.28 86.1333 534.16 86.9066 534.16C87.2799 534.16 87.9066 534.747 88.8 535.934C98.1733 548.8 112.493 567.92 131.787 593.32C132.64 594.387 133.44 595.294 134.173 596.067C134.453 594.36 134.6 590.453 134.6 584.347C134.6 579.053 134.4 571.12 134.013 560.534C133.627 549.96 133.44 542.04 133.44 536.787C133.44 535.44 133.84 534.774 134.653 534.774C135.387 534.774 136.493 534.827 137.987 534.96C139.467 535.08 140.587 535.134 141.307 535.134C142.08 535.134 143.24 535.08 144.787 534.96C146.333 534.827 147.493 534.774 148.267 534.774C149.133 534.774 149.56 535.214 149.56 536.12Z" fill="#8F9295"/>
<path d="M179.293 619.147C179.293 620 178.693 620.427 177.52 620.427C176.787 620.427 175.667 620.374 174.16 620.254C172.653 620.12 171.533 620.067 170.8 620.067C170.027 620.067 168.893 620.12 167.387 620.254C165.88 620.374 164.76 620.427 164.027 620.427C163.013 620.427 162.493 619.96 162.493 619.027C162.493 614.387 162.707 607.4 163.133 598.054C163.573 588.707 163.787 581.707 163.787 577.027C163.787 572.507 163.573 565.72 163.133 556.654C162.707 547.6 162.493 540.813 162.493 536.293C162.493 535.28 162.973 534.774 163.907 534.774C164.68 534.774 165.853 534.827 167.44 534.96C169.027 535.08 170.227 535.134 171.04 535.134C171.773 535.134 172.88 535.08 174.347 534.96C175.813 534.827 176.907 534.774 177.64 534.774C178.693 534.774 179.227 535.174 179.227 535.987C179.227 540.547 179.067 547.387 178.733 556.507C178.413 565.627 178.253 572.467 178.253 577.027C178.253 581.707 178.427 588.72 178.773 598.08C179.12 607.453 179.293 614.467 179.293 619.147" fill="#8F9295"/>
<path d="M277.947 618.907C277.947 619.92 277.44 620.427 276.427 620.427C275.693 620.427 274.587 620.374 273.093 620.254C271.613 620.12 270.507 620.067 269.773 620.067C269.04 620.067 267.92 620.12 266.413 620.254C264.907 620.374 263.787 620.427 263.053 620.427C262.04 620.427 261.533 619.76 261.533 618.413C261.533 613.253 261.693 605.493 262.013 595.16C262.347 584.813 262.507 577.067 262.507 571.893C262.507 571.12 262.347 570.734 262.013 570.734C261.653 570.734 261.373 570.96 261.16 571.4C259.093 575.84 254.187 587.68 246.453 606.934C245.187 610.64 243.373 615.267 241.013 620.8C240.733 621.32 239.267 621.587 236.613 621.587C232.787 621.587 230.68 621.24 230.267 620.547C228.88 617.253 226.907 612.64 224.347 606.693C220.973 598.64 215.773 586.627 208.773 570.667C208.653 570.387 208.387 570.107 207.987 569.813C207.653 570.067 207.493 570.507 207.493 571.16C207.493 576.413 207.587 584.294 207.773 594.787C207.96 605.294 208.04 613.16 208.04 618.413C208.04 619.76 207.533 620.427 206.52 620.427C205.827 620.427 204.773 620.374 203.347 620.254C201.92 620.12 200.867 620.067 200.173 620.067C199.44 620.067 198.347 620.12 196.907 620.254C195.453 620.374 194.373 620.427 193.64 620.427C192.613 620.427 192.107 620.04 192.107 619.267C192.107 614.747 192.32 607.987 192.747 598.974C193.173 589.96 193.387 583.187 193.387 578.667C193.387 573.987 193.173 566.96 192.747 557.574C192.32 548.187 192.107 541.16 192.107 536.48C192.107 535.707 192.573 535.254 193.52 535.134C199.053 534.4 203.227 534.04 206.027 534.04C206.44 534.04 207.013 534.88 207.747 536.547C217.587 558.2 226.053 577.533 233.133 594.547C234.813 598.533 235.8 600.534 236.133 600.534C236.533 600.534 237.413 598.894 238.76 595.64C244.293 582.454 251.96 562.88 261.773 536.907C262.387 535.32 263.053 534.534 263.787 534.534C265.173 534.534 267.253 534.614 270.053 534.774C272.84 534.934 274.92 535.013 276.307 535.013C277.32 535.013 277.827 535.507 277.827 536.48C277.827 541.16 277.68 548.187 277.373 557.574C277.067 566.96 276.92 573.987 276.92 578.667C276.92 583.147 277.093 589.867 277.44 598.813C277.787 607.773 277.947 614.467 277.947 618.907" fill="#8F9295"/>
<path d="M337.973 586C337.973 584.814 336.133 579.52 332.48 570.12C328.933 561 326.427 555.027 324.96 552.174C316.533 573.667 312.333 584.92 312.333 585.934C312.333 587.32 313.88 588.134 316.973 588.374C317.133 588.414 319.12 588.44 322.947 588.44H329.24C335.053 588.44 337.973 587.627 337.973 586V586ZM366.426 619.693C366.426 620.187 365.933 620.427 364.96 620.427C364.186 620.427 363.053 620.374 361.573 620.254C360.08 620.12 358.947 620.067 358.173 620.067C357.4 620.067 356.24 620.12 354.693 620.254C353.146 620.374 351.987 620.427 351.213 620.427C350.08 620.427 348.627 617.347 346.853 611.187C345.08 605.014 343.28 601.893 341.453 601.813C339.947 601.733 336.013 601.693 329.667 601.693H320.013C313.307 601.693 309.48 601.733 308.547 601.813C307.08 601.933 305.52 605.067 303.867 611.213C302.227 617.36 300.947 620.427 300.053 620.427H286.32C285.507 620.427 285.093 620.147 285.093 619.574C285.093 619.174 285.387 618.253 285.947 616.827L300.907 575.92C302.173 572.627 306 563.12 312.387 547.413C313.533 544.8 315.08 540.88 317.027 535.627C317.52 534.08 318.04 533.307 318.613 533.307C319.387 533.307 320.533 533.413 322.04 533.613C323.547 533.813 324.68 533.92 325.453 533.92C326.187 533.92 327.293 533.8 328.787 533.587C330.267 533.36 331.36 533.24 332.053 533.24C332.413 533.24 332.92 534 333.573 535.507C334.547 537.787 339.373 550.054 348.04 572.32C360.293 603.627 366.426 619.413 366.426 619.693" fill="#8F9295"/>
<path d="M430.107 546.307C430.107 547.374 429.733 547.893 429 547.893C427.867 547.893 420.653 547.653 407.387 547.16C407.027 559.573 406.84 569.533 406.84 577.027C406.84 581.707 407.013 588.72 407.36 598.08C407.706 607.453 407.88 614.467 407.88 619.147C407.88 620 407.293 620.427 406.107 620.427C405.373 620.427 404.253 620.374 402.746 620.254C401.24 620.12 400.107 620.067 399.333 620.067C398.6 620.067 397.48 620.12 395.973 620.254C394.467 620.374 393.346 620.427 392.613 620.427C391.6 620.427 391.093 619.92 391.093 618.907C391.093 614.267 391.28 607.294 391.667 598C392.053 588.694 392.253 581.707 392.253 577.027C392.253 569.773 392.027 559.827 391.573 547.16C381.08 547.813 373.386 548.147 368.493 548.147C368.013 548.147 367.76 547.947 367.76 547.534C367.76 546.8 367.947 545.747 368.32 544.36C368.76 542.56 369.027 541.507 369.107 541.187C369.187 539.76 369.48 537.787 369.96 535.254C370.16 534.734 370.507 534.467 371 534.467L371.733 534.534C386.147 535.387 395.64 535.813 400.24 535.813C404.32 535.813 410.973 535.507 420.213 534.893C426.52 534.48 429.146 534.28 428.08 534.28C429.146 534.28 429.733 534.654 429.853 535.387C429.773 534.934 429.733 536.907 429.733 541.307C429.733 541.84 429.8 542.654 429.92 543.774C430.04 544.894 430.107 545.747 430.107 546.307" fill="#8F9295"/>
<path d="M454.28 619.147C454.28 620 453.693 620.427 452.507 620.427C451.773 620.427 450.653 620.374 449.147 620.254C447.64 620.12 446.52 620.067 445.787 620.067C445.013 620.067 443.88 620.12 442.373 620.254C440.867 620.374 439.747 620.427 439.013 620.427C438 620.427 437.493 619.96 437.493 619.027C437.493 614.387 437.707 607.4 438.133 598.054C438.56 588.707 438.773 581.707 438.773 577.027C438.773 572.507 438.56 565.72 438.133 556.654C437.707 547.6 437.493 540.813 437.493 536.293C437.493 535.28 437.96 534.774 438.893 534.774C439.666 534.774 440.853 534.827 442.44 534.96C444.027 535.08 445.227 535.134 446.04 535.134C446.773 535.134 447.867 535.08 449.333 534.96C450.8 534.827 451.893 534.774 452.626 534.774C453.693 534.774 454.213 535.174 454.213 535.987C454.213 540.547 454.053 547.387 453.733 556.507C453.4 565.627 453.24 572.467 453.24 577.027C453.24 581.707 453.413 588.72 453.76 598.08C454.106 607.453 454.28 614.467 454.28 619.147" fill="#8F9295"/>
<path d="M533.04 577.387C533.04 569.413 530.56 562.467 525.587 556.573C520.387 550.293 513.853 547.16 505.987 547.16C498.213 547.16 491.747 550.347 486.573 556.693C481.693 562.627 479.253 569.587 479.253 577.573C479.253 585.507 481.693 592.453 486.573 598.387C491.747 604.747 498.213 607.92 505.987 607.92C513.893 607.92 520.44 604.747 525.653 598.387C530.573 592.453 533.04 585.453 533.04 577.387ZM547.76 577.573C547.76 589.653 543.893 600.053 536.147 608.773C528.093 617.813 518.08 622.32 506.12 622.32C494.107 622.32 484.093 617.827 476.08 608.827C468.347 600.16 464.48 589.747 464.48 577.573C464.48 565.52 468.387 555.12 476.2 546.373C484.253 537.293 494.227 532.76 506.12 532.76C518.04 532.76 528.027 537.293 536.093 546.373C543.867 555.08 547.76 565.48 547.76 577.573" fill="#8F9295"/>
<path d="M634.573 536.12C634.573 540.8 634.413 547.854 634.08 557.307C633.76 566.747 633.6 573.827 633.6 578.547C633.6 582.987 633.64 589.627 633.72 598.48C633.8 607.333 633.84 613.973 633.84 618.413C633.84 619.76 633.333 620.427 632.32 620.427C631.707 620.427 630.787 620.374 629.573 620.254C628.347 620.12 627.427 620.067 626.813 620.067C626.173 620.067 625.173 620.12 623.827 620.254C622.48 620.374 621.493 620.427 620.84 620.427C620.107 620.427 619.227 619.76 618.213 618.413C609.413 606.573 596.093 588.907 578.227 565.427C575.453 561.84 573.84 559.84 573.4 559.44C572.987 559.44 572.787 560.267 572.787 561.947C572.787 568.213 572.893 577.627 573.093 590.174C573.293 602.734 573.4 612.147 573.4 618.413C573.4 619.76 572.987 620.427 572.173 620.427C571.48 620.427 570.427 620.374 569 620.254C567.573 620.12 566.52 620.067 565.827 620.067C565.093 620.067 564 620.12 562.56 620.254C561.12 620.374 560.027 620.427 559.293 620.427C558.28 620.427 557.773 620.027 557.773 619.213C557.773 614.733 557.987 607.987 558.413 598.974C558.84 589.96 559.053 583.187 559.053 578.667C559.053 573.747 558.867 564.867 558.493 552.054C558.413 548.707 558.213 543.707 557.893 537.027L557.827 536.24C557.787 535.627 558.28 535.307 559.293 535.254C561.933 535.214 564.013 535.133 565.52 535.013C566.093 534.973 567.173 534.814 568.76 534.534C570.093 534.28 571.16 534.16 571.933 534.16C572.293 534.16 572.933 534.747 573.827 535.934C583.187 548.8 597.52 567.92 616.8 593.32C617.667 594.387 618.453 595.294 619.187 596.067C619.467 594.36 619.613 590.453 619.613 584.347C619.613 579.053 619.427 571.12 619.04 560.534C618.653 549.96 618.453 542.04 618.453 536.787C618.453 535.44 618.867 534.774 619.68 534.774C620.413 534.774 621.52 534.827 623 534.96C624.493 535.08 625.6 535.134 626.333 535.134C627.107 535.134 628.267 535.08 629.813 534.96C631.36 534.827 632.52 534.774 633.293 534.774C634.147 534.774 634.573 535.214 634.573 536.12" fill="#8F9295"/>
<path d="M489.133 227.107C484.387 217.213 472.667 212.787 462.587 217.133C459 218.68 455.413 220.16 451.826 221.6C450.906 226.56 447.226 230.707 442.16 232.16C350.853 258.573 262.333 258.867 176.667 232.307C171.653 230.747 168.053 226.547 167.213 221.573C163.653 220.147 160.08 218.667 156.52 217.133C146.427 212.787 134.707 217.213 129.96 227.107C124.933 237.614 129.627 250.213 140.32 254.8C196.52 278.907 253.04 290.96 309.547 290.96C366.067 290.96 422.573 278.907 478.773 254.8C489.467 250.213 494.16 237.614 489.133 227.107Z" fill="#8F9295"/>
<path d="M356.987 163.574C357.667 161.48 357.84 159.267 357.6 157.08C356.56 147.587 374.507 146.774 375.413 152.92C376.227 158.44 381.213 164.48 384.4 166.413C383.467 167.44 382.853 168.747 382.667 170.187C382.627 170.48 382.6 170.787 382.6 171.093C382.6 171.427 382.627 171.76 382.68 172.093C382.96 174.133 384.147 175.894 385.8 176.974C384.88 183.534 386.96 195.133 385.187 197.96C383.053 201.373 378.04 203.44 373.613 196.68C372.227 194.56 370.333 192.827 368.08 191.654C358.2 186.52 363.813 179.773 368.213 179.547C371.36 179.387 376.346 175.493 379.493 172.747C372.52 173.907 362.747 174.693 358.84 172.093C355.667 169.973 356.093 166.267 356.987 163.574V163.574ZM383.4 140.147C397.773 137.947 405.76 139.747 405.16 148.933C403.626 156.627 396.786 161.374 392.56 164.774C391.666 164.347 390.653 164.107 389.587 164.107C388.493 164.107 387.467 164.36 386.547 164.8C381.6 157.507 372.413 141.827 383.4 140.147V140.147ZM407.96 159.92C410.746 155.92 416.733 155.52 419.933 167.693C423.133 179.88 419.133 184.067 414.547 184.067C411.16 184.067 402.253 175.947 396.2 173.347C396.44 172.64 396.573 171.88 396.573 171.093C396.573 169.24 395.853 167.547 394.667 166.307C398.48 165.24 405.906 162.84 407.96 159.92V159.92ZM384.693 171.093C384.693 168.387 386.88 166.2 389.587 166.2C392.293 166.2 394.48 168.387 394.48 171.093C394.48 173.8 392.293 175.987 389.587 175.987C386.88 175.987 384.693 173.8 384.693 171.093ZM402.36 198.84C399.973 198.64 396.973 198.84 396.573 201.44C396.187 203.92 387.093 210.387 387.813 177.854C388.387 178 388.973 178.08 389.587 178.08C391.987 178.08 394.106 176.867 395.36 175.027C401.706 179.653 410.947 187.4 410.547 193.054C409.947 201.64 404.76 199.04 402.36 198.84V198.84ZM449.32 207.613C448.733 132.8 387.92 72.3335 312.973 72.3335H306.133C231.12 72.3335 170.28 132.894 169.773 207.774C262.12 237.307 355.827 237.253 449.32 207.613Z" fill="#8F9295"/>
<path d="M327.667 359.68C357.093 310.227 399.133 354.32 417.347 348.653C402.773 380.147 348.96 388.347 327.667 359.68V359.68ZM203.8 348.653C222.013 354.32 264.053 310.227 293.48 359.68C272.173 388.347 218.373 380.147 203.8 348.653ZM310.573 353.213C264.253 270.227 173.04 347.44 146.347 313.693C189.773 405.733 290.293 425.067 310.573 359.267C330.84 425.067 431.373 405.733 474.8 313.693C448.107 347.44 356.893 270.227 310.573 353.213Z" fill="#8F9295"/>
<path d="M311.707 448.76C310.333 449.227 308.773 449.227 307.387 448.76C302.893 447.253 292.813 443.987 291.36 444.413C289.467 444.947 247.64 463.653 236.773 470.733C236.773 470.733 266.307 502.32 309.546 502.32C352.786 502.32 382.32 470.733 382.32 470.733C371.453 463.653 329.626 444.947 327.746 444.413C326.28 443.987 316.2 447.253 311.707 448.76Z" fill="#8F9295"/>
<rect x="-1663" y="531" width="3978" height="222" fill="white"/>
</g>
</svg>
