<svg width="619" height="619" viewBox="0 0 619 619" fill="none" xmlns="http://www.w3.org/2000/svg">
<mask id="mask0_3_276" style="mask-type:alpha" maskUnits="userSpaceOnUse" x="0" y="0" width="619" height="619">
<circle cx="309.5" cy="309.5" r="309.5" fill="#D9D9D9"/>
</mask>
<g mask="url(#mask0_3_276)">
<path d="M1559.67 3123H-2707V-77.0002H1559.67V3123Z" fill="white"/>
<path d="M24.6666 577.44C24.6666 572.48 22.4532 569.12 18.0132 567.374C15.2132 566.227 10.8265 565.667 4.89312 565.667C-5.37355 565.667 -10.4933 566.214 -10.4933 567.307V577.32C-10.4933 578.787 -10.4536 581.027 -10.3736 584.04C-10.2936 587.054 -10.2535 589.307 -10.2535 590.813C-10.2535 591.227 -8.94673 591.534 -6.34673 591.734C-3.73339 591.934 0.133273 592.04 5.25327 592.04C11.6933 592.04 16.3066 591.2 19.1199 589.534C22.8133 587.334 24.6666 583.307 24.6666 577.44V577.44ZM23.0265 543.013C23.0265 537.267 20.4532 533.4 15.3332 531.413C12.2399 530.227 7.17322 529.64 0.133221 529.64C-6.70678 529.64 -10.1334 530.147 -10.1334 531.16C-10.1334 532.507 -10.1869 534.52 -10.3069 537.213C-10.4402 539.893 -10.4933 541.934 -10.4933 543.32C-10.4933 544.254 -10.4802 545.694 -10.4402 547.654C-10.4002 549.6 -10.3736 551.067 -10.3736 552.04C-10.3736 553.227 -5.77355 553.813 3.42645 553.813C16.4931 553.813 23.0265 550.213 23.0265 543.013V543.013ZM40.1733 578.054C40.1733 585.134 38.04 591.227 33.7733 596.307C29.2533 601.64 23.5065 604.307 16.5465 604.307C13.9465 604.307 10.0266 604.254 4.79989 604.12C-0.426779 604 -4.34668 603.947 -6.96001 603.947C-8.86668 603.947 -11.7468 604.027 -15.6001 604.187C-19.4401 604.347 -22.32 604.427 -24.2267 604.427C-25.2533 604.427 -25.76 603.96 -25.76 603.027C-25.76 598.547 -25.5468 591.827 -25.1202 582.854C-24.6935 573.88 -24.4801 567.147 -24.4801 562.667C-24.4801 557.947 -24.6935 550.854 -25.1202 541.387C-25.5468 531.934 -25.76 524.84 -25.76 520.12C-25.76 519.214 -25.2533 518.774 -24.2267 518.774C-20.6133 518.774 -15.1601 518.787 -7.86678 518.827C-0.586779 518.88 4.89312 518.893 8.55978 518.893C17.1065 518.893 23.9198 520.48 29.0132 523.654C35.1998 527.52 38.2931 533.52 38.2931 541.667C38.2931 544.48 37.4667 547.4 35.84 550.427C34.2133 553.467 32.2399 555.747 29.9199 557.293C28.7466 558.067 28.1465 558.573 28.1465 558.827C28.1465 559.067 28.7466 559.52 29.9199 560.16C33.0133 561.88 35.4933 564.387 37.3733 567.707C39.24 571.027 40.1733 574.48 40.1733 578.054Z" fill="#8F9295"/>
<path d="M67.4132 603.147C67.4132 604 66.8133 604.427 65.64 604.427C64.9067 604.427 63.7865 604.374 62.2798 604.254C60.7732 604.12 59.6533 604.067 58.92 604.067C58.1466 604.067 57.0133 604.12 55.5067 604.254C54 604.374 52.8799 604.427 52.1465 604.427C51.1332 604.427 50.6265 603.96 50.6265 603.027C50.6265 598.387 50.8399 591.4 51.2666 582.054C51.6932 572.707 51.9067 565.707 51.9067 561.027C51.9067 556.507 51.6932 549.72 51.2666 540.654C50.8399 531.6 50.6265 524.813 50.6265 520.293C50.6265 519.28 51.0931 518.774 52.0265 518.774C52.7998 518.774 53.9731 518.827 55.5598 518.96C57.1465 519.08 58.36 519.134 59.1733 519.134C59.9067 519.134 60.9999 519.08 62.4666 518.96C63.9332 518.827 65.0265 518.774 65.7598 518.774C66.8131 518.774 67.3465 519.174 67.3465 519.987C67.3465 524.547 67.1866 531.387 66.8666 540.507C66.5332 549.627 66.3733 556.467 66.3733 561.027C66.3733 565.707 66.5465 572.72 66.8931 582.08C67.2398 591.453 67.4132 598.467 67.4132 603.147" fill="#8F9295"/>
<path d="M146.173 561.387C146.173 553.413 143.693 546.467 138.72 540.573C133.507 534.307 126.973 531.16 119.12 531.16C111.347 531.16 104.88 534.347 99.7066 540.693C94.8266 546.64 92.3866 553.6 92.3866 561.573C92.3866 569.507 94.8266 576.453 99.7066 582.387C104.88 588.747 111.347 591.92 119.12 591.92C127.013 591.92 133.573 588.747 138.787 582.387C143.707 576.453 146.173 569.453 146.173 561.387ZM160.88 561.573C160.88 573.653 157.013 584.067 149.28 592.773C141.226 601.813 131.213 606.32 119.24 606.32C107.24 606.32 97.2265 601.827 89.2131 592.827C81.4665 584.16 77.5999 573.747 77.5999 561.573C77.5999 549.52 81.5199 539.12 89.3332 530.373C97.3865 521.293 107.36 516.76 119.24 516.76C131.173 516.76 141.16 521.293 149.226 530.373C157 539.08 160.88 549.48 160.88 561.573" fill="#8F9295"/>
<path d="M245.627 601.44C245.707 602.334 245.2 602.787 244.107 602.787C243.493 602.787 242.013 602.2 239.68 601.04C237.333 599.88 235.84 599.054 235.187 598.574C227.693 603.654 218.827 606.2 208.573 606.2C196.6 606.2 186.747 601.72 179.013 592.774C171.693 584.307 168.027 573.987 168.027 561.813C168.027 549.36 171.627 538.893 178.84 530.427C186.44 521.48 196.36 517 208.573 517C214.84 517 220.867 518.48 226.667 521.427C232.467 524.373 237.107 528.413 240.56 533.547C241.093 534.32 241.36 534.907 241.36 535.32C241.36 535.894 239.893 537.773 236.987 540.96C234.08 544.16 232.4 545.76 231.947 545.76C231.627 545.76 230.387 544.52 228.227 542.027C225.627 539.027 223.147 536.72 220.773 535.134C217.08 532.654 213.213 531.413 209.173 531.413C201.48 531.413 195.173 534.627 190.253 541.054C185.773 546.92 183.533 553.84 183.533 561.813C183.533 569.587 185.84 576.467 190.44 582.454C195.44 588.92 201.733 592.16 209.307 592.16C216.747 592.16 223.587 590.12 229.813 586.054C229.733 584.96 229.387 581.094 228.773 574.454C228.293 569.734 228.04 565.88 228.04 562.92C228.04 562.227 228.493 561.88 229.387 561.88C230.16 561.88 231.32 561.933 232.867 562.027C234.413 562.133 235.573 562.187 236.347 562.187C237.12 562.187 238.307 562.147 239.893 562.054C241.48 561.974 242.653 561.934 243.427 561.934C244.28 561.934 244.707 562.587 244.707 563.893C244.707 565.32 244.667 567.467 244.56 570.334C244.453 573.2 244.413 575.347 244.413 576.774C244.413 582.64 244.8 590.574 245.573 600.587L245.627 601.44" fill="#8F9295"/>
<path d="M304.547 548.56C304.547 541.2 302.427 536.28 298.2 533.787C295.067 531.96 289.427 531.04 281.28 531.04C274.693 531.04 271.333 531.573 271.213 532.627C270.92 534.827 270.787 540.707 270.787 550.28V561.933C270.907 562.013 271.173 562.093 271.573 562.187C272.307 562.267 273.507 562.36 275.173 562.48C279.04 562.693 283.213 562.787 287.693 562.787C298.933 562.787 304.547 558.053 304.547 548.56V548.56ZM321.28 603.947C321.28 604.267 320.946 604.427 320.293 604.427C319.52 604.427 318.346 604.373 316.76 604.253C315.173 604.12 313.987 604.067 313.213 604.067C312.36 604.067 311.093 604.12 309.4 604.253C307.707 604.373 306.44 604.427 305.587 604.427C304.653 604.427 303.933 603.92 303.453 602.907C302.147 600.133 298.44 591.573 292.333 577.2C291.72 575.733 290.24 574.84 287.88 574.52C287.347 574.48 285.493 574.453 282.32 574.453C276.707 574.453 273.373 574.533 272.307 574.693C271.453 574.813 271.026 575.853 271.026 577.813C271.026 580.667 271.16 584.92 271.426 590.6C271.693 596.28 271.826 600.52 271.826 603.333C271.826 604.187 271.413 604.613 270.6 604.613C269.787 604.613 268.56 604.52 266.907 604.347C265.253 604.16 264 604.067 263.147 604.067C262.453 604.067 261.4 604.12 259.973 604.253C258.547 604.373 257.493 604.427 256.8 604.427C255.787 604.427 255.28 603.96 255.28 603.027C255.28 598.507 255.493 591.72 255.92 582.667C256.347 573.613 256.56 566.827 256.56 562.307C256.56 549.44 256.093 535.72 255.147 521.147L255.093 520.173C255.053 519.36 255.907 518.96 257.653 518.96C261.16 518.96 266.4 518.867 273.373 518.68C280.36 518.493 285.573 518.4 289.04 518.4C298.08 518.4 305.32 520.56 310.773 524.88C316.8 529.64 319.813 536.4 319.813 545.147C319.813 551.173 319 555.92 317.373 559.373C315.653 563.04 312.48 566.52 307.84 569.813C307.067 570.347 306.68 570.853 306.68 571.347C306.68 571.907 309.12 577.32 313.973 587.573C318.84 597.84 321.28 603.293 321.28 603.947" fill="#8F9295"/>
<path d="M376.653 570C376.653 568.814 374.827 563.52 371.16 554.12C367.613 545 365.107 539.027 363.653 536.174C355.227 557.667 351.013 568.92 351.013 569.934C351.013 571.32 352.56 572.134 355.653 572.374C355.813 572.414 357.8 572.44 361.627 572.44H367.92C373.747 572.44 376.653 571.627 376.653 570V570ZM405.107 603.693C405.107 604.187 404.613 604.427 403.64 604.427C402.867 604.427 401.733 604.374 400.253 604.254C398.76 604.12 397.64 604.067 396.867 604.067C396.093 604.067 394.933 604.12 393.387 604.254C391.84 604.374 390.68 604.427 389.907 604.427C388.76 604.427 387.307 601.347 385.533 595.187C383.76 589.014 381.96 585.893 380.133 585.813C378.627 585.733 374.693 585.693 368.347 585.693H358.707C351.987 585.693 348.16 585.733 347.227 585.813C345.76 585.933 344.2 589.067 342.547 595.213C340.907 601.36 339.627 604.427 338.733 604.427H325C324.187 604.427 323.773 604.147 323.773 603.574C323.773 603.174 324.067 602.253 324.64 600.827L339.587 559.92C340.853 556.627 344.68 547.12 351.067 531.413C352.213 528.813 353.76 524.88 355.707 519.627C356.2 518.08 356.733 517.307 357.293 517.307C358.067 517.307 359.213 517.413 360.72 517.613C362.227 517.813 363.36 517.92 364.133 517.92C364.867 517.92 365.973 517.8 367.467 517.587C368.947 517.36 370.04 517.24 370.733 517.24C371.093 517.24 371.6 518 372.253 519.507C373.227 521.787 378.053 534.054 386.72 556.32C398.973 587.627 405.107 603.413 405.107 603.693" fill="#8F9295"/>
<path d="M465.787 551.32C465.787 545.213 464.147 540.32 460.84 536.667C457.427 532.84 452.706 530.92 446.68 530.92C444.813 530.92 441.467 531.08 436.667 531.413C431.173 531.733 428.347 532.067 428.187 532.387C427.893 532.88 427.76 539.88 427.76 553.387C427.76 555.093 427.8 557.667 427.907 561.08C428.013 564.507 428.053 567.067 428.053 568.773C428.053 569.147 428.507 569.427 429.4 569.627C431.64 570.08 437.853 570.307 448.026 570.307C453.72 570.307 458.16 568.533 461.333 564.987C464.307 561.613 465.787 557.053 465.787 551.32ZM481.173 550.4C481.173 559.96 478.586 567.613 473.426 573.36C468.093 579.253 460.707 582.213 451.267 582.213C448.947 582.213 445.427 582.12 440.733 581.933C436.027 581.747 432.493 581.653 430.133 581.653C428.84 581.653 428.187 582.493 428.187 584.16C428.187 586.32 428.32 589.56 428.573 593.867C428.84 598.187 428.973 601.413 428.973 603.573C428.973 604.267 428.586 604.613 427.813 604.613C426.96 604.613 425.667 604.52 423.933 604.347C422.213 604.16 420.92 604.067 420.067 604.067C419.333 604.067 418.253 604.12 416.826 604.253C415.4 604.373 414.347 604.427 413.653 604.427C412.64 604.427 412.12 603.8 412.12 602.533C412.12 598.107 412.32 591.413 412.707 582.453C413.093 573.493 413.28 566.787 413.28 562.307C413.28 549.6 412.813 535.973 411.88 521.4L411.813 520.48C411.773 519.587 412.306 519.133 413.413 519.133C415.6 519.133 418.907 519.16 423.333 519.2C427.747 519.24 431.067 519.253 433.307 519.253C435.227 519.253 438.093 519.173 441.92 519.013C445.747 518.853 448.613 518.773 450.533 518.773C459.52 518.773 466.906 521.827 472.693 527.933C478.346 533.907 481.173 541.4 481.173 550.4" fill="#8F9295"/>
<path d="M567.027 603.027C567.027 603.96 566.413 604.427 565.187 604.427C564.493 604.427 563.427 604.374 561.987 604.254C560.533 604.12 559.453 604.067 558.72 604.067C557.947 604.067 556.773 604.12 555.2 604.254C553.64 604.374 552.467 604.427 551.693 604.427C550.76 604.427 550.293 603.96 550.293 603.027C550.293 599.36 550.4 593.867 550.627 586.547C550.853 579.213 550.96 573.72 550.96 570.054C550.96 568.467 550.493 567.56 549.56 567.307C548.333 566.987 541.293 566.827 528.44 566.827C515.613 566.827 508.573 566.987 507.307 567.307C506.413 567.56 505.96 568.467 505.96 570.054C505.96 573.64 506.067 579.027 506.267 586.24C506.48 593.44 506.573 598.84 506.573 602.413C506.573 603.76 506.067 604.427 505.053 604.427C504.28 604.427 503.12 604.374 501.573 604.254C500.027 604.12 498.867 604.067 498.093 604.067C497.36 604.067 496.267 604.12 494.827 604.254C493.373 604.374 492.293 604.427 491.56 604.427C490.533 604.427 490.027 603.96 490.027 603.027C490.027 598.547 490.24 591.827 490.667 582.854C491.093 573.88 491.307 567.147 491.307 562.667C491.307 557.947 491.093 550.854 490.667 541.387C490.24 531.934 490.027 524.84 490.027 520.12C490.027 519.214 490.533 518.774 491.56 518.774C492.293 518.774 493.413 518.827 494.92 518.96C496.427 519.08 497.56 519.134 498.333 519.134C499.067 519.134 500.2 519.08 501.747 518.96C503.293 518.827 504.44 518.774 505.173 518.774C506.107 518.774 506.573 519.134 506.573 519.867C506.573 523.374 506.427 528.627 506.12 535.654C505.813 542.68 505.667 547.934 505.667 551.44C505.667 552.574 506.093 553.267 506.947 553.507C507.96 553.88 515.12 554.067 528.44 554.067C541.453 554.067 548.587 553.88 549.8 553.507C550.733 553.267 551.213 552.387 551.213 550.88C551.213 547.467 551.093 542.32 550.867 535.44C550.653 528.56 550.533 523.414 550.533 519.987C550.533 519.174 551 518.774 551.947 518.774C552.707 518.774 553.84 518.827 555.333 518.96C556.813 519.08 557.947 519.134 558.72 519.134C559.453 519.134 560.547 519.08 562.013 518.96C563.48 518.827 564.573 518.774 565.307 518.774C566.373 518.774 566.893 519.214 566.893 520.12C566.893 524.84 566.693 531.934 566.293 541.387C565.88 550.854 565.68 557.947 565.68 562.667C565.68 567.147 565.907 573.88 566.347 582.854C566.8 591.827 567.027 598.547 567.027 603.027" fill="#8F9295"/>
<path d="M644.68 541.787C644.68 544.107 641.053 550.253 633.813 560.227C629.013 566.453 624.226 572.68 619.466 578.907C618.28 580.454 617.693 582.04 617.693 583.68C617.693 585.867 617.813 589.16 618.026 593.534C618.253 597.907 618.373 601.174 618.373 603.334C618.373 604.067 617.853 604.427 616.84 604.427H602.307C601.493 604.427 601.093 603.84 601.093 602.667C601.093 600.587 601.226 597.427 601.52 593.2C601.8 588.96 601.946 585.787 601.946 583.68C601.946 581.84 601.44 580.214 600.413 578.787C597.48 575 593.106 569.307 587.293 561.693C582.32 554.893 578.746 549.72 576.546 546.187C575.813 544.96 575.44 543.787 575.44 542.64C575.36 537.52 575.32 530.107 575.32 520.413C575.32 519.32 575.813 518.774 576.786 518.774C577.48 518.774 578.506 518.827 579.866 518.96C581.24 519.08 582.266 519.134 582.96 519.134C583.773 519.134 584.986 519.08 586.613 518.96C588.253 518.827 589.493 518.774 590.346 518.774C591.08 518.774 591.44 519.093 591.44 519.747C591.44 522.027 591.32 525.453 591.08 530.013C590.826 534.56 590.707 537.987 590.707 540.267C590.707 542.707 597.16 551.293 610.066 566.027C613.12 562.573 616.613 558.28 620.56 553.147C626.066 546.067 628.813 541.814 628.813 540.387C628.813 538.187 628.64 534.854 628.32 530.4C628 525.947 627.826 522.613 627.826 520.413C627.826 519.32 628.293 518.774 629.24 518.774C629.973 518.774 631.093 518.827 632.586 518.96C634.093 519.08 635.213 519.134 635.946 519.134C636.72 519.134 637.893 519.08 639.466 518.96C641.026 518.827 642.2 518.774 642.973 518.774C643.947 518.774 644.44 519.44 644.44 520.787C644.44 523.107 644.48 526.613 644.56 531.293C644.64 535.973 644.68 539.467 644.68 541.787" fill="#8F9295"/>
<path d="M291.813 288.307C288.28 288.307 285.867 291.933 287.173 295.267L296.826 319.76H322.093L331.746 295.267C333.053 291.933 330.64 288.307 327.107 288.307H291.813" fill="#8F9295"/>
<path d="M458.48 334.507C447.986 329.133 438.307 326.613 438.307 326.613C398.893 318.08 377.52 303.973 366.333 293.227L326.666 379.493L322.066 328.173H296.853L292.107 381.2L250.333 295.307C238.626 305.733 217.546 318.613 180.613 326.613C180.613 326.613 170.933 329.133 160.44 334.507C144.587 342.627 134.707 359.027 134.707 376.8V476.867C134.707 482.093 138.96 486.32 144.2 486.32H309.16H309.773H474.72C479.96 486.32 484.213 482.093 484.213 476.867V376.8C484.213 359.027 474.346 342.627 458.48 334.507" fill="#8F9295"/>
<path d="M237.973 205.2C241.68 206.293 243.333 208.16 244.76 211.52C253 230.987 263.267 249.053 280.52 261.933C288.773 268.093 297.96 271.947 308.4 272.12C326.053 272.4 339.173 263.36 350.493 250.88C361.08 239.2 368.44 225.467 374.587 210.974C375.373 209.12 376.84 206.853 378.52 206.227C390.32 201.8 398.373 190.16 397.893 177.533C397.64 170.76 396.213 169.093 388.8 167.68C389.147 165.667 389.427 164.04 389.72 162.4C392.293 148.08 394.587 133.747 392.413 119.093C390.067 103.293 383.053 91.0133 367.92 84.56C366.533 83.9733 364.787 82.76 364.4 81.48C360.667 69.32 351.427 63.68 340.24 61.2267C308.627 54.28 279.613 61.1468 253.64 80.3201C236.173 93.2135 226.84 111.013 227.093 133.187C227.227 144.627 228.453 156.053 229.133 166.667C226.707 168.613 223.067 170.067 222.08 172.587C217.813 183.44 226.867 201.92 237.973 205.2" fill="#8F9295"/>
<rect x="-2538" y="515" width="3978" height="222" fill="white"/>
</g>
</svg>
