<svg width="619" height="619" viewBox="0 0 619 619" fill="none" xmlns="http://www.w3.org/2000/svg">
<mask id="mask0_3_276" style="mask-type:alpha" maskUnits="userSpaceOnUse" x="0" y="0" width="619" height="619">
<circle cx="309.5" cy="309.5" r="309.5" fill="#D9D9D9"/>
</mask>
<g mask="url(#mask0_3_276)">
<path d="M686.667 3158H-3580V-42.0002H686.667V3158Z" fill="white"/>
<path d="M139.627 625.334C139.627 625.814 139.24 626.507 138.467 627.4C130.533 636.6 120.693 641.2 108.973 641.2C96.7602 641.2 87 636.747 79.6667 627.827C72.8267 619.533 69.4133 609.147 69.4133 596.693C69.4133 584.24 72.8934 573.813 79.8534 565.427C87.2668 556.4 97.0533 551.88 109.227 551.88C121.56 551.88 131.093 556.054 137.853 564.4C138.507 565.254 138.84 565.96 138.84 566.534C138.84 567.227 137.76 569.267 135.6 572.667C133.44 576.067 132.133 577.76 131.693 577.76C131.16 577.76 129.92 576.774 127.96 574.774C125.56 572.334 123.307 570.507 121.187 569.28C117.693 567.28 113.827 566.293 109.587 566.293C101.533 566.293 95.2668 569.36 90.7868 575.507C86.8001 581 84.8 587.92 84.8 596.267C84.8 604.614 86.7734 611.587 90.7201 617.213C95.2001 623.52 101.453 626.667 109.467 626.667C113.453 626.667 117.307 625.68 121 623.68C123.453 622.373 125.933 620.52 128.453 618.12C130.573 616.134 131.733 615.134 131.933 615.134C132.173 615.134 133.52 616.747 135.96 619.987C138.4 623.227 139.627 625 139.627 625.334Z" fill="#8F9295"/>
<path d="M212.347 596.387C212.347 588.413 209.867 581.467 204.893 575.573C199.68 569.307 193.147 566.16 185.293 566.16C177.52 566.16 171.053 569.347 165.88 575.693C161 581.64 158.56 588.6 158.56 596.573C158.56 604.507 161 611.453 165.88 617.387C171.053 623.747 177.52 626.92 185.293 626.92C193.187 626.92 199.747 623.747 204.96 617.387C209.88 611.453 212.347 604.453 212.347 596.387ZM227.053 596.573C227.053 608.653 223.187 619.067 215.453 627.773C207.4 636.813 197.387 641.32 185.413 641.32C173.413 641.32 163.4 636.827 155.373 627.827C147.64 619.16 143.773 608.747 143.773 596.573C143.773 584.52 147.68 574.12 155.507 565.373C163.56 556.293 173.533 551.76 185.413 551.76C197.347 551.76 207.333 556.293 215.4 565.373C223.173 574.08 227.053 584.48 227.053 596.573Z" fill="#8F9295"/>
<path d="M322.907 637.907C322.907 638.92 322.4 639.427 321.387 639.427C320.653 639.427 319.547 639.374 318.053 639.254C316.573 639.12 315.467 639.067 314.733 639.067C314 639.067 312.88 639.12 311.373 639.254C309.867 639.374 308.747 639.427 308.013 639.427C307 639.427 306.493 638.76 306.493 637.413C306.493 632.253 306.653 624.493 306.973 614.16C307.307 603.813 307.467 596.067 307.467 590.893C307.467 590.12 307.307 589.734 306.973 589.734C306.613 589.734 306.32 589.96 306.12 590.4C304.053 594.84 299.147 606.68 291.413 625.934C290.147 629.64 288.333 634.267 285.973 639.8C285.693 640.32 284.227 640.587 281.573 640.587C277.747 640.587 275.64 640.24 275.227 639.547C273.84 636.253 271.867 631.64 269.307 625.693C265.933 617.64 260.733 605.627 253.733 589.667C253.613 589.387 253.347 589.107 252.947 588.813C252.613 589.067 252.453 589.507 252.453 590.16C252.453 595.413 252.547 603.294 252.733 613.787C252.92 624.294 253 632.16 253 637.413C253 638.76 252.493 639.427 251.48 639.427C250.787 639.427 249.733 639.374 248.307 639.254C246.88 639.12 245.827 639.067 245.133 639.067C244.4 639.067 243.307 639.12 241.867 639.254C240.413 639.374 239.333 639.427 238.6 639.427C237.573 639.427 237.067 639.04 237.067 638.267C237.067 633.747 237.28 626.987 237.707 617.974C238.133 608.96 238.347 602.187 238.347 597.667C238.347 592.987 238.133 585.96 237.707 576.574C237.28 567.2 237.067 560.16 237.067 555.48C237.067 554.707 237.533 554.254 238.48 554.134C244.013 553.4 248.187 553.04 250.987 553.04C251.4 553.04 251.973 553.88 252.707 555.547C262.547 577.2 271.013 596.533 278.093 613.547C279.773 617.533 280.76 619.534 281.093 619.534C281.493 619.534 282.373 617.894 283.72 614.64C289.253 601.454 296.92 581.88 306.733 555.907C307.347 554.32 308.013 553.534 308.747 553.534C310.133 553.534 312.213 553.614 315 553.774C317.8 553.934 319.88 554.013 321.267 554.013C322.28 554.013 322.787 554.507 322.787 555.48C322.787 560.16 322.64 567.2 322.333 576.574C322.027 585.96 321.88 592.987 321.88 597.667C321.88 602.147 322.053 608.867 322.4 617.813C322.733 626.773 322.907 633.467 322.907 637.907Z" fill="#8F9295"/>
<path d="M393.68 627.16C393.68 627.813 393.507 628.747 393.187 629.974C392.827 631.52 392.6 632.454 392.52 632.774C392.387 634.24 392.107 636.373 391.667 639.187C391.453 639.92 390.933 640.28 390.067 640.28C389.667 640.28 388.893 640.2 387.747 640.04C382.747 639.307 374.987 638.947 364.493 638.947C361.52 638.947 357.04 639.027 351.053 639.187C345.08 639.347 340.6 639.427 337.627 639.427C336.28 639.427 335.613 638.84 335.613 637.667C335.613 633.107 335.867 626.253 336.373 617.12C336.88 607.973 337.133 601.134 337.133 596.574C337.133 591.934 336.893 583.28 336.4 570.627C336.32 567.36 336.107 562.507 335.733 556.027L335.68 555.174C335.627 554.24 336.16 553.774 337.267 553.774C340.107 553.774 344.387 553.853 350.08 554.013C355.787 554.173 360.053 554.253 362.907 554.253C365.627 554.253 369.707 554.173 375.147 554.013C380.573 553.853 384.653 553.774 387.387 553.774C389.293 553.774 390.333 554.36 390.507 555.547C391.36 560.92 391.787 564.253 391.787 565.56C391.787 566.493 391.333 566.96 390.44 566.96C386.973 566.96 381.733 566.774 374.72 566.374C367.693 565.987 362.413 565.8 358.88 565.8C355.533 565.8 353.427 566.253 352.56 567.147C351.68 568.04 351.24 570.253 351.24 573.8V582.893C351.24 585.373 351.307 586.827 351.427 587.227C351.787 588.493 352.853 589.12 354.6 589.12C355.093 589.12 355.787 589.107 356.68 589.067C357.613 589.067 358.307 589.067 358.747 589.067C366.733 589.067 373.893 588.92 380.24 588.64C382.72 588.547 385.653 588.347 389.04 588.027C389.893 587.947 390.32 588.307 390.32 589.12C390.32 590.427 390.16 592.414 389.853 595.107C389.56 597.787 389.4 599.813 389.4 601.147C389.4 601.88 388.787 602.253 387.573 602.253C387.08 602.253 385.267 602.107 382.133 601.827C379.853 601.573 374.733 601.453 366.747 601.453C360.04 601.453 355.787 601.533 353.987 601.693C352.36 601.827 351.427 602.68 351.187 604.267C351.227 603.973 351.24 605.547 351.24 608.96V618C351.24 622.24 351.893 624.88 353.2 625.933C354.213 626.787 356.76 627.227 360.827 627.227L367.547 627.16C370.387 627.16 378.387 626.667 391.533 625.693L392.453 625.627C393.267 625.547 393.68 626.067 393.68 627.16Z" fill="#8F9295"/>
<path d="M463.333 596.147C463.333 587.347 460.84 580.187 455.827 574.654C450.613 568.907 443.653 566.04 434.947 566.04C427.747 566.04 424.84 566 426.213 565.92C421.453 566.16 419.08 567.04 419.08 568.547C419.08 571.68 419 576.373 418.867 582.613C418.72 588.867 418.653 593.56 418.653 596.693C418.653 599.787 418.72 604.427 418.867 610.613C419 616.8 419.08 621.44 419.08 624.534C419.08 626.08 421.52 626.973 426.4 627.227C425.747 627.187 428.72 627.16 435.32 627.16C440 627.16 443.72 626.667 446.493 625.693C449.907 624.48 452.973 622.214 455.707 618.92C460.8 612.734 463.333 605.147 463.333 596.147ZM478.293 596.147C478.293 607.587 475.04 617.48 468.533 625.813C461.44 634.893 452.373 639.427 441.293 639.427C439.187 639.427 436 639.347 431.747 639.187C427.493 639.027 424.307 638.947 422.187 638.947C420.28 638.947 417.4 639.027 413.547 639.187C409.707 639.347 406.827 639.427 404.907 639.427C403.893 639.427 403.387 638.92 403.387 637.907C403.387 633.467 403.56 626.773 403.907 617.813C404.253 608.867 404.427 602.147 404.427 597.667C404.427 592.947 404.253 585.84 403.933 576.36C403.613 566.88 403.44 559.774 403.44 555.054C403.44 554.2 403.973 553.774 405.027 553.774C406.533 553.774 408.787 553.787 411.773 553.827C414.773 553.88 417.013 553.893 418.52 553.893C419.907 553.893 422.027 553.88 424.88 553.827C427.72 553.787 429.88 553.774 431.347 553.774C445.467 553.774 455.987 556.44 462.907 561.774C467.88 565.6 471.72 570.747 474.453 577.213C477.013 583.24 478.293 589.547 478.293 596.147Z" fill="#8F9295"/>
<path d="M553.333 576.787C553.333 579.107 549.706 585.253 542.466 595.227C537.666 601.453 532.88 607.68 528.12 613.907C526.933 615.454 526.346 617.04 526.346 618.68C526.346 620.867 526.453 624.16 526.68 628.534C526.906 632.907 527.013 636.174 527.013 638.334C527.013 639.067 526.506 639.427 525.493 639.427H510.96C510.146 639.427 509.746 638.84 509.746 637.667C509.746 635.587 509.88 632.427 510.173 628.2C510.453 623.96 510.6 620.787 510.6 618.68C510.6 616.84 510.08 615.214 509.066 613.787C506.133 610 501.76 604.307 495.946 596.693C490.973 589.893 487.4 584.72 485.2 581.187C484.466 579.96 484.093 578.787 484.093 577.64C484.013 572.52 483.973 565.107 483.973 555.413C483.973 554.32 484.466 553.774 485.44 553.774C486.133 553.774 487.16 553.827 488.52 553.96C489.893 554.08 490.92 554.134 491.613 554.134C492.426 554.134 493.64 554.08 495.266 553.96C496.893 553.827 498.133 553.774 499 553.774C499.733 553.774 500.093 554.093 500.093 554.747C500.093 557.027 499.973 560.453 499.733 565.013C499.48 569.56 499.36 572.987 499.36 575.267C499.36 577.707 505.813 586.293 518.72 601.027C521.773 597.573 525.266 593.28 529.213 588.147C534.706 581.067 537.453 576.814 537.453 575.387C537.453 573.187 537.293 569.854 536.973 565.4C536.64 560.947 536.48 557.613 536.48 555.413C536.48 554.32 536.946 553.774 537.88 553.774C538.613 553.774 539.733 553.827 541.24 553.96C542.746 554.08 543.866 554.134 544.6 554.134C545.373 554.134 546.546 554.08 548.106 553.96C549.68 553.827 550.853 553.774 551.626 553.774C552.6 553.774 553.093 554.44 553.093 555.787C553.093 558.107 553.133 561.613 553.213 566.293C553.293 570.973 553.333 574.467 553.333 576.787Z" fill="#8F9295"/>
<path d="M180.173 309.867C183.173 313.707 191.2 322.627 206.747 331.653C225.293 342.413 258.507 355.253 311.373 355.253C364.24 355.253 397.453 342.413 416 331.653C431.547 322.627 439.573 313.707 442.587 309.867C438.08 362.68 415.72 400.347 376.093 421.827C345.373 438.48 315.04 438.96 311.68 438.96H311.373H311.067C307.72 438.96 277.373 438.48 246.653 421.827C207.027 400.347 184.667 362.693 180.173 309.867ZM203.307 280.093L246.12 235.947C247.973 234.027 247.973 231.027 246.12 229.12L203.307 184.96C202.733 184.373 202.867 183.76 203 183.453C203.24 182.893 203.76 182.52 204.32 182.52C204.573 182.52 204.84 182.6 205.093 182.76L280.853 229.493C281.92 230.147 282.547 231.28 282.547 232.533C282.547 233.773 281.92 234.907 280.853 235.56L205.093 282.293C204.293 282.787 203.347 282.413 203 281.6C202.867 281.293 202.733 280.68 203.307 280.093ZM419.44 184.96L376.627 229.12C374.773 231.027 374.773 234.027 376.627 235.947L419.44 280.093C420.013 280.68 419.88 281.293 419.747 281.6C419.4 282.413 418.453 282.787 417.667 282.293L341.893 235.56C340.84 234.907 340.2 233.773 340.2 232.533C340.2 231.28 340.84 230.147 341.893 229.493L417.667 182.76C417.907 182.6 418.173 182.52 418.427 182.52C418.987 182.52 419.507 182.893 419.747 183.453C419.88 183.76 420.013 184.373 419.44 184.96ZM311.373 93.8C193.507 93.8 97.6133 189.693 97.6133 307.56C97.6133 425.427 193.507 521.32 311.373 521.32C429.24 521.32 525.133 425.427 525.133 307.56C525.133 189.693 429.24 93.8 311.373 93.8Z" fill="#8F9295"/>
<rect x="-3411" y="550" width="3978" height="222" fill="white"/>
</g>
</svg>
