<svg width="619" height="619" viewBox="0 0 619 619" fill="none" xmlns="http://www.w3.org/2000/svg">
<mask id="mask0_3_276" style="mask-type:alpha" maskUnits="userSpaceOnUse" x="0" y="0" width="619" height="619">
<circle cx="309.5" cy="309.5" r="309.5" fill="#D9D9D9"/>
</mask>
<g mask="url(#mask0_3_276)">
<path d="M4259.67 2390H-7V-810H4259.67V2390Z" fill="white"/>
<path d="M205.909 653.28C205.909 653.773 205.523 654.467 204.749 655.36C196.812 664.56 186.983 669.16 175.26 669.16C163.049 669.16 153.28 664.693 145.953 655.787C139.116 647.48 135.696 637.107 135.696 624.653C135.696 612.187 139.177 601.773 146.137 593.387C153.545 584.347 163.335 579.84 175.504 579.84C187.837 579.84 197.383 584 204.139 592.347C204.791 593.2 205.116 593.92 205.116 594.48C205.116 595.173 204.037 597.227 201.88 600.627C199.723 604.027 198.42 605.72 197.972 605.72C197.443 605.72 196.201 604.72 194.248 602.733C191.847 600.293 189.588 598.453 187.471 597.24C183.971 595.24 180.104 594.24 175.871 594.24C167.812 594.24 161.543 597.32 157.065 603.467C153.077 608.96 151.083 615.88 151.083 624.227C151.083 632.56 153.056 639.547 157.005 645.16C161.483 651.467 167.729 654.627 175.748 654.627C179.737 654.627 183.584 653.627 187.288 651.64C189.729 650.333 192.213 648.48 194.736 646.08C196.853 644.08 198.013 643.08 198.216 643.08C198.461 643.08 199.804 644.707 202.247 647.933C204.688 651.173 205.909 652.96 205.909 653.28Z" fill="#8F9295"/>
<path d="M261.957 611.52C261.957 604.16 259.841 599.227 255.608 596.747C252.473 594.92 246.836 594 238.696 594C232.101 594 228.744 594.533 228.621 595.587C228.337 597.787 228.195 603.667 228.195 613.227V624.893C228.316 624.973 228.581 625.053 228.988 625.133C229.721 625.213 230.921 625.32 232.591 625.44C236.457 625.64 240.629 625.747 245.107 625.747C256.34 625.747 261.957 621 261.957 611.52ZM278.687 666.893C278.687 667.227 278.361 667.387 277.709 667.387C276.936 667.387 275.756 667.32 274.168 667.2C272.581 667.08 271.401 667.013 270.628 667.013C269.772 667.013 268.5 667.08 266.812 667.2C265.123 667.32 263.851 667.387 262.996 667.387C262.06 667.387 261.347 666.88 260.859 665.853C259.556 663.093 255.852 654.52 249.747 640.16C249.136 638.693 247.651 637.8 245.289 637.467C244.76 637.427 242.908 637.413 239.733 637.413C234.117 637.413 230.779 637.493 229.721 637.653C228.867 637.773 228.439 638.813 228.439 640.76C228.439 643.613 228.571 647.88 228.836 653.56C229.1 659.24 229.232 663.48 229.232 666.293C229.232 667.147 228.825 667.573 228.011 667.573C227.197 667.573 225.965 667.48 224.317 667.293C222.669 667.107 221.417 667.013 220.563 667.013C219.871 667.013 218.812 667.08 217.388 667.2C215.963 667.32 214.905 667.387 214.213 667.387C213.195 667.387 212.687 666.92 212.687 665.987C212.687 661.467 212.9 654.68 213.328 645.613C213.755 636.56 213.969 629.773 213.969 625.253C213.969 612.4 213.5 598.68 212.564 584.107L212.504 583.133C212.463 582.32 213.317 581.907 215.068 581.907C218.568 581.907 223.808 581.813 230.789 581.64C237.769 581.453 242.989 581.36 246.449 581.36C255.485 581.36 262.731 583.52 268.185 587.827C274.209 592.6 277.221 599.347 277.221 608.107C277.221 614.12 276.407 618.867 274.779 622.333C273.069 625.987 269.895 629.467 265.255 632.773C264.481 633.293 264.095 633.8 264.095 634.293C264.095 634.867 266.527 640.28 271.391 650.533C276.255 660.787 278.687 666.253 278.687 666.893Z" fill="#8F9295"/>
<path d="M303.78 666.107C303.78 666.96 303.189 667.387 302.009 667.387C301.277 667.387 300.157 667.32 298.652 667.2C297.145 667.08 296.027 667.013 295.293 667.013C294.52 667.013 293.38 667.08 291.875 667.2C290.368 667.32 289.249 667.387 288.516 667.387C287.499 667.387 286.991 666.92 286.991 665.987C286.991 661.347 287.204 654.347 287.631 645.013C288.059 635.667 288.272 628.653 288.272 623.973C288.272 619.453 288.059 612.667 287.631 603.613C287.204 594.56 286.991 587.773 286.991 583.253C286.991 582.24 287.459 581.72 288.395 581.72C289.168 581.72 290.348 581.787 291.936 581.907C293.523 582.027 294.724 582.093 295.537 582.093C296.271 582.093 297.369 582.027 298.835 581.907C300.3 581.787 301.399 581.72 302.132 581.72C303.189 581.72 303.719 582.133 303.719 582.947C303.719 587.507 303.556 594.347 303.231 603.467C302.905 612.573 302.743 619.413 302.743 623.973C302.743 628.653 302.915 635.68 303.261 645.04C303.607 654.4 303.78 661.427 303.78 666.107Z" fill="#8F9295"/>
<path d="M402.444 665.853C402.444 666.88 401.936 667.387 400.919 667.387C400.185 667.387 399.076 667.32 397.591 667.2C396.105 667.08 394.996 667.013 394.263 667.013C393.531 667.013 392.411 667.08 390.905 667.2C389.399 667.32 388.28 667.387 387.547 667.387C386.529 667.387 386.021 666.72 386.021 665.373C386.021 660.2 386.184 652.453 386.509 642.107C386.835 631.773 386.997 624.013 386.997 618.853C386.997 618.08 386.835 617.693 386.509 617.693C386.143 617.693 385.857 617.907 385.655 618.36C383.579 622.8 378.673 634.64 370.94 653.893C369.679 657.6 367.867 662.213 365.507 667.747C365.221 668.28 363.756 668.547 361.111 668.547C357.284 668.547 355.168 668.2 354.761 667.507C353.377 664.213 351.403 659.587 348.839 653.653C345.46 645.587 340.271 633.587 333.269 617.627C333.148 617.347 332.883 617.053 332.476 616.773C332.151 617.013 331.987 617.467 331.987 618.12C331.987 623.36 332.079 631.24 332.263 641.747C332.445 652.24 332.537 660.12 332.537 665.373C332.537 666.72 332.028 667.387 331.011 667.387C330.319 667.387 329.26 667.32 327.836 667.2C326.411 667.08 325.353 667.013 324.661 667.013C323.928 667.013 322.839 667.08 321.395 667.2C319.949 667.32 318.86 667.387 318.128 667.387C317.111 667.387 316.601 667 316.601 666.227C316.601 661.707 316.815 654.947 317.243 645.92C317.671 636.907 317.884 630.147 317.884 625.627C317.884 620.947 317.671 613.907 317.243 604.533C316.815 595.147 316.601 588.12 316.601 583.44C316.601 582.667 317.069 582.213 318.005 582.093C323.541 581.36 327.713 581 330.523 581C330.929 581 331.499 581.827 332.232 583.493C342.081 605.147 350.548 624.48 357.631 641.493C359.299 645.493 360.296 647.48 360.621 647.48C361.029 647.48 361.904 645.853 363.247 642.6C368.783 629.413 376.456 609.827 386.265 583.867C386.876 582.28 387.547 581.48 388.28 581.48C389.664 581.48 391.749 581.56 394.537 581.72C397.325 581.893 399.412 581.973 400.796 581.973C401.813 581.973 402.323 582.453 402.323 583.44C402.323 588.12 402.169 595.147 401.864 604.533C401.559 613.907 401.407 620.947 401.407 625.627C401.407 630.107 401.58 636.813 401.925 645.773C402.272 654.733 402.444 661.427 402.444 665.853Z" fill="#8F9295"/>
<path d="M473.207 655.12C473.207 655.76 473.044 656.707 472.719 657.92C472.352 659.467 472.128 660.4 472.047 660.733C471.924 662.2 471.64 664.333 471.192 667.147C470.988 667.88 470.459 668.24 469.604 668.24C469.197 668.24 468.424 668.16 467.284 668C462.277 667.267 454.524 666.893 444.023 666.893C441.051 666.893 436.573 666.973 430.591 667.147C424.607 667.307 420.129 667.387 417.159 667.387C415.816 667.387 415.144 666.8 415.144 665.613C415.144 661.053 415.399 654.213 415.907 645.067C416.416 635.933 416.671 629.08 416.671 624.52C416.671 619.88 416.425 611.24 415.937 598.573C415.856 595.32 415.632 590.453 415.265 583.987L415.205 583.133C415.164 582.2 415.693 581.72 416.792 581.72C419.641 581.72 423.915 581.813 429.613 581.973C435.312 582.133 439.585 582.213 442.435 582.213C445.163 582.213 449.243 582.133 454.676 581.973C460.111 581.813 464.191 581.72 466.919 581.72C468.831 581.72 469.869 582.32 470.032 583.493C470.887 588.867 471.315 592.213 471.315 593.507C471.315 594.44 470.867 594.92 469.971 594.92C466.511 594.92 461.271 594.72 454.249 594.333C447.228 593.947 441.947 593.76 438.405 593.76C435.068 593.76 432.961 594.2 432.087 595.093C431.211 595.987 430.773 598.213 430.773 601.747V610.853C430.773 613.333 430.835 614.773 430.957 615.187C431.323 616.44 432.381 617.08 434.132 617.08C434.62 617.08 435.312 617.053 436.208 617.013C437.144 617.013 437.836 617.013 438.284 617.013C446.261 617.013 453.425 616.867 459.775 616.587C462.257 616.507 465.188 616.307 468.567 615.973C469.421 615.893 469.849 616.267 469.849 617.08C469.849 618.387 469.696 620.373 469.391 623.067C469.085 625.747 468.933 627.76 468.933 629.107C468.933 629.84 468.323 630.2 467.101 630.2C466.613 630.2 464.801 630.067 461.668 629.773C459.388 629.533 454.26 629.413 446.281 629.413C439.565 629.413 435.312 629.493 433.521 629.653C431.893 629.773 430.957 630.627 430.713 632.213C430.753 631.933 430.773 633.507 430.773 636.92V645.96C430.773 650.187 431.425 652.84 432.728 653.893C433.745 654.747 436.289 655.173 440.36 655.173L447.076 655.12C449.924 655.12 457.923 654.627 471.069 653.653L471.985 653.587C472.8 653.507 473.207 654.013 473.207 655.12Z" fill="#8F9295"/>
<path d="M283.969 522.493C292.953 526.96 316.376 537.227 329.599 537.227C332.477 537.227 334.027 536.747 334.82 536.333C336.557 535.44 336.66 534.707 336.709 534.36C337.228 530.707 331.536 523.013 327.371 519.053C324.475 516.44 310.704 503.693 307.433 494.48C306.651 492.267 305.023 487.68 312.124 445.587C315.292 426.8 319.517 405.013 320.359 402.467C322.091 397.08 333.252 349.813 332.835 343.027L332.241 340.693L333.723 338.48C333.847 338.293 346.281 319.773 359.324 301.32C386.94 262.227 390.199 261.48 393.075 260.813C398.047 259.653 411.812 257.28 422.629 257.28C428.411 257.28 432.727 257.933 435.827 259.293C438.797 260.6 440.972 263.267 442.291 267.2C446.356 279.347 442.137 306.04 439.171 311.32C435.316 318.187 430.099 337.093 433.448 340.28C440.324 346.787 444.299 357.507 445.841 362.387C449.193 364.24 453.863 366.24 456.663 366.24H456.664C457.219 366.24 457.435 366.147 457.437 366.147C460.671 364.053 462.768 357.387 462.979 348.36C463.048 345.4 462.624 339.133 462.176 332.48C460.648 309.88 460.493 301.667 462.585 297.587C464.665 293.547 470.989 268.333 470.745 262.493C467.408 257.44 445.816 235.8 441.703 232.987C440.969 232.627 439.031 231.76 436.987 230.853C410.415 219.04 407.465 216.533 407.248 211.693C407.103 208.453 408.716 205.16 417.189 198.813C420.759 196.147 425.573 192.987 428.832 191.52C429.701 190.213 431.329 185.96 430.637 180.227C430.009 175.013 427.248 167.48 417.705 160.947C416.088 160.28 409.543 157.773 402.152 157.773C393.923 157.773 387.757 160.72 383.317 166.787C377.847 177.64 371.705 190.827 371.173 193.507L370.573 197.4L366.76 198.333C366.111 198.493 350.692 202.387 336.023 202.387C323.071 202.387 314.215 199.253 309.699 193.093L309.403 192.693C300.424 180.547 296.633 170.92 297.812 163.267L298.323 159.96L301.415 158.667C312.437 154.067 324.711 146.507 327.929 141.413C326.747 139.44 325.508 137.613 324.713 136.68L318.479 135.707L321.48 128.653C323.548 123.747 324.717 117.493 323.937 115.68C323.617 115.56 322.964 115.413 321.859 115.413C315.192 115.413 302.535 121.093 295.264 133.733C293.241 137.24 290.399 141.92 287.105 147.347C275.828 165.933 257.491 196.133 253.692 210.733C257.959 213.52 270.304 219.867 302.315 227.667L312.752 230.213L305.073 237.72C289.025 253.427 271.311 271.24 269.319 274C267.783 276.467 266.24 278.36 213.872 294.827C193.189 301.333 172.487 307.573 165.697 309.613C163.819 314.387 158.615 334.413 163.928 402.8L164.031 404.12L163.559 405.373C162.779 407.427 155.712 425.72 147.865 433.213C143.239 437.627 139.643 443.24 138.575 446.187C138.768 446.187 138.969 446.187 139.181 446.187C150.673 446.187 180.365 438.827 192.46 427.28L194.001 425.8L196.127 425.64C204.171 425.013 217.843 422.267 224.707 417.333C222.351 411.693 217.785 400.573 213.393 388.973C200.193 354.08 201.344 348.707 201.899 346.133L201.948 345.893C203.912 336.747 207.564 319.733 231.601 319.733C232.699 319.733 233.844 319.76 235.008 319.84C236.672 319.933 238.357 319.987 240.017 319.987C245.711 319.987 250.58 319.4 254.876 318.88C258.537 318.427 261.996 318.013 265.413 318.013C272.057 318.013 277.461 319.627 282.939 323.227L285.873 325.16L285.604 328.667C285.388 331.467 280.111 397.64 259.679 449.653C259.088 456.027 255.939 485.333 246.893 499.453C247.039 500.28 247.387 501.36 248.211 502.28C250.008 504.28 253.447 504.827 256.015 504.933L257.141 504.973L258.173 505.427C258.803 505.707 273.389 512.213 283.969 522.493ZM329.599 549.16C310.297 549.16 279.067 533.387 277.747 532.707L276.896 532.28L276.223 531.6C268.532 523.88 257.519 518.307 254.283 516.773C247.661 516.267 242.56 513.987 239.108 509.987C234.304 504.413 234.845 497.813 234.923 497.08L235.097 495.427L236.104 494.093C243.341 484.56 247.053 457.413 247.873 447.76L247.948 446.88L248.273 446.067C265.568 402.507 271.928 346.413 273.372 331.507C270.935 330.413 268.453 329.947 265.413 329.947C262.716 329.947 259.747 330.293 256.309 330.72C251.679 331.28 246.431 331.907 240.017 331.907C238.12 331.907 236.195 331.853 234.295 331.747C233.368 331.68 232.461 331.653 231.601 331.653C217.204 331.653 215.617 339.04 213.609 348.4L213.573 348.573C212.923 354.64 225.368 388.533 237.301 416.52L238.729 419.88L236.403 422.68C227.429 433.48 206.185 436.587 199.101 437.347C183.395 450.8 151.723 458.12 139.181 458.12C138.172 458.12 137.233 458.08 136.393 457.987C129.707 457.333 127.525 453.027 126.899 451.213C123.187 440.453 138.956 425.227 139.629 424.587C143.816 420.587 149.169 409.347 151.932 402.36C145.525 318.493 154.651 302.987 157.615 300.227L158.635 299.28L159.969 298.88C203.815 285.787 252.995 270.213 260.096 266.48C264.093 261.56 278.5 247.147 289.177 236.627C252.223 226.693 244.036 218.907 242.356 216.613L240.963 214.707L241.244 212.373C242.965 198.027 259.097 170.507 276.911 141.16C280.164 135.8 282.975 131.173 284.927 127.773C294.105 111.827 310.453 103.48 321.859 103.48C324.672 103.48 327.165 103.987 329.268 104.987C338.763 109.507 336.26 122.173 333.996 129.173C335.584 131.067 337.483 133.867 339.757 138.067L340.797 139.987L340.355 142.12C337.936 153.813 318.748 163.893 309.736 168.04C310.333 171.24 312.472 176.787 318.995 185.613L319.317 186.053C321.371 188.853 327.46 190.453 336.021 190.453C345.463 190.453 355.608 188.573 360.628 187.493C363.376 180.067 369.807 167.08 372.88 161L373.08 160.6L373.337 160.24C380.004 150.827 389.968 145.853 402.152 145.853C413.341 145.853 422.677 150.093 423.071 150.267L423.496 150.467L423.887 150.72C442.909 163.413 443.255 180.12 442.521 186.707C441.861 192.64 439.217 200.28 433.939 202.307C431.515 203.24 425.443 207.32 421.673 210.44C427.451 213.56 437.796 218.16 441.831 219.96C444.843 221.293 446.455 222.013 447.3 222.453C451.675 224.693 479.637 252.173 482.009 258.36C484.936 265.987 475.559 297.92 473.315 302.787C472.359 306.28 473.473 322.787 474.075 331.68C474.563 338.907 474.984 345.133 474.901 348.64C474.585 362.2 470.761 371.733 463.843 376.213C461.832 377.507 459.417 378.16 456.664 378.16C456.663 378.16 456.661 378.16 456.661 378.16C448.495 378.16 438.672 372.053 437.579 371.36L435.611 370.107L435.016 367.853C434.064 364.267 430.448 353.867 425.243 348.933C412.857 337.187 428.6 305.787 428.771 305.493C428.751 305.52 428.729 305.56 428.708 305.613C429.411 304.067 431.084 296.467 431.773 287.4C432.623 276.253 431.333 271.347 430.607 270.053C429.591 269.72 427.291 269.2 422.629 269.2C413.497 269.2 401.593 271.173 396.604 272.24C390.841 277.08 366.189 311.573 344.66 343.587C344.185 358.347 331.839 405.733 331.687 406.187C329.969 412.227 317.044 481.947 318.721 490.613C320.527 495.413 329.529 504.947 335.409 510.24L335.52 510.347C337.971 512.667 350.113 524.813 348.517 536.04C348.052 539.32 346.247 543.867 340.285 546.933C337.385 548.427 333.889 549.16 329.599 549.16Z" fill="#8F9295"/>
<path d="M316.768 296.533C318.853 298.173 318.952 301.213 319.631 303.773C320.311 306.333 322.881 309.053 325.215 307.8C325.485 305.827 327.864 305.027 329.821 304.653C333.581 303.933 337.341 303.2 341.103 302.48C343.409 302.027 345.767 301.56 347.791 300.373C349.813 299.173 351.471 297.093 351.495 294.747C351.503 293.867 351.288 292.973 351.461 292.12C351.913 289.88 354.541 289 356.568 287.947C362.321 284.933 364.941 276.84 361.553 271.307C359.647 268.2 356.36 266.24 353.201 264.4C351.1 263.173 348.691 261.92 346.355 262.587C344.948 262.987 343.652 264.08 342.209 263.84C340.925 263.613 340.081 262.427 339.048 261.627C335.276 258.747 329.383 261.973 327.829 266.453C327.26 268.107 326.928 270.08 325.427 270.96C324.389 271.56 323.1 271.44 321.9 271.36C317.753 271.093 312.913 271.933 310.855 275.533C310.461 276.227 310.185 277 309.649 277.587C309.109 278.187 308.36 278.52 307.683 278.96C304.815 280.773 303.189 284.36 303.721 287.72C304.255 291.067 306.915 293.987 310.203 294.813C312.42 295.387 314.967 295.12 316.768 296.533Z" fill="#8F9295"/>
<path d="M348.225 248.187C348.035 249.12 348.183 250.133 348.635 250.973C350.111 251.613 351.755 251.867 353.356 251.707C353.34 251.12 353.567 250.533 353.971 250.107C354.513 249.533 355.313 249.293 355.928 248.813C356.543 248.32 356.924 247.32 356.356 246.773C357.075 246.947 357.781 246.2 357.753 245.467C357.725 244.733 357.145 244.107 356.471 243.8C355.939 243.56 355.304 243.493 354.78 243.747C354.257 244 353.904 244.64 354.083 245.187C352.76 245.227 351.305 245.307 350.355 246.227C350.152 246.427 349.981 246.653 349.804 246.88C349.372 247.413 348.873 247.947 348.225 248.187Z" fill="#8F9295"/>
<rect x="162" y="-218" width="3978" height="222" fill="white"/>
<rect x="114" y="568" width="4012" height="222" fill="white"/>
</g>
</svg>
