<svg width="619" height="619" viewBox="0 0 619 619" fill="none" xmlns="http://www.w3.org/2000/svg">
<mask id="mask0_3_276" style="mask-type:alpha" maskUnits="userSpaceOnUse" x="0" y="0" width="619" height="619">
<circle cx="309.5" cy="309.5" r="309.5" fill="#D9D9D9"/>
</mask>
<g mask="url(#mask0_3_276)">
<path d="M3375.67 2341H-891V-859H3375.67V2341Z" fill="white"/>
<path d="M499.52 322.48H458.28V405.373H499.52L554.16 440.013V287.84L499.52 322.48Z" fill="#8F9295"/>
<path d="M120.52 345.573C120.52 345.573 106.292 337.32 84.228 337.32L107.529 384.133C107.529 384.133 117.633 384.347 120.52 374.44H133.099V345.573H120.52Z" fill="#8F9295"/>
<path d="M424.873 415.373C424.873 417.6 423.073 419.4 420.853 419.4H337.341C335.12 419.4 333.32 417.6 333.32 415.373V409.813C333.32 407.587 335.12 405.787 337.341 405.787H420.853C423.073 405.787 424.873 407.587 424.873 409.813V415.373ZM424.873 439.08C424.873 441.307 423.073 443.107 420.853 443.107H313.835C311.613 443.107 309.813 441.307 309.813 439.08V433.52C309.813 431.293 311.613 429.493 313.835 429.493H420.853C423.073 429.493 424.873 431.293 424.873 433.52V439.08ZM424.873 464.04C424.873 466.253 423.073 468.053 420.853 468.053H284.76C282.539 468.053 280.739 466.253 280.739 464.04V458.467C280.739 456.253 282.539 454.453 284.76 454.453H420.853C423.073 454.453 424.873 456.253 424.873 458.467V464.04ZM359.508 159.373C391.509 159.373 417.451 185.32 417.451 217.32C417.451 249.32 391.509 275.253 359.508 275.253C327.507 275.253 301.565 249.32 301.565 217.32C301.565 185.32 327.507 159.373 359.508 159.373ZM161.141 296.493C134.721 296.493 113.303 275.08 113.303 248.653C113.303 222.24 134.721 200.827 161.141 200.827C187.563 200.827 208.98 222.24 208.98 248.653C208.98 275.08 187.563 296.493 161.141 296.493ZM434.772 300.627H428.321C452.28 280.8 467.56 250.84 467.56 217.32C467.56 157.64 419.183 109.267 359.508 109.267C299.833 109.267 251.459 157.64 251.459 217.32C251.459 250.84 266.729 280.8 290.695 300.627H235.497C245.804 285.907 251.871 268 251.871 248.653C251.871 198.547 211.249 157.933 161.141 157.933C111.033 157.933 70.4133 198.547 70.4133 248.653C70.4133 291.16 99.636 326.813 139.079 336.68V470.733C139.079 479.627 146.279 486.827 155.161 486.827H434.772C443.653 486.827 450.853 479.627 450.853 470.733V316.707C450.853 307.827 443.653 300.627 434.772 300.627Z" fill="#8F9295"/>
<path d="M366.075 214.547C366.075 217.974 363.292 220.76 359.86 220.76C356.428 220.76 353.647 217.974 353.647 214.547C353.647 211.107 356.428 208.32 359.86 208.32C363.292 208.32 366.075 211.107 366.075 214.547Z" fill="#8F9295"/>
<path d="M369.091 244.707C369.091 249.813 364.959 253.947 359.86 253.947C354.763 253.947 350.629 249.813 350.629 244.707C350.629 239.613 354.763 235.48 359.86 235.48C364.959 235.48 369.091 239.613 369.091 244.707Z" fill="#8F9295"/>
<path d="M369.091 184.373C369.091 189.467 364.959 193.6 359.86 193.6C354.763 193.6 350.629 189.467 350.629 184.373C350.629 179.28 354.763 175.147 359.86 175.147C364.959 175.147 369.091 179.28 369.091 184.373Z" fill="#8F9295"/>
<path d="M390.603 221.627C395.017 224.173 396.531 229.827 393.981 234.24C391.432 238.653 385.787 240.173 381.372 237.613C376.957 235.067 375.444 229.427 377.993 225.013C380.543 220.6 386.188 219.08 390.603 221.627Z" fill="#8F9295"/>
<path d="M338.348 191.467C342.764 194.013 344.276 199.653 341.727 204.067C339.179 208.48 333.532 210 329.117 207.453C324.703 204.907 323.189 199.253 325.739 194.84C328.288 190.427 333.933 188.907 338.348 191.467Z" fill="#8F9295"/>
<path d="M381.372 191.467C385.787 188.907 391.432 190.427 393.981 194.84C396.531 199.253 395.017 204.907 390.603 207.453C386.188 210 380.543 208.48 377.993 204.067C375.444 199.653 376.957 194.013 381.372 191.467Z" fill="#8F9295"/>
<path d="M329.117 221.627C333.532 219.08 339.179 220.6 341.727 225.013C344.276 229.427 342.764 235.067 338.348 237.613C333.933 240.173 328.288 238.653 325.739 234.24C323.189 229.827 324.703 224.173 329.117 221.627Z" fill="#8F9295"/>
<path d="M165.705 247.827C165.705 250.587 163.471 252.827 160.715 252.827C157.957 252.827 155.724 250.587 155.724 247.827C155.724 245.08 157.957 242.84 160.715 242.84C163.471 242.84 165.705 245.08 165.705 247.827Z" fill="#8F9295"/>
<path d="M168.128 272.067C168.128 276.16 164.808 279.48 160.715 279.48C156.62 279.48 153.3 276.16 153.3 272.067C153.3 267.973 156.62 264.653 160.715 264.653C164.808 264.653 168.128 267.973 168.128 272.067Z" fill="#8F9295"/>
<path d="M168.128 223.6C168.128 227.693 164.808 231.013 160.715 231.013C156.62 231.013 153.3 227.693 153.3 223.6C153.3 219.507 156.62 216.187 160.715 216.187C164.808 216.187 168.128 219.507 168.128 223.6Z" fill="#8F9295"/>
<path d="M185.405 253.52C188.951 255.573 190.165 260.107 188.119 263.653C186.071 267.2 181.537 268.413 177.991 266.36C174.445 264.32 173.231 259.787 175.277 256.24C177.325 252.693 181.859 251.48 185.405 253.52Z" fill="#8F9295"/>
<path d="M143.437 229.293C146.983 231.347 148.197 235.88 146.151 239.427C144.104 242.973 139.569 244.187 136.023 242.133C132.477 240.093 131.263 235.56 133.309 232.013C135.357 228.467 139.891 227.253 143.437 229.293Z" fill="#8F9295"/>
<path d="M177.991 229.293C181.537 227.253 186.071 228.467 188.119 232.013C190.165 235.56 188.951 240.093 185.405 242.133C181.859 244.187 177.325 242.973 175.277 239.427C173.231 235.88 174.445 231.347 177.991 229.293Z" fill="#8F9295"/>
<path d="M136.023 253.52C139.569 251.48 144.104 252.693 146.151 256.24C148.197 259.787 146.983 264.32 143.437 266.36C139.891 268.413 135.357 267.2 133.309 263.653C131.263 260.107 132.477 255.573 136.023 253.52Z" fill="#8F9295"/>
<path d="M26.0333 575.227C26.0333 567.24 23.5492 560.307 18.5839 554.4C13.3746 548.133 6.84127 545 -1.01472 545C-8.78806 545 -15.2601 548.173 -20.4294 554.52C-25.3148 560.467 -27.7561 567.427 -27.7561 575.4C-27.7561 583.347 -25.3148 590.28 -20.4294 596.227C-15.2601 602.573 -8.78806 605.747 -1.01472 605.747C6.88261 605.747 13.4346 602.573 18.6452 596.227C23.5706 590.28 26.0333 583.28 26.0333 575.227ZM40.7466 575.4C40.7466 587.493 36.8799 597.893 29.1466 606.6C21.0879 615.64 11.0746 620.16 -0.892067 620.16C-12.9001 620.16 -22.9121 615.653 -30.9307 606.667C-38.6654 598 -42.5321 587.573 -42.5321 575.4C-42.5321 563.36 -38.6241 552.96 -30.8094 544.2C-22.7494 535.133 -12.7774 530.587 -0.892067 530.587C11.0333 530.587 21.0266 535.133 29.0853 544.2C36.8599 552.92 40.7466 563.32 40.7466 575.4Z" fill="#8F9295"/>
<path d="M118.103 604.16C118.103 604.653 117.716 605.347 116.943 606.24C109.007 615.44 99.1759 620.04 87.4533 620.04C75.2426 620.04 65.4746 615.573 58.1479 606.667C51.3092 598.36 47.8906 587.987 47.8906 575.52C47.8906 563.067 51.3706 552.653 58.3306 544.267C65.7386 535.227 75.528 530.707 87.6986 530.707C100.031 530.707 109.576 534.88 116.333 543.227C116.984 544.08 117.309 544.8 117.309 545.36C117.309 546.053 116.231 548.107 114.073 551.507C111.916 554.893 110.613 556.6 110.167 556.6C109.637 556.6 108.396 555.6 106.441 553.613C104.04 551.16 101.781 549.333 99.6653 548.107C96.164 546.12 92.2973 545.12 88.0639 545.12C80.0053 545.12 73.7373 548.187 69.26 554.333C65.2706 559.84 63.2759 566.76 63.2759 575.093C63.2759 583.44 65.2506 590.427 69.1986 596.04C73.676 602.347 79.9239 605.507 87.9426 605.507C91.9306 605.507 95.7772 604.507 99.4812 602.507C101.924 601.213 104.407 599.36 106.931 596.96C109.047 594.96 110.207 593.96 110.411 593.96C110.655 593.96 111.997 595.587 114.44 598.813C116.883 602.053 118.103 603.84 118.103 604.16Z" fill="#8F9295"/>
<path d="M194.849 533.947C194.849 538.667 194.656 545.747 194.269 555.16C193.883 564.587 193.689 571.654 193.689 576.387C193.689 577.934 193.709 580.24 193.751 583.307C193.791 586.387 193.811 588.667 193.811 590.173C193.811 598.68 193.017 604.587 191.429 607.88C188.988 612.933 184.245 616.347 177.204 618.147C172.889 619.24 166.804 619.787 158.949 619.787C144.703 619.787 135.361 617.427 130.925 612.707C127.505 609.04 125.796 601.72 125.796 590.733C125.796 589.387 125.816 587.12 125.857 583.92C125.897 580.72 125.919 578.214 125.919 576.387C125.919 571.574 125.715 562.72 125.308 549.827C125.308 546.48 125.124 541.493 124.759 534.867C124.717 534.373 124.697 534.053 124.697 533.88C124.697 533.027 125.227 532.6 126.284 532.6C127.953 532.6 130.212 532.627 133.061 532.667C136.359 532.707 138.597 532.72 139.777 532.72C140.713 532.72 141.181 533.094 141.181 533.827C141.181 540.014 141.049 549.307 140.785 561.733C140.52 574.147 140.388 583.44 140.388 589.627C140.388 596.627 141.955 601.374 145.089 603.854C147.776 606.054 152.721 607.147 159.925 607.147C166.479 607.147 171.14 606.253 173.907 604.467C177.408 602.227 179.157 598.04 179.157 591.894C179.157 585.454 179.056 575.8 178.853 562.92C178.649 550.04 178.548 540.373 178.548 533.947C178.548 533.293 179.137 532.894 180.317 532.72C181.173 532.6 182.393 532.6 183.981 532.72C185.853 532.894 186.749 532.973 186.668 532.973C187.4 532.973 188.509 532.907 189.995 532.787C191.481 532.667 192.591 532.6 193.323 532.6C194.34 532.6 194.849 533.053 194.849 533.947Z" fill="#8F9295"/>
<path d="M293.269 616.733C293.269 617.76 292.76 618.267 291.743 618.267C291.011 618.267 289.901 618.2 288.415 618.08C286.929 617.96 285.82 617.893 285.088 617.893C284.355 617.893 283.236 617.96 281.729 618.08C280.224 618.2 279.104 618.267 278.372 618.267C277.355 618.267 276.845 617.587 276.845 616.253C276.845 611.08 277.008 603.32 277.333 592.987C277.66 582.653 277.823 574.893 277.823 569.72C277.823 568.947 277.66 568.56 277.333 568.56C276.968 568.56 276.683 568.787 276.479 569.24C274.403 573.68 269.499 585.52 261.765 604.773C260.503 608.48 258.692 613.093 256.331 618.627C256.047 619.16 254.581 619.427 251.935 619.427C248.109 619.427 245.992 619.08 245.585 618.387C244.201 615.093 242.228 610.467 239.663 604.52C236.285 596.467 231.095 584.453 224.095 568.507C223.972 568.213 223.708 567.933 223.3 567.653C222.975 567.893 222.812 568.347 222.812 568.987C222.812 574.24 222.904 582.12 223.087 592.627C223.269 603.12 223.361 611 223.361 616.253C223.361 617.587 222.853 618.267 221.835 618.267C221.143 618.267 220.085 618.2 218.66 618.08C217.236 617.96 216.177 617.893 215.485 617.893C214.753 617.893 213.664 617.96 212.219 618.08C210.775 618.2 209.685 618.267 208.952 618.267C207.935 618.267 207.427 617.88 207.427 617.107C207.427 612.587 207.64 605.813 208.067 596.8C208.495 587.787 208.708 581.027 208.708 576.507C208.708 571.827 208.495 564.787 208.067 555.413C207.64 546.027 207.427 539 207.427 534.32C207.427 533.547 207.895 533.093 208.831 532.973C214.367 532.24 218.539 531.867 221.347 531.867C221.753 531.867 222.324 532.707 223.056 534.373C232.907 556.027 241.372 575.36 248.455 592.373C250.124 596.36 251.121 598.36 251.447 598.36C251.853 598.36 252.729 596.733 254.072 593.48C259.608 580.293 267.28 560.707 277.089 534.747C277.7 533.16 278.372 532.36 279.104 532.36C280.488 532.36 282.575 532.44 285.363 532.6C288.151 532.773 290.237 532.853 291.62 532.853C292.639 532.853 293.147 533.333 293.147 534.32C293.147 539 292.995 546.027 292.689 555.413C292.384 564.787 292.231 571.827 292.231 576.507C292.231 580.973 292.404 587.693 292.751 596.653C293.096 605.6 293.269 612.307 293.269 616.733Z" fill="#8F9295"/>
<path d="M364.032 605.987C364.032 606.64 363.868 607.573 363.543 608.8C363.177 610.347 362.953 611.28 362.872 611.613C362.749 613.08 362.464 615.213 362.016 618.013C361.813 618.747 361.284 619.12 360.429 619.12C360.023 619.12 359.249 619.04 358.109 618.88C353.103 618.147 345.349 617.773 334.847 617.773C331.876 617.773 327.399 617.853 321.415 618.013C315.432 618.187 310.955 618.267 307.983 618.267C306.64 618.267 305.968 617.68 305.968 616.493C305.968 611.933 306.223 605.08 306.732 595.947C307.24 586.813 307.495 579.96 307.495 575.4C307.495 570.76 307.251 562.12 306.763 549.453C306.681 546.2 306.457 541.333 306.091 534.867L306.029 534.013C305.989 533.067 306.517 532.6 307.617 532.6C310.467 532.6 314.74 532.68 320.439 532.853C326.137 533.013 330.411 533.093 333.26 533.093C335.987 533.093 340.068 533.013 345.501 532.853C350.935 532.68 355.016 532.6 357.743 532.6C359.656 532.6 360.693 533.2 360.856 534.373C361.712 539.747 362.139 543.08 362.139 544.387C362.139 545.32 361.691 545.787 360.796 545.787C357.336 545.787 352.095 545.6 345.073 545.213C338.052 544.827 332.772 544.627 329.231 544.627C325.892 544.627 323.787 545.08 322.911 545.973C322.036 546.867 321.599 549.093 321.599 552.627V561.733C321.599 564.213 321.66 565.653 321.781 566.067C322.148 567.32 323.207 567.96 324.956 567.96C325.445 567.96 326.137 567.933 327.032 567.893C327.968 567.893 328.66 567.893 329.108 567.893C337.087 567.893 344.249 567.747 350.6 567.467C353.083 567.387 356.013 567.187 359.391 566.853C360.247 566.773 360.673 567.147 360.673 567.96C360.673 569.253 360.521 571.253 360.216 573.933C359.911 576.627 359.757 578.64 359.757 579.987C359.757 580.72 359.147 581.08 357.925 581.08C357.437 581.08 355.627 580.933 352.492 580.653C350.213 580.413 345.084 580.293 337.107 580.293C330.391 580.293 326.137 580.373 324.345 580.533C322.717 580.653 321.781 581.507 321.537 583.093C321.579 582.813 321.599 584.373 321.599 587.8V596.84C321.599 601.067 322.249 603.707 323.552 604.773C324.569 605.627 327.113 606.053 331.184 606.053L337.9 605.987C340.749 605.987 348.748 605.507 361.895 604.52L362.811 604.467C363.624 604.387 364.032 604.893 364.032 605.987Z" fill="#8F9295"/>
<path d="M450.307 533.947C450.307 538.627 450.133 545.693 449.813 555.133C449.493 564.573 449.32 571.653 449.32 576.387C449.32 580.813 449.36 587.467 449.453 596.32C449.533 605.173 449.573 611.813 449.573 616.253C449.573 617.587 449.067 618.267 448.04 618.267C447.427 618.267 446.52 618.2 445.293 618.08C444.08 617.96 443.16 617.893 442.547 617.893C441.896 617.893 440.899 617.96 439.556 618.08C438.213 618.2 437.216 618.267 436.564 618.267C435.832 618.267 434.956 617.587 433.939 616.253C425.147 604.4 411.817 586.733 393.948 563.253C391.18 559.667 389.573 557.68 389.125 557.267C388.717 557.267 388.515 558.107 388.515 559.773C388.515 566.04 388.616 575.453 388.82 588.013C389.023 600.573 389.125 609.987 389.125 616.253C389.125 617.587 388.717 618.267 387.904 618.267C387.212 618.267 386.153 618.2 384.729 618.08C383.304 617.96 382.247 617.893 381.555 617.893C380.821 617.893 379.732 617.96 378.288 618.08C376.843 618.2 375.753 618.267 375.021 618.267C374.004 618.267 373.495 617.853 373.495 617.04C373.495 612.56 373.708 605.813 374.136 596.8C374.564 587.787 374.777 581.027 374.777 576.507C374.777 571.573 374.593 562.707 374.228 549.88C374.147 546.547 373.943 541.533 373.617 534.867L373.556 534.067C373.515 533.453 374.004 533.133 375.021 533.093C377.667 533.053 379.743 532.973 381.249 532.853C381.819 532.813 382.897 532.64 384.485 532.36C385.828 532.12 386.887 532 387.66 532C388.025 532 388.657 532.587 389.552 533.76C398.913 546.627 413.241 565.76 432.535 591.16C433.389 592.213 434.183 593.133 434.916 593.907C435.201 592.2 435.343 588.28 435.343 582.187C435.343 576.893 435.149 568.947 434.763 558.373C434.376 547.787 434.183 539.867 434.183 534.613C434.183 533.28 434.591 532.6 435.404 532.6C436.137 532.6 437.247 532.667 438.732 532.787C440.217 532.907 441.327 532.973 442.059 532.973C442.827 532.973 443.987 532.907 445.533 532.787C447.08 532.667 448.24 532.6 449.013 532.6C449.88 532.6 450.307 533.053 450.307 533.947Z" fill="#8F9295"/>
<path d="M520.027 544.147C520.027 545.2 519.653 545.733 518.933 545.733C517.787 545.733 510.587 545.48 497.32 545C496.947 557.413 496.76 567.36 496.76 574.853C496.76 579.533 496.933 586.56 497.28 595.92C497.627 605.28 497.8 612.307 497.8 616.987C497.8 617.84 497.213 618.267 496.027 618.267C495.293 618.267 494.173 618.2 492.68 618.08C491.173 617.96 490.027 617.893 489.253 617.893C488.52 617.893 487.4 617.96 485.893 618.08C484.387 618.2 483.267 618.267 482.533 618.267C481.52 618.267 481.013 617.76 481.013 616.733C481.013 612.093 481.2 605.133 481.587 595.827C481.973 586.52 482.173 579.533 482.173 574.853C482.173 567.613 481.947 557.653 481.507 545C471 545.653 463.307 545.973 458.427 545.973C457.933 545.973 457.693 545.773 457.693 545.36C457.693 544.627 457.867 543.573 458.24 542.187C458.68 540.4 458.947 539.347 459.027 539.013C459.12 537.587 459.4 535.613 459.893 533.093C460.093 532.56 460.44 532.293 460.92 532.293L461.653 532.36C476.067 533.213 485.573 533.64 490.173 533.64C494.24 533.64 500.893 533.333 510.133 532.72C516.44 532.32 519.067 532.12 518.013 532.12C519.067 532.12 519.653 532.48 519.787 533.213C519.707 532.773 519.653 534.747 519.653 539.133C519.653 539.667 519.72 540.493 519.84 541.613C519.96 542.733 520.027 543.573 520.027 544.147Z" fill="#8F9295"/>
<path d="M574.493 583.827C574.493 582.653 572.653 577.36 568.987 567.96C565.453 558.84 562.947 552.853 561.48 550C553.053 571.493 548.84 582.747 548.84 583.773C548.84 585.147 550.387 585.96 553.48 586.213C553.653 586.253 555.64 586.267 559.467 586.267H565.76C571.573 586.267 574.493 585.453 574.493 583.827ZM602.933 617.533C602.933 618.013 602.453 618.267 601.467 618.267C600.693 618.267 599.573 618.2 598.08 618.08C596.6 617.96 595.467 617.893 594.693 617.893C593.92 617.893 592.76 617.96 591.213 618.08C589.667 618.2 588.507 618.267 587.733 618.267C586.6 618.267 585.147 615.187 583.373 609.013C581.6 602.853 579.8 599.72 577.973 599.64C576.467 599.56 572.533 599.52 566.187 599.52H556.533C549.827 599.52 546 599.56 545.053 599.64C543.587 599.76 542.04 602.893 540.387 609.04C538.733 615.187 537.467 618.267 536.573 618.267H522.84C522.027 618.267 521.613 617.973 521.613 617.413C521.613 617 521.893 616.08 522.467 614.667L537.427 573.76C538.693 570.453 542.52 560.96 548.907 545.24C550.04 542.64 551.587 538.707 553.547 533.453C554.04 531.907 554.56 531.133 555.133 531.133C555.907 531.133 557.04 531.24 558.547 531.44C560.053 531.653 561.2 531.747 561.973 531.747C562.707 531.747 563.813 531.64 565.293 531.413C566.787 531.187 567.867 531.08 568.56 531.08C568.933 531.08 569.44 531.827 570.093 533.333C571.067 535.613 575.893 547.893 584.56 570.147C596.813 601.453 602.933 617.24 602.933 617.533Z" fill="#8F9295"/>
<path d="M659.107 562.4C659.107 555.027 656.987 550.107 652.76 547.627C649.627 545.787 643.987 544.88 635.853 544.88C629.253 544.88 625.893 545.4 625.773 546.467C625.493 548.667 625.347 554.547 625.347 564.107V575.773C625.467 575.853 625.733 575.933 626.133 576.013C626.867 576.093 628.067 576.2 629.747 576.32C633.613 576.52 637.787 576.627 642.253 576.627C653.493 576.627 659.107 571.88 659.107 562.4ZM675.84 617.773C675.84 618.107 675.507 618.267 674.867 618.267C674.093 618.267 672.907 618.2 671.32 618.08C669.733 617.96 668.547 617.893 667.773 617.893C666.92 617.893 665.653 617.96 663.96 618.08C662.267 618.2 661 618.267 660.147 618.267C659.213 618.267 658.493 617.76 658.013 616.733C656.707 613.973 653 605.4 646.893 591.04C646.293 589.573 644.8 588.667 642.44 588.347C641.907 588.307 640.053 588.28 636.88 588.28C631.267 588.28 627.933 588.373 626.867 588.533C626.013 588.653 625.587 589.693 625.587 591.64C625.587 594.493 625.72 598.76 625.987 604.44C626.253 610.107 626.387 614.36 626.387 617.16C626.387 618.013 625.973 618.453 625.16 618.453C624.347 618.453 623.12 618.36 621.467 618.173C619.813 617.987 618.573 617.893 617.72 617.893C617.027 617.893 615.96 617.96 614.533 618.08C613.12 618.2 612.053 618.267 611.36 618.267C610.347 618.267 609.84 617.8 609.84 616.853C609.84 612.347 610.053 605.56 610.48 596.493C610.907 587.44 611.12 580.653 611.12 576.133C611.12 563.28 610.653 549.56 609.72 534.987L609.653 534.013C609.613 533.2 610.467 532.787 612.213 532.787C615.72 532.787 620.96 532.693 627.947 532.507C634.92 532.333 640.147 532.24 643.6 532.24C652.64 532.24 659.88 534.4 665.333 538.707C671.36 543.467 674.373 550.227 674.373 558.973C674.373 565 673.56 569.747 671.933 573.2C670.227 576.867 667.04 580.347 662.4 583.64C661.627 584.173 661.24 584.68 661.24 585.173C661.24 585.747 663.68 591.16 668.547 601.413C673.4 611.667 675.84 617.12 675.84 617.773Z" fill="#8F9295"/>
<rect x="-770" y="519" width="4012" height="222" fill="white"/>
</g>
</svg>
