<svg width="619" height="619" viewBox="0 0 619 619" fill="none" xmlns="http://www.w3.org/2000/svg">
<mask id="mask0_3_276" style="mask-type:alpha" maskUnits="userSpaceOnUse" x="0" y="0" width="619" height="619">
<circle cx="309.5" cy="309.5" r="309.5" fill="#D9D9D9"/>
</mask>
<g mask="url(#mask0_3_276)">
<path d="M2486.67 2336H-1780V-864H2486.67V2336Z" fill="white"/>
<path d="M167.16 570.707C167.16 561.92 164.653 554.747 159.653 549.213C154.44 543.48 147.48 540.613 138.773 540.613C131.56 540.613 128.653 540.573 130.04 540.48C125.28 540.733 122.893 541.6 122.893 543.107C122.893 546.24 122.827 550.933 122.68 557.187C122.533 563.427 122.467 568.12 122.467 571.253C122.467 574.347 122.533 578.987 122.68 585.173C122.827 591.36 122.893 596 122.893 599.093C122.893 600.64 125.333 601.547 130.213 601.787C129.573 601.747 132.533 601.72 139.133 601.72C143.813 601.72 147.533 601.24 150.307 600.253C153.72 599.04 156.8 596.773 159.52 593.48C164.613 587.293 167.16 579.707 167.16 570.707ZM182.12 570.707C182.12 582.147 178.853 592.04 172.347 600.387C165.267 609.453 156.187 614 145.12 614C143 614 139.813 613.92 135.56 613.747C131.307 613.587 128.12 613.507 126.013 613.507C124.093 613.507 121.213 613.587 117.373 613.747C113.52 613.92 110.64 614 108.733 614C107.707 614 107.2 613.493 107.2 612.467C107.2 608.04 107.373 601.333 107.72 592.387C108.067 583.427 108.24 576.707 108.24 572.24C108.24 567.52 108.08 560.413 107.747 550.933C107.427 541.44 107.267 534.347 107.267 529.613C107.267 528.76 107.787 528.333 108.853 528.333C110.36 528.333 112.6 528.36 115.6 528.4C118.587 528.44 120.84 528.453 122.347 528.453C123.733 528.453 125.84 528.44 128.693 528.4C131.547 528.36 133.693 528.333 135.16 528.333C149.293 528.333 159.813 531 166.733 536.333C171.693 540.16 175.547 545.307 178.267 551.787C180.84 557.8 182.12 564.12 182.12 570.707Z" fill="#8F9295"/>
<path d="M241.28 558.133C241.28 550.76 239.16 545.84 234.933 543.36C231.8 541.52 226.16 540.613 218.013 540.613C211.427 540.613 208.067 541.133 207.947 542.2C207.653 544.4 207.52 550.28 207.52 559.84V571.507C207.64 571.587 207.907 571.667 208.307 571.747C209.04 571.827 210.24 571.933 211.907 572.053C215.773 572.253 219.947 572.36 224.427 572.36C235.667 572.36 241.28 567.613 241.28 558.133ZM258.013 613.507C258.013 613.84 257.68 614 257.027 614C256.253 614 255.08 613.933 253.493 613.813C251.907 613.693 250.72 613.627 249.947 613.627C249.093 613.627 247.827 613.693 246.133 613.813C244.44 613.933 243.173 614 242.32 614C241.373 614 240.667 613.493 240.173 612.467C238.88 609.707 235.173 601.133 229.067 586.76C228.453 585.307 226.973 584.4 224.613 584.08C224.08 584.04 222.227 584.013 219.053 584.013C213.44 584.013 210.093 584.093 209.04 584.267C208.187 584.387 207.76 585.427 207.76 587.373C207.76 590.227 207.893 594.493 208.16 600.173C208.427 605.84 208.547 610.093 208.547 612.893C208.547 613.747 208.147 614.173 207.333 614.173C206.52 614.173 205.28 614.093 203.64 613.907C201.987 613.72 200.733 613.627 199.88 613.627C199.187 613.627 198.133 613.693 196.707 613.813C195.28 613.933 194.227 614 193.533 614C192.52 614 192.013 613.533 192.013 612.587C192.013 608.08 192.227 601.293 192.653 592.227C193.08 583.173 193.293 576.387 193.293 571.867C193.293 559 192.827 545.293 191.88 530.72L191.827 529.747C191.787 528.933 192.64 528.52 194.387 528.52C197.893 528.52 203.133 528.427 210.107 528.24C217.093 528.067 222.307 527.973 225.773 527.973C234.8 527.973 242.053 530.133 247.507 534.44C253.533 539.2 256.547 545.96 256.547 554.707C256.547 560.733 255.733 565.48 254.093 568.933C252.387 572.6 249.213 576.08 244.573 579.373C243.8 579.907 243.413 580.413 243.413 580.907C243.413 581.48 245.853 586.893 250.707 597.147C255.573 607.4 258.013 612.853 258.013 613.507Z" fill="#8F9295"/>
<path d="M313.387 579.56C313.387 578.387 311.547 573.093 307.893 563.693C304.347 554.573 301.84 548.587 300.373 545.733C291.947 567.227 287.747 578.48 287.747 579.507C287.747 580.88 289.293 581.693 292.387 581.947C292.547 581.987 294.533 582 298.36 582H304.653C310.467 582 313.387 581.187 313.387 579.56ZM341.84 613.267C341.84 613.747 341.347 614 340.373 614C339.6 614 338.467 613.933 336.987 613.813C335.493 613.693 334.36 613.627 333.587 613.627C332.813 613.627 331.653 613.693 330.107 613.813C328.56 613.933 327.4 614 326.627 614C325.493 614 324.04 610.907 322.267 604.747C320.493 598.587 318.693 595.453 316.867 595.373C315.36 595.293 311.427 595.253 305.08 595.253H295.44C288.72 595.253 284.893 595.293 283.96 595.373C282.493 595.493 280.933 598.627 279.28 604.773C277.64 610.92 276.36 614 275.467 614H261.733C260.92 614 260.507 613.707 260.507 613.147C260.507 612.733 260.8 611.813 261.36 610.4L276.32 569.493C277.587 566.187 281.413 556.68 287.8 540.973C288.947 538.373 290.493 534.44 292.44 529.187C292.933 527.64 293.453 526.867 294.027 526.867C294.8 526.867 295.947 526.973 297.453 527.173C298.96 527.387 300.093 527.48 300.867 527.48C301.6 527.48 302.707 527.373 304.2 527.147C305.68 526.92 306.773 526.813 307.467 526.813C307.827 526.813 308.333 527.56 308.987 529.067C309.96 531.347 314.787 543.627 323.453 565.88C335.707 597.187 341.84 612.973 341.84 613.267Z" fill="#8F9295"/>
<path d="M434.573 612.467C434.573 613.493 434.067 614 433.053 614C432.32 614 431.213 613.933 429.72 613.813C428.24 613.693 427.133 613.627 426.4 613.627C425.667 613.627 424.547 613.693 423.04 613.813C421.534 613.933 420.413 614 419.68 614C418.667 614 418.147 613.32 418.147 611.987C418.147 606.813 418.32 599.053 418.64 588.72C418.973 578.387 419.133 570.627 419.133 565.453C419.133 564.68 418.973 564.293 418.64 564.293C418.28 564.293 417.987 564.52 417.787 564.973C415.707 569.4 410.8 581.253 403.067 600.507C401.813 604.213 400 608.827 397.64 614.36C397.36 614.893 395.893 615.16 393.24 615.16C389.413 615.16 387.307 614.813 386.893 614.12C385.507 610.827 383.533 606.2 380.973 600.253C377.587 592.2 372.4 580.187 365.4 564.24C365.28 563.947 365.013 563.667 364.613 563.387C364.28 563.627 364.12 564.08 364.12 564.72C364.12 569.973 364.213 577.853 364.4 588.36C364.573 598.853 364.667 606.733 364.667 611.987C364.667 613.32 364.16 614 363.147 614C362.453 614 361.387 613.933 359.973 613.813C358.547 613.693 357.48 613.627 356.8 613.627C356.067 613.627 354.973 613.693 353.533 613.813C352.08 613.933 350.987 614 350.267 614C349.24 614 348.733 613.613 348.733 612.84C348.733 608.32 348.947 601.547 349.373 592.533C349.8 583.52 350.013 576.747 350.013 572.24C350.013 567.56 349.8 560.52 349.373 551.147C348.947 541.76 348.733 534.733 348.733 530.04C348.733 529.267 349.2 528.827 350.133 528.707C355.68 527.973 359.84 527.6 362.653 527.6C363.067 527.6 363.627 528.44 364.36 530.107C374.213 551.76 382.68 571.093 389.76 588.107C391.427 592.093 392.427 594.093 392.76 594.093C393.16 594.093 394.04 592.467 395.373 589.213C400.92 576.027 408.587 556.44 418.4 530.48C419.013 528.88 419.68 528.093 420.413 528.093C421.8 528.093 423.88 528.173 426.667 528.333C429.453 528.493 431.547 528.587 432.933 528.587C433.947 528.587 434.453 529.067 434.453 530.04C434.453 534.733 434.307 541.76 434 551.147C433.693 560.52 433.533 567.56 433.533 572.24C433.533 576.707 433.707 583.427 434.053 592.387C434.4 601.333 434.573 608.04 434.573 612.467Z" fill="#8F9295"/>
<path d="M494.6 579.56C494.6 578.387 492.76 573.093 489.093 563.693C485.56 554.573 483.053 548.587 481.587 545.733C473.16 567.227 468.947 578.48 468.947 579.507C468.947 580.88 470.493 581.693 473.587 581.947C473.76 581.987 475.747 582 479.573 582H485.867C491.68 582 494.6 581.187 494.6 579.56ZM523.04 613.267C523.04 613.747 522.56 614 521.573 614C520.8 614 519.68 613.933 518.187 613.813C516.707 613.693 515.573 613.627 514.8 613.627C514.027 613.627 512.867 613.693 511.32 613.813C509.773 613.933 508.613 614 507.84 614C506.707 614 505.253 610.907 503.48 604.747C501.707 598.587 499.907 595.453 498.08 595.373C496.573 595.293 492.64 595.253 486.293 595.253H476.64C469.933 595.253 466.106 595.293 465.16 595.373C463.706 595.493 462.146 598.627 460.493 604.773C458.84 610.92 457.573 614 456.68 614H442.947C442.133 614 441.72 613.707 441.72 613.147C441.72 612.733 442 611.813 442.573 610.4L457.533 569.493C458.8 566.187 462.627 556.68 469.013 540.973C470.147 538.373 471.693 534.44 473.653 529.187C474.147 527.64 474.667 526.867 475.24 526.867C476.013 526.867 477.147 526.973 478.653 527.173C480.16 527.387 481.307 527.48 482.08 527.48C482.813 527.48 483.92 527.373 485.4 527.147C486.893 526.92 487.973 526.813 488.667 526.813C489.04 526.813 489.547 527.56 490.2 529.067C491.173 531.347 496 543.627 504.667 565.88C516.92 597.187 523.04 612.973 523.04 613.267Z" fill="#8F9295"/>
<path d="M469.467 317.907C455.6 323.72 442.04 323.067 439.16 316.467C436.293 309.853 445.213 299.787 459.08 293.96C472.947 288.147 486.52 288.8 489.387 295.4C492.253 302.013 483.333 312.08 469.467 317.907ZM416.44 414.493C386.414 414.493 362.013 396.6 361.413 374.373C376.04 383.187 395.307 388.547 416.44 388.547C437.56 388.547 456.84 383.187 471.467 374.373C470.853 396.6 446.467 414.493 416.44 414.493ZM343.493 295.4C346.36 288.8 359.92 288.147 373.8 293.96C387.667 299.787 396.573 309.853 393.707 316.467C390.84 323.067 377.267 323.72 363.4 317.907C349.533 312.08 340.613 302.013 343.493 295.4ZM332.72 190.6L324.4 191.52L320.507 199.147C304.547 230.373 296.12 267.293 296.12 305.907C296.12 402.147 350.094 480.44 416.44 480.44C482.787 480.44 536.76 402.147 536.76 305.907C536.76 267.28 528.32 230.373 512.374 199.147L508.467 191.52L500.147 190.6C442.773 182.133 386.933 181.96 332.72 190.6Z" fill="#8F9295"/>
<path d="M232.16 360.107C211.827 365.493 194.747 375.587 183.067 387.827C177.6 366.173 196.2 342.667 225.093 335.013C253.987 327.36 282.32 338.44 288.96 359.787C272.493 355 252.493 354.72 232.16 360.107ZM158.68 293.907C143.76 291.813 132.44 284.347 133.4 277.227C134.36 270.093 147.24 266.013 162.173 268.107C177.093 270.2 188.413 277.667 187.453 284.787C186.493 291.907 173.613 295.987 158.68 293.907ZM244.227 246.373C255.987 237.213 269.213 234.387 273.787 240.04C278.347 245.707 272.507 257.72 260.746 266.88C248.986 276.027 235.747 278.867 231.187 273.2C226.627 267.547 232.467 255.533 244.227 246.373ZM283.733 305.907C283.733 272.933 289.907 241.2 301.64 213.187C291.533 190.773 278.627 171.133 264.107 155.227C201.987 150.973 146.68 166.613 97.2798 199.413C91.0665 230.493 92.2398 267.013 102.707 304.187C128 394.013 196.893 450.067 253.28 435.133C273.026 429.893 289.533 416.413 301.56 397.227C290.267 370.653 283.733 339.36 283.733 305.907Z" fill="#8F9295"/>
<rect x="-1659" y="514" width="4012" height="222" fill="white"/>
</g>
</svg>
