<svg width="619" height="619" viewBox="0 0 619 619" fill="none" xmlns="http://www.w3.org/2000/svg">
<mask id="mask0_3_276" style="mask-type:alpha" maskUnits="userSpaceOnUse" x="0" y="0" width="619" height="619">
<circle cx="309.5" cy="309.5" r="309.5" fill="#D9D9D9"/>
</mask>
<g mask="url(#mask0_3_276)">
<path d="M1592.67 2317H-2674V-883H1592.67V2317Z" fill="white"/>
<path d="M168.053 521.853C168.053 522.627 167.613 523.013 166.76 523.013C163.587 523.013 158.387 522.827 151.133 522.467C144.373 522.133 139.173 522.013 135.507 522.093L131.053 522.16C128.2 522.2 126.693 522.253 126.533 522.347C125.72 522.667 125.307 523.947 125.307 526.187V540.907C125.307 543.667 125.893 545.053 127.08 545.053C131.027 545.053 136.987 544.867 144.933 544.507C152.893 544.133 158.853 543.96 162.8 543.96C163.653 543.96 164.08 544.28 164.08 544.933C164.08 545.627 164.027 546.653 163.92 548.013C163.827 549.373 163.773 550.4 163.773 551.093C163.773 551.827 163.813 552.933 163.893 554.427C163.973 555.907 164.013 557.027 164.013 557.747C164.013 558.24 163.587 558.48 162.733 558.48C159.933 558.48 155.667 558.4 149.947 558.24C144.227 558.08 139.947 558 137.093 558C131.84 558 128.867 558.04 128.173 558.12C126.347 558.32 125.427 559.08 125.427 560.373C125.427 564.04 125.533 569.533 125.733 576.867C125.947 584.187 126.04 589.68 126.04 593.347C126.04 594.573 125.56 595.173 124.573 595.173C123.76 595.173 122.547 595.093 120.947 594.907C119.333 594.72 118.107 594.627 117.253 594.627C116.56 594.627 115.493 594.693 114.08 594.813C112.653 594.933 111.587 595 110.907 595C109.88 595 109.373 594.547 109.373 593.653C109.373 589.133 109.573 582.333 109.96 573.267C110.347 564.187 110.533 557.387 110.533 552.867C110.533 548.68 110.107 535.04 109.253 511.96V511.173C109.213 510.32 109.72 509.827 110.773 509.707C111.107 509.707 113.693 509.76 118.533 509.88C124.92 510.013 130.84 510.027 136.293 509.947C143.667 509.867 153.053 509.453 164.44 508.72C165.987 508.6 166.867 509.28 167.067 510.747C167.027 511.84 167.107 513.507 167.32 515.747C167.8 518.88 168.053 520.92 168.053 521.853Z" fill="#8F9295"/>
<path d="M223.12 560.56C223.12 559.387 221.293 554.093 217.627 544.693C214.08 535.573 211.574 529.587 210.12 526.733C201.694 548.227 197.48 559.48 197.48 560.507C197.48 561.88 199.027 562.693 202.12 562.947C202.28 562.987 204.267 563 208.093 563H214.387C220.214 563 223.12 562.187 223.12 560.56ZM251.574 594.267C251.574 594.747 251.08 595 250.107 595C249.334 595 248.2 594.933 246.72 594.813C245.227 594.693 244.107 594.627 243.333 594.627C242.56 594.627 241.4 594.693 239.854 594.813C238.307 594.933 237.147 595 236.374 595C235.227 595 233.773 591.907 232 585.747C230.227 579.587 228.427 576.453 226.6 576.373C225.093 576.293 221.16 576.253 214.813 576.253H205.174C198.454 576.253 194.627 576.293 193.693 576.373C192.227 576.493 190.667 579.627 189.013 585.773C187.373 591.92 186.093 595 185.2 595H171.467C170.653 595 170.24 594.707 170.24 594.147C170.24 593.733 170.533 592.813 171.093 591.4L186.054 550.493C187.32 547.187 191.147 537.693 197.533 521.973C198.68 519.373 200.227 515.44 202.174 510.187C202.667 508.64 203.2 507.867 203.76 507.867C204.533 507.867 205.68 507.973 207.187 508.173C208.694 508.387 209.827 508.48 210.6 508.48C211.333 508.48 212.44 508.373 213.933 508.147C215.413 507.92 216.507 507.813 217.2 507.813C217.56 507.813 218.067 508.56 218.72 510.067C219.694 512.347 224.52 524.627 233.187 546.88C245.44 578.187 251.574 593.973 251.574 594.267Z" fill="#8F9295"/>
<path d="M344.307 593.467C344.307 594.493 343.8 595 342.787 595C342.054 595 340.947 594.933 339.454 594.813C337.974 594.693 336.867 594.627 336.133 594.627C335.4 594.627 334.28 594.693 332.774 594.813C331.267 594.933 330.147 595 329.413 595C328.4 595 327.893 594.32 327.893 592.987C327.893 587.813 328.054 580.053 328.374 569.72C328.707 559.387 328.867 551.627 328.867 546.453C328.867 545.68 328.707 545.293 328.374 545.293C328.014 545.293 327.72 545.52 327.52 545.973C325.44 550.4 320.547 562.253 312.813 581.507C311.547 585.213 309.734 589.827 307.374 595.36C307.094 595.893 305.627 596.16 302.974 596.16C299.147 596.16 297.04 595.813 296.627 595.12C295.24 591.827 293.267 587.2 290.707 581.253C287.334 573.2 282.133 561.187 275.133 545.24C275.013 544.947 274.747 544.667 274.347 544.387C274.013 544.627 273.854 545.08 273.854 545.72C273.854 550.973 273.947 558.853 274.133 569.36C274.307 579.853 274.4 587.733 274.4 592.987C274.4 594.32 273.893 595 272.88 595C272.187 595 271.134 594.933 269.707 594.813C268.28 594.693 267.227 594.627 266.533 594.627C265.8 594.627 264.707 594.693 263.267 594.813C261.813 594.933 260.733 595 260 595C258.973 595 258.467 594.613 258.467 593.84C258.467 589.32 258.68 582.547 259.107 573.533C259.534 564.52 259.747 557.747 259.747 553.24C259.747 548.56 259.534 541.52 259.107 532.147C258.68 522.76 258.467 515.733 258.467 511.04C258.467 510.28 258.933 509.827 259.88 509.707C265.413 508.973 269.587 508.6 272.387 508.6C272.8 508.6 273.36 509.44 274.093 511.107C283.947 532.76 292.413 552.093 299.493 569.107C301.173 573.093 302.16 575.093 302.493 575.093C302.893 575.093 303.774 573.467 305.12 570.213C310.654 557.027 318.32 537.44 328.133 511.48C328.747 509.88 329.413 509.093 330.147 509.093C331.533 509.093 333.613 509.173 336.4 509.333C339.2 509.493 341.28 509.587 342.667 509.587C343.68 509.587 344.187 510.067 344.187 511.04C344.187 515.733 344.04 522.76 343.733 532.147C343.427 541.52 343.28 548.56 343.28 553.24C343.28 557.707 343.454 564.427 343.787 573.387C344.134 582.333 344.307 589.04 344.307 593.467Z" fill="#8F9295"/>
<path d="M374.04 593.72C374.04 594.573 373.453 595 372.28 595C371.546 595 370.427 594.933 368.92 594.813C367.413 594.693 366.293 594.627 365.56 594.627C364.786 594.627 363.64 594.693 362.133 594.813C360.64 594.933 359.52 595 358.787 595C357.76 595 357.253 594.533 357.253 593.587C357.253 588.947 357.466 581.96 357.893 572.613C358.32 563.28 358.533 556.267 358.533 551.587C358.533 547.067 358.32 540.28 357.893 531.227C357.466 522.173 357.253 515.387 357.253 510.867C357.253 509.84 357.72 509.333 358.653 509.333C359.427 509.333 360.613 509.4 362.2 509.52C363.786 509.64 364.986 509.707 365.8 509.707C366.533 509.707 367.64 509.64 369.107 509.52C370.56 509.4 371.666 509.333 372.4 509.333C373.453 509.333 373.987 509.747 373.987 510.56C373.987 515.12 373.826 521.96 373.493 531.067C373.173 540.187 373.013 547.027 373.013 551.587C373.013 556.267 373.186 563.293 373.533 572.653C373.866 582.013 374.04 589.04 374.04 593.72Z" fill="#8F9295"/>
<path d="M444.44 581.747C444.44 587.453 444.133 591.493 443.52 593.893C443.24 595.08 442.533 595.667 441.387 595.667C438.373 595.667 433.853 595.493 427.84 595.147C421.813 594.8 417.293 594.627 414.28 594.627C411.426 594.627 407.173 594.693 401.52 594.813C395.867 594.933 391.613 595 388.76 595C387.746 595 387.24 594.493 387.24 593.467C387.24 589.04 387.386 582.333 387.693 573.387C388 564.427 388.146 557.707 388.146 553.24C388.146 548.52 387.933 541.44 387.507 532.013C387.08 522.6 386.866 515.52 386.866 510.8C386.866 509.907 387.373 509.453 388.4 509.453C389.12 509.453 390.24 509.52 391.746 509.64C393.253 509.76 394.4 509.827 395.173 509.827C395.907 509.827 397.04 509.76 398.587 509.64C400.133 509.52 401.28 509.453 402.013 509.453C402.986 509.453 403.48 509.84 403.48 510.613C403.48 514.933 403.307 521.427 402.987 530.093C402.667 538.76 402.493 545.28 402.493 549.627C402.493 551.747 402.493 554.96 402.493 559.28C402.453 563.6 402.44 566.813 402.44 568.92C402.44 577.96 402.8 582.48 403.533 582.48C418.56 582.48 429.893 582.12 437.546 581.387C437.906 581.347 438.84 581.2 440.346 580.96C441.573 580.707 442.506 580.587 443.16 580.587C444.013 580.587 444.44 580.973 444.44 581.747Z" fill="#8F9295"/>
<path d="M516.667 532.36C516.667 534.68 513.053 540.827 505.8 550.787C501 557.027 496.213 563.253 491.453 569.48C490.28 571.027 489.68 572.613 489.68 574.24C489.68 576.44 489.8 579.72 490.013 584.093C490.24 588.48 490.36 591.747 490.36 593.893C490.36 594.627 489.84 595 488.826 595H474.293C473.48 595 473.08 594.413 473.08 593.227C473.08 591.147 473.213 588 473.507 583.76C473.787 579.533 473.933 576.36 473.933 574.24C473.933 572.4 473.427 570.773 472.4 569.36C469.48 565.573 465.093 559.867 459.28 552.253C454.306 545.467 450.733 540.293 448.533 536.747C447.8 535.533 447.44 534.347 447.44 533.213C447.347 528.08 447.307 520.667 447.307 510.987C447.307 509.88 447.8 509.333 448.773 509.333C449.467 509.333 450.493 509.4 451.867 509.52C453.227 509.64 454.253 509.707 454.946 509.707C455.76 509.707 456.973 509.64 458.6 509.52C460.24 509.4 461.48 509.333 462.333 509.333C463.067 509.333 463.426 509.667 463.426 510.32C463.426 512.6 463.307 516.013 463.067 520.573C462.813 525.133 462.693 528.547 462.693 530.827C462.693 533.267 469.147 541.853 482.053 556.587C485.107 553.133 488.6 548.84 492.546 543.707C498.053 536.627 500.8 532.373 500.8 530.947C500.8 528.747 500.627 525.427 500.307 520.973C499.987 516.507 499.813 513.187 499.813 510.987C499.813 509.88 500.28 509.333 501.226 509.333C501.96 509.333 503.08 509.4 504.587 509.52C506.08 509.64 507.2 509.707 507.933 509.707C508.707 509.707 509.88 509.64 511.453 509.52C513.013 509.4 514.186 509.333 514.96 509.333C515.933 509.333 516.426 510.013 516.426 511.347C516.426 513.667 516.466 517.173 516.546 521.853C516.626 526.533 516.667 530.04 516.667 532.36Z" fill="#8F9295"/>
<path d="M152.147 227.387C155.307 228.32 156.707 229.933 157.92 232.827C164.92 249.587 173.653 265.147 188.32 276.24C195.333 281.547 203.146 284.866 212.027 285.013C227.027 285.253 238.187 277.467 247.813 266.72C256.813 256.667 263.067 244.84 268.293 232.36C268.96 230.76 270.213 228.8 271.64 228.267C281.68 224.453 288.52 214.427 288.12 203.56C287.893 197.72 286.68 196.28 280.373 195.067C280.68 193.333 280.907 191.92 281.16 190.52C283.347 178.187 285.293 165.84 283.44 153.227C281.453 139.613 275.493 129.04 262.627 123.48C261.44 122.973 259.96 121.933 259.627 120.826C256.467 110.346 248.6 105.507 239.093 103.387C212.213 97.4133 187.547 103.306 165.467 119.826C150.613 130.933 142.68 146.267 142.893 165.36C143.013 175.213 144.053 185.053 144.64 194.187C142.573 195.867 139.48 197.12 138.64 199.293C135.013 208.64 142.707 224.56 152.147 227.387Z" fill="#8F9295"/>
<path d="M227.92 298.947H197.933C194.92 298.947 192.867 302.067 193.987 304.947L202.187 326.04H223.667L231.867 304.947C232.987 302.067 230.933 298.947 227.92 298.947Z" fill="#8F9295"/>
<path d="M266.066 272.027C266.146 278.413 266.853 284.813 267.24 290.747C265.853 291.84 263.76 292.64 263.186 294.053C260.733 300.12 265.933 310.453 272.333 312.293C274.466 312.907 275.413 313.947 276.226 315.827C280.973 326.707 286.88 336.813 296.8 344.013C301.56 347.467 306.84 349.613 312.853 349.707C323 349.867 330.546 344.813 337.066 337.827C343.146 331.307 347.386 323.627 350.92 315.52C351.373 314.48 352.213 313.213 353.173 312.867C359.973 310.387 364.6 303.88 364.333 296.827C364.186 293.04 363.36 292.107 359.093 291.32C359.293 290.187 359.453 289.267 359.626 288.36C361.106 280.347 362.426 272.333 361.173 264.147C359.826 255.307 355.786 248.44 347.08 244.827C346.28 244.507 345.28 243.827 345.053 243.107C342.92 236.307 337.6 233.16 331.16 231.787C312.973 227.907 296.28 231.733 281.346 242.453C271.293 249.667 265.933 259.627 266.066 272.027Z" fill="#8F9295"/>
<path d="M205.227 408.24C205.227 395.32 212.52 383.653 224.253 377.813C225.347 377.28 226.413 376.787 227.453 376.333L223.653 333.293H202.2L198.173 378.96L162.667 304.973C152.707 313.96 134.773 325.053 103.387 331.947C103.387 331.947 95.1599 334.12 86.2265 338.747C72.7465 345.733 64.3599 359.853 64.3599 375.16V461.347C64.3599 465.84 67.9732 469.493 72.4265 469.493H206.4C205.653 467.88 205.227 466.08 205.227 464.2V408.24Z" fill="#8F9295"/>
<path d="M432.84 446.52C430.307 446.52 428.253 444.453 428.253 441.88C428.253 439.32 430.307 437.24 432.84 437.24C435.374 437.24 437.427 439.32 437.427 441.88C437.427 444.453 435.374 446.52 432.84 446.52ZM544.08 363.747C538.333 344.16 480.893 334.12 480.893 334.12C455.813 421.933 432.84 426.693 432.84 426.693C432.84 426.693 428.56 425.8 421.68 417.747V464.2C421.68 466.08 421.254 467.88 420.507 469.493H503.627C507.347 449.12 512.227 436.227 512.227 436.227L518.227 469.493H561.56C553.293 415.427 546.16 370.827 544.08 363.747Z" fill="#8F9295"/>
<path d="M390.72 254.867C407.146 250.253 423.813 246.04 439.586 239.32C450.346 234.747 459.746 226.213 470.546 218.893C469.186 237.693 471.373 255.227 476.106 272.76C477.266 277.027 472.92 284.667 469.293 288.76C452.746 307.467 432.92 315.187 409.68 307.187C395.106 302.16 384.573 291.147 377.306 276.48C373.666 269.147 381.92 257.347 390.72 254.867ZM368.786 263.013C370.026 271.16 369.106 278.907 367.746 286.707C370.506 288.827 371.853 292 372.026 296.533C372.16 300.04 371.453 303.493 370.08 306.653C370.84 307.133 371.6 307.6 372.346 308.067C379.4 311.587 384.373 311.093 384.373 311.093C382.746 310.013 381.533 308.627 380.626 307.147C379.786 306.2 379.173 304.72 378.76 302.667C377.653 298.387 378.146 294.467 378.146 294.467C378.146 294.467 395.693 321.413 426.733 320.68C426.76 320.68 426.8 320.693 426.826 320.693C426.92 320.693 427.026 320.68 427.146 320.68C427.973 320.68 428.813 320.587 429.64 320.533C430.173 320.493 430.8 320.413 431.426 320.333C460.266 317.267 478.933 293.44 481.52 287.987C482 288.227 482.466 288.467 482.933 288.707C481.533 295.333 480.12 301.96 478.506 309.6C494.093 303.12 503.333 291.76 505.56 274.533C509.4 244.667 501.906 217.227 488.773 191.693C487.853 189.907 486.613 188.333 485.146 186.827C476.946 176.667 455.44 154.507 427.04 159.28C367.666 165.027 350.56 228.6 350.56 228.6C349.973 230.213 349.44 232.04 348.973 234.027C350.053 235.507 350.893 237.013 351.52 238.48C361.186 243.013 366.986 251.253 368.786 263.013Z" fill="#8F9295"/>
<path d="M360.973 339.84C356.693 341.107 352.84 343.64 350.32 347.28C349.773 348.053 349.307 348.88 348.973 349.707C348.253 351.493 349.293 353.747 350.787 355.8C353.24 359.147 356.68 361.653 360.547 363.227L368.893 366.64C374.32 368.893 380.987 371.027 389.187 372.76L389.493 372.827C389.693 372.88 393.773 373.92 398.853 376.08C394.347 364.787 389.613 350.987 384.787 334.12C384.787 334.12 373.813 336.04 360.973 339.84Z" fill="#8F9295"/>
<path d="M237.72 372.76C257.827 368.52 268.747 361.827 274.36 356.973L276.413 355.187C279.213 352.76 280.693 349.173 280.387 345.52C279.56 335.347 272.013 322.28 269.373 319.333C267.013 316.68 262.373 312.827 259.933 310.88C259.147 310.24 257.96 310.52 257.533 311.44L228.227 376C233.227 373.907 237.213 372.88 237.427 372.827L237.72 372.76Z" fill="#8F9295"/>
<path d="M399.187 384.6C393.147 381.587 387.573 380.187 387.573 380.187C364.907 375.413 352.613 367.52 346.173 361.52C312.4 392.307 279.44 362.68 279.44 362.68C272.707 368.507 260.573 375.707 239.333 380.187C239.333 380.187 233.76 381.587 227.733 384.6C218.6 389.133 212.92 398.307 212.92 408.24V464.2C212.92 467.12 215.373 469.493 218.387 469.493H221.493H404.44H408.52C411.547 469.493 413.987 467.12 413.987 464.2V408.24C413.987 398.307 408.307 389.133 399.187 384.6Z" fill="#8F9295"/>
<rect x="-2553" y="495" width="4012" height="222" fill="white"/>
</g>
</svg>
