<svg width="619" height="619" viewBox="0 0 619 619" fill="none" xmlns="http://www.w3.org/2000/svg">
<mask id="mask0_3_276" style="mask-type:alpha" maskUnits="userSpaceOnUse" x="0" y="0" width="619" height="619">
<circle cx="309.5" cy="309.5" r="309.5" fill="#D9D9D9"/>
</mask>
<g mask="url(#mask0_3_276)">
<path d="M698.666 2346H-3568V-854H698.666V2346Z" fill="white"/>
<path d="M115.053 550.787C115.053 551.56 114.627 551.947 113.773 551.947C110.6 551.947 105.387 551.773 98.1466 551.4C91.3866 551.08 86.1734 550.96 82.5067 551.04L78.0534 551.093C75.2134 551.133 73.7066 551.2 73.5333 551.28C72.72 551.613 72.32 552.893 72.32 555.12V569.84C72.32 572.613 72.9065 573.987 74.0932 573.987C78.0399 573.987 83.9866 573.813 91.9466 573.44C99.9066 573.08 105.853 572.893 109.8 572.893C110.653 572.893 111.093 573.227 111.093 573.867C111.093 574.56 111.04 575.587 110.933 576.96C110.827 578.32 110.787 579.347 110.787 580.04C110.787 580.773 110.827 581.88 110.907 583.36C110.987 584.853 111.027 585.96 111.027 586.693C111.027 587.187 110.6 587.427 109.747 587.427C106.933 587.427 102.667 587.347 96.9466 587.187C91.2399 587.013 86.9467 586.933 84.1067 586.933C78.8534 586.933 75.88 586.973 75.1867 587.053C73.36 587.267 72.4401 588.013 72.4401 589.32C72.4401 592.987 72.5466 598.48 72.7466 605.8C72.9466 613.133 73.0534 618.627 73.0534 622.293C73.0534 623.507 72.56 624.12 71.5867 624.12C70.7734 624.12 69.5599 624.027 67.9466 623.84C66.3466 623.667 65.1067 623.573 64.2534 623.573C63.56 623.573 62.5066 623.627 61.0799 623.747C59.6533 623.88 58.6001 623.933 57.9068 623.933C56.8934 623.933 56.3867 623.493 56.3867 622.587C56.3867 618.08 56.5732 611.28 56.9599 602.2C57.3465 593.12 57.5466 586.32 57.5466 581.813C57.5466 577.613 57.12 563.973 56.2534 540.907V540.107C56.2134 539.253 56.7334 538.76 57.7867 538.64C58.1067 538.64 60.6933 538.707 65.5466 538.827C71.9333 538.947 77.8534 538.973 83.3067 538.88C90.6801 538.8 100.053 538.4 111.453 537.667C113 537.547 113.88 538.213 114.08 539.68C114.04 540.773 114.12 542.453 114.32 544.68C114.813 547.827 115.053 549.853 115.053 550.787Z" fill="#8F9295"/>
<path d="M170.12 589.507C170.12 588.32 168.293 583.027 164.626 573.627C161.093 564.507 158.587 558.52 157.12 555.68C148.693 577.173 144.48 588.427 144.48 589.44C144.48 590.827 146.027 591.64 149.12 591.88C149.28 591.92 151.28 591.947 155.107 591.947H161.4C167.213 591.947 170.12 591.133 170.12 589.507ZM198.573 623.2C198.573 623.693 198.093 623.933 197.107 623.933C196.333 623.933 195.213 623.88 193.72 623.747C192.24 623.627 191.106 623.573 190.333 623.573C189.56 623.573 188.4 623.627 186.853 623.747C185.307 623.88 184.147 623.933 183.373 623.933C182.24 623.933 180.786 620.853 179.013 614.68C177.24 608.52 175.44 605.4 173.613 605.32C172.106 605.227 168.173 605.187 161.826 605.187H152.173C145.467 605.187 141.64 605.227 140.693 605.32C139.226 605.44 137.68 608.573 136.026 614.72C134.373 620.867 133.106 623.933 132.213 623.933H118.48C117.666 623.933 117.253 623.653 117.253 623.08C117.253 622.68 117.533 621.76 118.107 620.333L133.066 579.427C134.333 576.133 138.16 566.627 144.546 550.92C145.68 548.307 147.227 544.387 149.187 539.133C149.667 537.587 150.2 536.813 150.773 536.813C151.547 536.813 152.68 536.907 154.187 537.12C155.693 537.32 156.84 537.427 157.613 537.427C158.346 537.427 159.453 537.307 160.933 537.08C162.426 536.867 163.506 536.747 164.2 536.747C164.573 536.747 165.08 537.507 165.733 539.013C166.706 541.293 171.533 553.56 180.2 575.827C192.453 607.12 198.573 622.92 198.573 623.2Z" fill="#8F9295"/>
<path d="M282.28 539.613C282.28 544.293 282.12 551.36 281.8 560.8C281.466 570.253 281.307 577.333 281.307 582.053C281.307 586.493 281.346 593.133 281.426 601.987C281.506 610.84 281.546 617.48 281.546 621.92C281.546 623.267 281.04 623.933 280.026 623.933C279.413 623.933 278.493 623.88 277.28 623.747C276.053 623.627 275.146 623.573 274.533 623.573C273.88 623.573 272.88 623.627 271.533 623.747C270.2 623.88 269.2 623.933 268.546 623.933C267.813 623.933 266.933 623.267 265.92 621.92C257.133 610.08 243.8 592.413 225.933 568.92C223.16 565.347 221.56 563.347 221.107 562.947C220.707 562.947 220.493 563.773 220.493 565.44C220.493 571.707 220.6 581.12 220.8 593.68C221 606.24 221.107 615.653 221.107 621.92C221.107 623.267 220.706 623.933 219.88 623.933C219.2 623.933 218.133 623.88 216.707 623.747C215.293 623.627 214.226 623.573 213.533 623.573C212.8 623.573 211.72 623.627 210.266 623.747C208.826 623.88 207.733 623.933 207 623.933C205.986 623.933 205.48 623.533 205.48 622.72C205.48 618.24 205.693 611.493 206.12 602.48C206.547 593.453 206.76 586.693 206.76 582.173C206.76 577.253 206.573 568.373 206.213 555.56C206.133 552.213 205.92 547.213 205.6 540.533L205.533 539.747C205.493 539.133 205.986 538.8 207 538.76C209.653 538.72 211.72 538.64 213.226 538.52C213.8 538.48 214.88 538.32 216.466 538.027C217.813 537.787 218.867 537.667 219.64 537.667C220.013 537.667 220.64 538.253 221.533 539.44C230.893 552.293 245.227 571.427 264.52 596.827C265.373 597.88 266.16 598.8 266.893 599.573C267.186 597.867 267.32 593.96 267.32 587.853C267.32 582.56 267.133 574.627 266.746 564.04C266.36 553.453 266.16 545.547 266.16 540.293C266.16 538.947 266.573 538.28 267.387 538.28C268.12 538.28 269.227 538.333 270.72 538.453C272.2 538.587 273.307 538.64 274.04 538.64C274.813 538.64 275.973 538.587 277.52 538.453C279.067 538.333 280.226 538.28 281 538.28C281.853 538.28 282.28 538.72 282.28 539.613Z" fill="#8F9295"/>
<path d="M352.013 549.813C352.013 550.88 351.64 551.4 350.907 551.4C349.773 551.4 342.56 551.16 329.293 550.667C328.933 563.08 328.746 573.04 328.746 580.52C328.746 585.2 328.92 592.227 329.267 601.587C329.613 610.947 329.787 617.973 329.787 622.653C329.787 623.507 329.2 623.933 328.013 623.933C327.28 623.933 326.16 623.88 324.653 623.747C323.147 623.627 322.013 623.573 321.24 623.573C320.507 623.573 319.386 623.627 317.88 623.747C316.373 623.88 315.253 623.933 314.52 623.933C313.507 623.933 313 623.427 313 622.413C313 617.773 313.187 610.8 313.573 601.493C313.96 592.2 314.16 585.2 314.16 580.52C314.16 573.28 313.933 563.333 313.48 550.667C302.986 551.32 295.293 551.64 290.4 551.64C289.92 551.64 289.667 551.44 289.667 551.04C289.667 550.307 289.853 549.24 290.226 547.867C290.666 546.067 290.933 545.013 291.013 544.68C291.093 543.267 291.387 541.293 291.867 538.76C292.067 538.24 292.413 537.973 292.907 537.973L293.64 538.027C308.053 538.88 317.56 539.32 322.146 539.32C326.226 539.32 332.88 539.013 342.12 538.4C348.427 537.987 351.053 537.787 350 537.787C351.053 537.787 351.64 538.16 351.76 538.88C351.68 538.44 351.64 540.413 351.64 544.813C351.64 545.333 351.706 546.16 351.826 547.28C351.946 548.4 352.013 549.24 352.013 549.813Z" fill="#8F9295"/>
<path d="M406.467 589.507C406.467 588.32 404.64 583.027 400.973 573.627C397.427 564.507 394.933 558.52 393.467 555.68C385.04 577.173 380.826 588.427 380.826 589.44C380.826 590.827 382.373 591.64 385.467 591.88C385.627 591.92 387.627 591.947 391.453 591.947H397.733C403.56 591.947 406.467 591.133 406.467 589.507ZM434.92 623.2C434.92 623.693 434.427 623.933 433.453 623.933C432.68 623.933 431.547 623.88 430.067 623.747C428.587 623.627 427.453 623.573 426.68 623.573C425.906 623.573 424.747 623.627 423.2 623.747C421.653 623.88 420.493 623.933 419.72 623.933C418.573 623.933 417.12 620.853 415.346 614.68C413.586 608.52 411.786 605.4 409.946 605.32C408.44 605.227 404.52 605.187 398.16 605.187H388.52C381.8 605.187 377.973 605.227 377.04 605.32C375.573 605.44 374.013 608.573 372.373 614.72C370.72 620.867 369.453 623.933 368.56 623.933H354.813C354 623.933 353.6 623.653 353.6 623.08C353.6 622.68 353.88 621.76 354.453 620.333L369.413 579.427C370.666 576.133 374.493 566.627 380.893 550.92C382.026 548.307 383.573 544.387 385.533 539.133C386.013 537.587 386.547 536.813 387.12 536.813C387.893 536.813 389.027 536.907 390.533 537.12C392.04 537.32 393.173 537.427 393.946 537.427C394.68 537.427 395.8 537.307 397.28 537.08C398.76 536.867 399.853 536.747 400.546 536.747C400.906 536.747 401.427 537.507 402.067 539.013C403.053 541.293 407.88 553.56 416.546 575.827C428.8 607.12 434.92 622.92 434.92 623.2Z" fill="#8F9295"/>
<path d="M490.72 544.44C489.907 545.787 488.786 547.827 487.36 550.547C486.92 551.813 486.12 553.6 484.987 555.92C484.747 556.293 484.413 556.467 484.013 556.467C484.053 556.467 482.08 555.747 478.12 554.307C474.147 552.853 470.88 552.133 468.32 552.133C460.827 552.133 457.08 555.427 457.08 562.027C457.08 565.693 459.706 568.88 464.96 571.613C473.786 576.213 478.68 578.853 479.613 579.547C484.866 583.747 487.493 589.4 487.493 596.52C487.493 605.64 483.88 612.827 476.68 618.08C470.213 622.8 462.253 625.16 452.813 625.16C448.413 625.16 446.053 624.667 445.733 623.693C445.56 622.147 445.2 619.88 444.626 616.92C444.306 615.693 443.8 613.867 443.107 611.413C442.973 611.053 442.92 610.707 442.92 610.387C442.92 609.813 443.227 609.52 443.84 609.52C444.813 609.52 446.307 609.627 448.32 609.827C450.333 610.04 451.853 610.133 452.866 610.133C465.493 610.133 471.8 606.067 471.8 597.92C471.8 593.933 469.253 590.48 464.16 587.547C454.88 582.253 450.146 579.507 449.946 579.307C444.813 575.147 442.253 569.573 442.253 562.573C442.253 555 444.733 548.933 449.693 544.387C454.533 539.987 460.813 537.787 468.507 537.787C471.76 537.787 475.506 538.32 479.733 539.373C484.333 540.56 487.8 541.973 490.12 543.653C490.32 543.813 490.52 544.08 490.72 544.44Z" fill="#8F9295"/>
<path d="M565.333 561.293C565.333 563.613 561.706 569.76 554.466 579.733C549.666 585.96 544.88 592.187 540.12 598.413C538.933 599.96 538.346 601.547 538.346 603.173C538.346 605.373 538.453 608.667 538.68 613.04C538.906 617.413 539.013 620.68 539.013 622.84C539.013 623.573 538.506 623.933 537.493 623.933H522.96C522.146 623.933 521.746 623.347 521.746 622.16C521.746 620.093 521.88 616.933 522.173 612.707C522.453 608.467 522.6 605.293 522.6 603.173C522.6 601.347 522.08 599.72 521.066 598.293C518.133 594.507 513.76 588.813 507.946 581.2C502.973 574.4 499.4 569.227 497.2 565.693C496.466 564.467 496.093 563.293 496.093 562.147C496.013 557.013 495.973 549.613 495.973 539.92C495.973 538.827 496.466 538.28 497.44 538.28C498.133 538.28 499.16 538.333 500.52 538.453C501.893 538.587 502.92 538.64 503.613 538.64C504.426 538.64 505.64 538.587 507.266 538.453C508.893 538.333 510.133 538.28 511 538.28C511.733 538.28 512.093 538.6 512.093 539.253C512.093 541.533 511.973 544.947 511.733 549.507C511.48 554.067 511.36 557.493 511.36 559.773C511.36 562.213 517.813 570.8 530.72 585.533C533.773 582.067 537.266 577.773 541.213 572.653C546.706 565.573 549.453 561.32 549.453 559.893C549.453 557.693 549.293 554.36 548.973 549.907C548.64 545.453 548.48 542.12 548.48 539.92C548.48 538.827 548.946 538.28 549.893 538.28C550.613 538.28 551.733 538.333 553.24 538.453C554.746 538.587 555.866 538.64 556.6 538.64C557.373 538.64 558.546 538.587 560.106 538.453C561.68 538.333 562.853 538.28 563.626 538.28C564.6 538.28 565.093 538.947 565.093 540.293C565.093 542.613 565.133 546.107 565.213 550.787C565.293 555.467 565.333 558.973 565.333 561.293Z" fill="#8F9295"/>
<path d="M311.56 70.6266L311.533 69.8534C312.027 69.5334 312.347 68.9868 312.347 68.3735C312.347 67.3868 311.52 66.5868 310.493 66.5868C309.48 66.5868 308.653 67.3868 308.653 68.3735C308.653 68.9468 308.933 69.4668 309.36 69.7868L309.373 72.1201H309.36L309.48 118.92C309.48 119.627 310.213 120.187 311.133 120.187H311.16C312.08 120.173 312.827 119.587 312.813 118.88L312.347 92.1467L311.56 70.6266Z" fill="#8F9295"/>
<path d="M335.093 83.6134L336.133 88.96L331.12 86.5069L326.187 89.1202L327.054 83.7335L322.96 80.0002L328.507 79.1202L330.92 74.2002L333.48 79.0535L339.054 79.7468L335.093 83.6134ZM352.52 87.6403L352.507 87.4403V86.6934L352.467 82.6403V82.5736V81.8934L352.427 77.4002L352.36 70.9202L351.56 71.4801C349.933 72.6268 348.36 73.4269 346.76 73.9069C345.973 74.1469 345.16 74.3069 344.36 74.3869C342.467 74.5869 340.48 74.3868 338.12 73.7468C335.987 73.1734 333.733 72.3069 331.813 71.5202H331.8C330.787 71.1069 329.733 70.6668 328.627 70.2002L328.08 69.9736C327.24 69.6269 326.4 69.3334 325.574 69.0934L325.254 69.0002L324.6 68.8267V68.8403C322.72 68.4136 320.853 68.2803 319.027 68.4403V68.4267L318.48 68.4934L318.067 68.5468V68.56C317.293 68.68 316.534 68.8402 315.787 69.0668C314.24 69.5335 313.054 70.1467 312.24 70.6267L313.027 92.1468C313.773 91.6934 314.894 91.12 316.32 90.6934C317.16 90.44 318.027 90.2534 318.893 90.16C320.933 89.92 323.067 90.0802 325.2 90.6668C326.053 90.8935 326.933 91.2 327.8 91.56L328.387 91.8002C329.427 92.2402 330.414 92.6536 331.374 93.0403L331.627 93.1468L332.347 93.4403C334.027 94.1069 335.907 94.8135 337.76 95.3202L338.067 95.4134H338.08L338.72 95.5736C340.734 96.0536 342.52 96.2134 344.213 96.0934V96.1069L344.76 96.0535L345.187 96.0002V95.9869C345.894 95.8935 346.6 95.7335 347.293 95.5335C349 95.0135 350.667 94.1734 352.4 92.96L352.56 92.8535L352.52 87.6403Z" fill="#8F9295"/>
<path d="M310.907 249L191.493 289.36L194.747 301.187L310.907 261.933L427.053 301.187L430.307 289.36L310.907 249Z" fill="#8F9295"/>
<path d="M355.373 259.08V227.427H266.426V259.08L310.906 244.054L355.373 259.08Z" fill="#8F9295"/>
<path d="M365.773 327.347H396.066V367.2H365.773V327.347ZM365.773 321.133C365.773 311.867 372.56 304.347 380.92 304.347C389.293 304.347 396.066 311.867 396.066 321.133V323.493H365.773V321.133ZM396.307 443.547H365.88V442.68C365.88 433.36 372.693 425.813 381.093 425.813C389.493 425.813 396.307 433.36 396.307 442.68V443.547ZM343.84 409.32H277.973V400.147C277.973 379.987 292.72 363.64 310.907 363.64C329.093 363.64 343.84 379.987 343.84 400.147V409.32ZM255.92 443.547H225.493V442.68C225.493 433.36 232.307 425.813 240.707 425.813C249.107 425.813 255.92 433.36 255.92 442.68V443.547ZM225.493 327.347H255.786V367.2H225.493V327.347ZM225.493 321.133C225.493 311.867 232.28 304.347 240.64 304.347C249.013 304.347 255.786 311.867 255.786 321.133V323.493H225.493V321.133ZM200.933 302.693V488.307H225.493V447.68H255.92V488.307H277.973V414.267H343.84V488.307H365.88V447.68H396.307V488.307H420.866V302.693L310.907 265.573L200.933 302.693Z" fill="#8F9295"/>
<path d="M356.827 212.133V220.92H346.613V212.133H336.413V220.92H326.213V212.133H316V220.92H305.8V212.133H295.6V220.92H285.387V212.133H275.187V220.92H264.987V212.133H258.573V229.72H363.227V212.133H356.827Z" fill="#8F9295"/>
<path d="M310.906 100.413L266.426 205.094H355.373L310.906 100.413Z" fill="#8F9295"/>
<path d="M483.293 120.774L483.267 120C483.76 119.68 484.08 119.134 484.08 118.52C484.08 117.534 483.253 116.733 482.227 116.733C481.213 116.733 480.387 117.534 480.387 118.52C480.387 119.094 480.667 119.613 481.093 119.933L481.107 122.267H481.093L481.213 169.067C481.213 169.773 481.947 170.333 482.867 170.333H482.893C483.813 170.32 484.56 169.734 484.547 169.027L484.08 142.293L483.293 120.774Z" fill="#8F9295"/>
<path d="M506.826 133.76L507.866 139.107L502.853 136.653L497.92 139.267L498.786 133.88L494.693 130.147L500.24 129.267L502.653 124.347L505.213 129.2L510.786 129.893L506.826 133.76ZM524.253 137.773V137.587L524.24 136.84L524.2 132.787V132.72V132.04L524.16 127.547L524.093 121.067L523.306 121.627C521.666 122.773 520.093 123.573 518.493 124.053C517.706 124.28 516.906 124.453 516.093 124.533C514.2 124.733 512.213 124.52 509.853 123.893C507.72 123.32 505.466 122.453 503.546 121.667C502.52 121.253 501.466 120.813 500.36 120.347L499.813 120.12C498.973 119.773 498.133 119.48 497.306 119.24L496.986 119.147L496.333 118.973V118.987C494.453 118.56 492.586 118.427 490.76 118.587V118.573L490.213 118.64L489.8 118.693V118.707C489.026 118.827 488.266 118.987 487.52 119.213C485.986 119.68 484.786 120.28 483.973 120.773L484.76 142.293C485.506 141.84 486.626 141.267 488.053 140.84C488.893 140.587 489.76 140.413 490.626 140.307C492.68 140.053 494.8 140.227 496.933 140.813C497.8 141.04 498.666 141.347 499.533 141.707L500.12 141.947C501.16 142.387 502.146 142.8 503.106 143.187L503.36 143.293L504.08 143.587C505.76 144.253 507.64 144.96 509.493 145.467L509.8 145.56H509.813L510.453 145.72C512.48 146.2 514.253 146.36 515.946 146.24V146.253L516.493 146.187L516.92 146.147V146.133C517.626 146.04 518.333 145.88 519.026 145.68C520.733 145.16 522.413 144.32 524.133 143.107L524.293 143L524.253 137.773Z" fill="#8F9295"/>
<path d="M482.64 150.56L438.173 255.24H527.107L482.64 150.56Z" fill="#8F9295"/>
<path d="M467.56 367.2V326.88H497.72V367.2H467.56ZM482.64 303.96C490.973 303.96 497.72 311.44 497.72 320.667V323.493H467.56V320.667C467.56 311.44 474.307 303.96 482.64 303.96ZM528.56 262.28V271.067H518.346V262.28H508.146V271.067H497.946V262.28H487.733V271.067H477.533V262.28H467.333V271.067H457.12V262.28H446.92V271.067H436.72V262.28H430.307V279.867H438.173V309.227V488.307H527.107V309.227V279.867H534.96V262.28H528.56Z" fill="#8F9295"/>
<path d="M139.613 120.774L139.587 120C140.08 119.68 140.4 119.134 140.4 118.52C140.4 117.534 139.573 116.733 138.547 116.733C137.533 116.733 136.693 117.534 136.693 118.52C136.693 119.094 136.987 119.613 137.413 119.933L137.427 122.267C137.413 122.267 137.413 122.267 137.413 122.267L137.52 169.067C137.534 169.773 138.267 170.333 139.187 170.333H139.213C140.133 170.32 140.88 169.734 140.867 169.027L140.4 142.293L139.613 120.774Z" fill="#8F9295"/>
<path d="M163.147 133.76L164.187 139.107L159.173 136.653L154.24 139.267L155.093 133.88L151.013 130.147L156.56 129.267L158.96 124.347L161.533 129.2L167.107 129.893L163.147 133.76ZM180.56 137.773V136.84L180.52 132.787V132.04L180.467 127.547L180.413 121.067L179.613 121.627C177.987 122.773 176.413 123.573 174.813 124.053C174.027 124.28 173.213 124.453 172.413 124.533C170.52 124.733 168.533 124.52 166.173 123.893C164.04 123.32 161.787 122.453 159.867 121.667H159.853C158.84 121.253 157.787 120.813 156.68 120.347L156.133 120.12C155.293 119.773 154.453 119.48 153.613 119.24L153.307 119.147L152.653 118.973V118.987C150.773 118.56 148.893 118.427 147.08 118.587V118.573L146.52 118.64L146.107 118.693V118.707C145.347 118.827 144.587 118.987 143.84 119.213C142.293 119.68 141.107 120.28 140.293 120.773L141.08 142.293C141.827 141.84 142.947 141.267 144.373 140.84C145.213 140.587 146.067 140.413 146.947 140.307C148.987 140.053 151.12 140.227 153.253 140.813C154.107 141.04 154.987 141.347 155.853 141.707L156.44 141.947C157.48 142.387 158.467 142.8 159.427 143.187L159.68 143.293L160.4 143.587C162.08 144.253 163.96 144.96 165.8 145.467L166.12 145.56L166.773 145.72C168.787 146.2 170.56 146.36 172.267 146.24V146.253L172.813 146.187L173.227 146.147V146.133C173.947 146.04 174.653 145.88 175.347 145.68C177.053 145.16 178.72 144.32 180.453 143.107L180.613 143L180.56 137.773Z" fill="#8F9295"/>
<path d="M138.96 150.56L94.4797 255.24H183.426L138.96 150.56Z" fill="#8F9295"/>
<path d="M123.867 367.2V326.88H154.04V367.2H123.867ZM138.96 303.96C147.28 303.96 154.04 311.44 154.04 320.667V323.493H123.867V320.667C123.867 311.44 130.626 303.96 138.96 303.96ZM184.867 262.28V271.067H174.667V262.28H164.467V271.067H154.267V262.28H144.053V271.067H133.853V262.28H123.653V271.067H113.44V262.28H103.24V271.067H93.04V262.28H86.6265V279.867H94.4798V309.227V488.307H183.426V309.227V279.867H191.28V262.28H184.867Z" fill="#8F9295"/>
<rect x="-3447" y="524" width="4012" height="222" fill="white"/>
</g>
</svg>
