<svg width="619" height="619" viewBox="0 0 619 619" fill="none" xmlns="http://www.w3.org/2000/svg">
<mask id="mask0_3_276" style="mask-type:alpha" maskUnits="userSpaceOnUse" x="0" y="0" width="619" height="619">
<circle cx="309.5" cy="309.5" r="309.5" fill="#D9D9D9"/>
</mask>
<g mask="url(#mask0_3_276)">
<path d="M4201.67 1573H-65V-1627H4201.67V1573Z" fill="white"/>
<path d="M145.323 622.173C145.323 623.107 144.713 623.573 143.492 623.573C142.8 623.573 141.731 623.52 140.287 623.4C138.841 623.267 137.752 623.213 137.02 623.213C136.247 623.213 135.076 623.267 133.509 623.4C131.943 623.52 130.772 623.573 129.999 623.573C129.063 623.573 128.595 623.107 128.595 622.173C128.595 618.507 128.707 613.013 128.931 605.693C129.153 598.36 129.265 592.867 129.265 589.2C129.265 587.613 128.797 586.707 127.861 586.453C126.64 586.133 119.599 585.973 106.737 585.973C93.9146 585.973 86.8732 586.133 85.6119 586.453C84.7159 586.707 84.2679 587.613 84.2679 589.2C84.2679 592.787 84.3706 598.173 84.5733 605.387C84.7773 612.587 84.8786 617.987 84.8786 621.56C84.8786 622.907 84.3706 623.573 83.3533 623.573C82.5799 623.573 81.4199 623.52 79.8719 623.4C78.3253 623.267 77.1652 623.213 76.3919 623.213C75.6599 623.213 74.5706 623.267 73.1266 623.4C71.6812 623.52 70.5919 623.573 69.8599 623.573C68.8426 623.573 68.3333 623.107 68.3333 622.173C68.3333 617.693 68.5466 610.973 68.9746 602C69.4013 593.027 69.6159 586.293 69.6159 581.813C69.6159 577.093 69.4013 570 68.9746 560.533C68.5466 551.08 68.3333 543.987 68.3333 539.267C68.3333 538.36 68.8426 537.92 69.8599 537.92C70.5919 537.92 71.7119 537.973 73.2173 538.107C74.7239 538.227 75.8639 538.28 76.6373 538.28C77.3693 538.28 78.5093 538.227 80.0559 538.107C81.6026 537.973 82.7426 537.92 83.4746 537.92C84.4106 537.92 84.8786 538.28 84.8786 539.013C84.8786 542.52 84.7266 547.773 84.4213 554.8C84.1159 561.827 83.9626 567.08 83.9626 570.587C83.9626 571.72 84.3906 572.413 85.2452 572.653C86.2626 573.027 93.4266 573.213 106.737 573.213C119.761 573.213 126.885 573.027 128.105 572.653C129.043 572.413 129.511 571.533 129.511 570.027C129.511 566.613 129.399 561.467 129.175 554.587C128.951 547.707 128.839 542.56 128.839 539.133C128.839 538.32 129.307 537.92 130.243 537.92C131.016 537.92 132.145 537.973 133.631 538.107C135.117 538.227 136.247 538.28 137.02 538.28C137.752 538.28 138.852 538.227 140.317 538.107C141.783 537.973 142.881 537.92 143.613 537.92C144.672 537.92 145.201 538.36 145.201 539.267C145.201 543.987 144.997 551.08 144.591 560.533C144.184 570 143.98 577.093 143.98 581.813C143.98 586.293 144.204 593.027 144.652 602C145.1 610.973 145.323 617.693 145.323 622.173Z" fill="#8F9295"/>
<path d="M174.629 622.293C174.629 623.147 174.039 623.573 172.859 623.573C172.127 623.573 171.007 623.52 169.501 623.4C167.995 623.267 166.876 623.213 166.143 623.213C165.369 623.213 164.229 623.267 162.724 623.4C161.217 623.52 160.099 623.573 159.365 623.573C158.348 623.573 157.84 623.107 157.84 622.173C157.84 617.533 158.053 610.547 158.48 601.2C158.908 591.867 159.121 584.853 159.121 580.173C159.121 575.653 158.908 568.867 158.48 559.8C158.053 550.747 157.84 543.96 157.84 539.44C157.84 538.427 158.308 537.92 159.244 537.92C160.017 537.92 161.197 537.973 162.785 538.107C164.372 538.227 165.573 538.28 166.387 538.28C167.12 538.28 168.219 538.227 169.684 538.107C171.149 537.973 172.248 537.92 172.981 537.92C174.039 537.92 174.568 538.32 174.568 539.133C174.568 543.693 174.405 550.533 174.08 559.653C173.755 568.773 173.592 575.613 173.592 580.173C173.592 584.853 173.764 591.867 174.111 601.227C174.456 610.6 174.629 617.613 174.629 622.293Z" fill="#8F9295"/>
<path d="M236.356 544.08C235.541 545.427 234.423 547.467 232.997 550.187C232.551 551.453 231.756 553.24 230.616 555.56C230.372 555.933 230.047 556.107 229.64 556.107C229.68 556.107 227.716 555.387 223.748 553.947C219.78 552.507 216.513 551.773 213.949 551.773C206.459 551.773 202.715 555.08 202.715 561.667C202.715 565.333 205.34 568.533 210.591 571.253C219.423 575.853 224.308 578.493 225.244 579.187C230.495 583.387 233.12 589.04 233.12 596.16C233.12 605.28 229.517 612.467 222.313 617.72C215.841 622.44 207.884 624.8 198.441 624.8C194.045 624.8 191.684 624.307 191.359 623.333C191.196 621.787 190.829 619.533 190.26 616.56C189.933 615.333 189.425 613.507 188.733 611.067C188.611 610.693 188.549 610.347 188.549 610.027C188.549 609.453 188.855 609.173 189.465 609.173C190.443 609.173 191.939 609.267 193.953 609.48C195.968 609.68 197.484 609.773 198.501 609.773C211.12 609.773 217.429 605.707 217.429 597.573C217.429 593.573 214.885 590.12 209.797 587.187C200.516 581.893 195.775 579.147 195.571 578.947C190.443 574.8 187.879 569.213 187.879 562.213C187.879 554.653 190.361 548.587 195.327 544.027C200.171 539.627 206.439 537.427 214.132 537.427C217.388 537.427 221.133 537.96 225.365 539.013C229.965 540.2 233.425 541.627 235.745 543.293C235.949 543.453 236.152 543.72 236.356 544.08Z" fill="#8F9295"/>
<path d="M302.6 549.453C302.6 550.52 302.233 551.04 301.501 551.04C300.361 551.04 293.157 550.8 279.888 550.307C279.521 562.733 279.339 572.68 279.339 580.173C279.339 584.853 279.511 591.867 279.857 601.227C280.203 610.6 280.376 617.613 280.376 622.293C280.376 623.147 279.785 623.573 278.605 623.573C277.873 623.573 276.753 623.52 275.248 623.4C273.741 623.267 272.601 623.213 271.828 623.213C271.096 623.213 269.976 623.267 268.471 623.4C266.964 623.52 265.845 623.573 265.112 623.573C264.095 623.573 263.587 623.067 263.587 622.053C263.587 617.413 263.78 610.44 264.167 601.147C264.553 591.84 264.747 584.853 264.747 580.173C264.747 572.92 264.523 562.973 264.075 550.307C253.573 550.96 245.88 551.293 240.996 551.293C240.508 551.293 240.263 551.08 240.263 550.68C240.263 549.947 240.447 548.893 240.813 547.507C241.26 545.707 241.525 544.653 241.607 544.333C241.688 542.907 241.973 540.933 242.461 538.413C242.665 537.88 243.011 537.613 243.499 537.613L244.232 537.68C258.641 538.533 268.145 538.96 272.744 538.96C276.815 538.96 283.469 538.653 292.709 538.04C299.019 537.627 301.644 537.427 300.585 537.427C301.644 537.427 302.233 537.8 302.356 538.533C302.275 538.08 302.233 540.053 302.233 544.453C302.233 544.987 302.295 545.8 302.417 546.92C302.539 548.04 302.6 548.893 302.6 549.453Z" fill="#8F9295"/>
<path d="M375.927 580.533C375.927 572.56 373.444 565.613 368.479 559.72C363.268 553.44 356.735 550.307 348.88 550.307C341.105 550.307 334.633 553.493 329.464 559.84C324.58 565.773 322.137 572.733 322.137 580.72C322.137 588.653 324.58 595.6 329.464 601.533C334.633 607.893 341.105 611.067 348.88 611.067C356.776 611.067 363.329 607.893 368.539 601.533C373.464 595.6 375.927 588.6 375.927 580.533ZM390.641 580.72C390.641 592.8 386.775 603.2 379.04 611.92C370.981 620.947 360.968 625.467 349.001 625.467C336.995 625.467 326.981 620.973 318.963 611.973C311.229 603.307 307.363 592.893 307.363 580.72C307.363 568.667 311.269 558.267 319.085 549.52C327.144 540.44 337.116 535.907 349.001 535.907C360.928 535.907 370.92 540.44 378.98 549.52C386.753 558.227 390.641 568.627 390.641 580.72Z" fill="#8F9295"/>
<path d="M449.925 567.707C449.925 560.347 447.808 555.427 443.575 552.933C440.441 551.107 434.804 550.187 426.663 550.187C420.069 550.187 416.711 550.72 416.589 551.773C416.304 553.973 416.161 559.853 416.161 569.427V581.08C416.284 581.16 416.548 581.253 416.956 581.333C417.688 581.413 418.889 581.507 420.557 581.64C424.424 581.84 428.596 581.933 433.073 581.933C444.308 581.933 449.925 577.2 449.925 567.707ZM466.653 623.093C466.653 623.413 466.328 623.573 465.677 623.573C464.904 623.573 463.723 623.52 462.136 623.4C460.548 623.267 459.368 623.213 458.595 623.213C457.74 623.213 456.468 623.267 454.779 623.4C453.089 623.52 451.817 623.573 450.963 623.573C450.027 623.573 449.315 623.067 448.825 622.053C447.524 619.28 443.82 610.72 437.713 596.347C437.104 594.88 435.617 593.987 433.257 593.667C432.728 593.627 430.876 593.6 427.701 593.6C422.084 593.6 418.747 593.68 417.688 593.84C416.833 593.96 416.405 595 416.405 596.96C416.405 599.813 416.539 604.067 416.803 609.747C417.068 615.427 417.2 619.667 417.2 622.48C417.2 623.333 416.792 623.76 415.979 623.76C415.164 623.76 413.933 623.667 412.285 623.48C410.636 623.307 409.384 623.213 408.529 623.213C407.837 623.213 406.78 623.267 405.355 623.4C403.931 623.52 402.872 623.573 402.18 623.573C401.163 623.573 400.653 623.107 400.653 622.173C400.653 617.653 400.868 610.867 401.295 601.813C401.723 592.76 401.936 585.973 401.936 581.453C401.936 568.587 401.468 554.867 400.532 540.293L400.471 539.32C400.429 538.507 401.285 538.107 403.035 538.107C406.536 538.107 411.776 538.013 418.756 537.827C425.737 537.64 430.957 537.547 434.417 537.547C443.453 537.547 450.699 539.707 456.152 544.027C462.176 548.787 465.188 555.547 465.188 564.293C465.188 570.32 464.375 575.053 462.747 578.52C461.037 582.187 457.863 585.667 453.221 588.96C452.448 589.493 452.061 590 452.061 590.48C452.061 591.053 454.493 596.467 459.357 606.733C464.221 616.987 466.653 622.44 466.653 623.093Z" fill="#8F9295"/>
<path d="M540.103 560.933C540.103 563.253 536.48 569.4 529.235 579.373C524.432 585.6 519.649 591.827 514.887 598.053C513.707 599.6 513.116 601.187 513.116 602.813C513.116 605.013 513.228 608.307 513.452 612.68C513.676 617.053 513.788 620.32 513.788 622.48C513.788 623.213 513.279 623.573 512.261 623.573H497.731C496.917 623.573 496.509 622.987 496.509 621.813C496.509 619.733 496.652 616.573 496.937 612.347C497.221 608.107 497.364 604.933 497.364 602.813C497.364 600.987 496.856 599.36 495.839 597.933C492.908 594.147 488.532 588.453 482.711 580.84C477.745 574.04 474.164 568.867 471.965 565.333C471.233 564.107 470.867 562.933 470.867 561.787C470.785 556.667 470.744 549.253 470.744 539.573C470.744 538.467 471.233 537.92 472.209 537.92C472.901 537.92 473.929 537.973 475.293 538.107C476.657 538.227 477.684 538.28 478.376 538.28C479.191 538.28 480.412 538.227 482.04 538.107C483.668 537.973 484.909 537.92 485.764 537.92C486.496 537.92 486.863 538.24 486.863 538.893C486.863 541.173 486.741 544.6 486.496 549.147C486.252 553.707 486.131 557.133 486.131 559.413C486.131 561.853 492.581 570.44 505.484 585.173C508.537 581.72 512.037 577.427 515.987 572.293C521.481 565.213 524.228 560.96 524.228 559.533C524.228 557.333 524.065 554 523.74 549.547C523.415 545.093 523.252 541.76 523.252 539.573C523.252 538.467 523.72 537.92 524.656 537.92C525.388 537.92 526.508 537.973 528.013 538.107C529.52 538.227 530.639 538.28 531.372 538.28C532.145 538.28 533.316 538.227 534.883 538.107C536.449 537.973 537.62 537.92 538.393 537.92C539.369 537.92 539.859 538.587 539.859 539.933C539.859 542.253 539.899 545.76 539.98 550.44C540.061 555.12 540.103 558.613 540.103 560.933Z" fill="#8F9295"/>
<path d="M304.631 251.707V146.893C285.996 156.787 242.696 171.533 183.388 140.147L177.28 245.8C177.167 247.76 177.119 249.733 177.123 251.707H304.631Z" fill="#8F9295"/>
<path d="M233.431 444.787L209.453 420.813L479.285 150.973C486.045 144.213 491.797 136.48 496.456 127.88L509.996 102.893C511.213 100.654 509.876 96.9601 506.795 94.6401C504.608 92.9868 502.088 92.6401 500.413 93.5468L475.593 107C466.988 111.667 459.245 117.427 452.479 124.187L182.656 394.013L158.679 370.04C155.173 366.533 150.195 365.827 147.557 368.467L145.721 370.293C143.084 372.933 143.788 377.92 147.293 381.413L173.131 407.253L114.867 472.64C109.747 471.187 104.677 471.987 101.363 475.307C95.7946 480.867 97.2813 491.387 104.681 498.787C112.081 506.187 122.593 507.667 128.16 502.107C131.475 498.787 132.271 493.72 130.824 488.6L196.207 430.333L222.044 456.173C225.549 459.68 230.529 460.373 233.165 457.747L235.003 455.907C237.639 453.267 236.935 448.293 233.431 444.787Z" fill="#8F9295"/>
<path d="M323.825 319.013V493.6C410.22 431.067 441.129 311.48 449.359 271.12C449.373 271.04 449.385 270.973 449.4 270.893H371.947L323.825 319.013Z" fill="#8F9295"/>
<path d="M205.739 358.347L293.184 270.893H179.057C179.072 270.973 179.084 271.04 179.099 271.12C182.704 288.8 190.665 321.707 205.739 358.347Z" fill="#8F9295"/>
<path d="M231.829 411.013C250.021 441.68 273.788 471.28 304.631 493.6V338.213L231.829 411.013Z" fill="#8F9295"/>
<path d="M448.219 194.627L391.141 251.707H451.333C451.339 249.733 451.291 247.76 451.176 245.8L448.219 194.627Z" fill="#8F9295"/>
<path d="M409.772 154.307C368.604 165.507 338.531 154.693 323.825 146.893V240.253L409.772 154.307Z" fill="#8F9295"/>
<rect x="68" y="509" width="4012" height="222" fill="white"/>
</g>
</svg>
