<svg width="619" height="619" viewBox="0 0 619 619" fill="none" xmlns="http://www.w3.org/2000/svg">
<mask id="mask0_3_276" style="mask-type:alpha" maskUnits="userSpaceOnUse" x="0" y="0" width="619" height="619">
<circle cx="309.5" cy="309.5" r="309.5" fill="#D9D9D9"/>
</mask>
<g mask="url(#mask0_3_276)">
<path d="M3336.67 1534H-930V-1666H3336.67V1534Z" fill="white"/>
<path d="M143.507 583.173C143.507 584.107 142.896 584.573 141.676 584.573C140.984 584.573 139.915 584.52 138.471 584.4C137.025 584.267 135.936 584.213 135.204 584.213C134.431 584.213 133.26 584.267 131.693 584.4C130.127 584.52 128.956 584.573 128.183 584.573C127.247 584.573 126.779 584.107 126.779 583.173C126.779 579.507 126.891 574.013 127.115 566.693C127.337 559.36 127.449 553.867 127.449 550.2C127.449 548.613 126.981 547.707 126.045 547.453C124.824 547.133 117.783 546.973 104.92 546.973C92.0987 546.973 85.0574 547.133 83.796 547.453C82.9 547.707 82.452 548.613 82.452 550.2C82.452 553.787 82.5547 559.173 82.7574 566.387C82.9614 573.587 83.0627 578.987 83.0627 582.56C83.0627 583.907 82.5547 584.573 81.5373 584.573C80.764 584.573 79.604 584.52 78.056 584.4C76.5093 584.267 75.3493 584.213 74.576 584.213C73.844 584.213 72.7547 584.267 71.3107 584.4C69.8654 584.52 68.776 584.573 68.044 584.573C67.0267 584.573 66.5173 584.107 66.5173 583.173C66.5173 578.693 66.7307 571.973 67.1587 563C67.5853 554.027 67.8 547.293 67.8 542.813C67.8 538.093 67.5853 531 67.1587 521.533C66.7307 512.08 66.5173 504.987 66.5173 500.267C66.5173 499.373 67.0267 498.92 68.044 498.92C68.776 498.92 69.896 498.973 71.4013 499.107C72.908 499.227 74.048 499.28 74.8214 499.28C75.5534 499.28 76.6933 499.227 78.24 499.107C79.7867 498.973 80.9267 498.92 81.6587 498.92C82.5947 498.92 83.0627 499.28 83.0627 500.013C83.0627 503.52 82.9107 508.773 82.6054 515.8C82.3 522.827 82.1467 528.08 82.1467 531.587C82.1467 532.72 82.5747 533.413 83.4294 533.653C84.4467 534.027 91.6107 534.213 104.92 534.213C117.945 534.213 125.069 534.027 126.289 533.653C127.225 533.413 127.695 532.533 127.695 531.027C127.695 527.613 127.583 522.467 127.359 515.587C127.135 508.707 127.023 503.56 127.023 500.133C127.023 499.32 127.491 498.92 128.427 498.92C129.2 498.92 130.329 498.973 131.815 499.107C133.301 499.227 134.431 499.28 135.204 499.28C135.936 499.28 137.036 499.227 138.501 499.107C139.967 498.973 141.065 498.92 141.797 498.92C142.856 498.92 143.385 499.373 143.385 500.267C143.385 504.987 143.181 512.08 142.775 521.533C142.368 531 142.164 538.093 142.164 542.813C142.164 547.293 142.388 554.027 142.836 563C143.284 571.973 143.507 578.693 143.507 583.173Z" fill="#8F9295"/>
<path d="M221.963 541.533C221.963 533.56 219.48 526.613 214.513 520.72C209.304 514.453 202.771 511.307 194.915 511.307C187.141 511.307 180.669 514.493 175.5 520.84C170.616 526.787 168.173 533.747 168.173 541.72C168.173 549.653 170.616 556.6 175.5 562.533C180.669 568.893 187.141 572.067 194.915 572.067C202.812 572.067 209.365 568.893 214.575 562.533C219.5 556.6 221.963 549.6 221.963 541.533ZM236.676 541.72C236.676 553.8 232.809 564.213 225.076 572.92C217.017 581.947 207.004 586.467 195.037 586.467C183.029 586.467 173.017 581.973 164.999 572.973C157.265 564.307 153.399 553.893 153.399 541.72C153.399 529.667 157.305 519.267 165.12 510.52C173.18 501.44 183.152 496.907 195.037 496.907C206.964 496.907 216.956 501.44 225.015 510.52C232.789 519.227 236.676 529.627 236.676 541.72Z" fill="#8F9295"/>
<path d="M295.961 528.707C295.961 521.347 293.844 516.427 289.611 513.933C286.477 512.107 280.84 511.187 272.699 511.187C266.105 511.187 262.747 511.72 262.625 512.773C262.34 514.973 262.197 520.853 262.197 530.427V542.08C262.32 542.16 262.584 542.253 262.991 542.333C263.724 542.413 264.924 542.507 266.593 542.64C270.46 542.84 274.632 542.933 279.109 542.933C290.344 542.933 295.961 538.2 295.961 528.707ZM312.689 584.093C312.689 584.413 312.364 584.573 311.713 584.573C310.94 584.573 309.759 584.52 308.172 584.4C306.584 584.267 305.404 584.213 304.631 584.213C303.776 584.213 302.504 584.267 300.815 584.4C299.125 584.52 297.853 584.573 296.999 584.573C296.063 584.573 295.351 584.067 294.861 583.053C293.559 580.28 289.855 571.72 283.749 557.347C283.139 555.88 281.653 554.987 279.293 554.667C278.764 554.627 276.912 554.6 273.737 554.6C268.12 554.6 264.783 554.68 263.724 554.84C262.869 554.96 262.441 556 262.441 557.96C262.441 560.813 262.573 565.067 262.839 570.747C263.103 576.427 263.236 580.667 263.236 583.48C263.236 584.333 262.828 584.76 262.015 584.76C261.2 584.76 259.969 584.667 258.32 584.48C256.672 584.307 255.42 584.213 254.565 584.213C253.873 584.213 252.816 584.267 251.391 584.4C249.967 584.52 248.908 584.573 248.216 584.573C247.199 584.573 246.689 584.107 246.689 583.173C246.689 578.653 246.903 571.867 247.331 562.813C247.759 553.76 247.972 546.973 247.972 542.453C247.972 529.587 247.504 515.867 246.568 501.293L246.507 500.32C246.465 499.507 247.32 499.107 249.071 499.107C252.571 499.107 257.812 499.013 264.792 498.827C271.773 498.64 276.993 498.547 280.453 498.547C289.489 498.547 296.735 500.707 302.188 505.027C308.212 509.787 311.224 516.547 311.224 525.293C311.224 531.32 310.411 536.067 308.783 539.52C307.073 543.187 303.897 546.667 299.257 549.96C298.484 550.493 298.097 551 298.097 551.48C298.097 552.053 300.529 557.467 305.393 567.733C310.257 577.987 312.689 583.44 312.689 584.093Z" fill="#8F9295"/>
<path d="M370.264 528.707C370.264 521.347 368.148 516.427 363.915 513.933C360.78 512.107 355.143 511.187 347.003 511.187C340.408 511.187 337.051 511.72 336.928 512.773C336.644 514.973 336.501 520.853 336.501 530.427V542.08C336.623 542.16 336.888 542.253 337.295 542.333C338.028 542.413 339.228 542.507 340.897 542.64C344.764 542.84 348.936 542.933 353.413 542.933C364.647 542.933 370.264 538.2 370.264 528.707ZM386.993 584.093C386.993 584.413 386.668 584.573 386.016 584.573C385.243 584.573 384.063 584.52 382.475 584.4C380.888 584.267 379.708 584.213 378.935 584.213C378.079 584.213 376.807 584.267 375.119 584.4C373.429 584.52 372.157 584.573 371.303 584.573C370.365 584.573 369.653 584.067 369.165 583.053C367.863 580.28 364.159 571.72 358.053 557.347C357.443 555.88 355.957 554.987 353.596 554.667C353.067 554.627 351.215 554.6 348.04 554.6C342.423 554.6 339.085 554.68 338.028 554.84C337.172 554.96 336.745 556 336.745 557.96C336.745 560.813 336.877 565.067 337.143 570.747C337.407 576.427 337.539 580.667 337.539 583.48C337.539 584.333 337.132 584.76 336.317 584.76C335.504 584.76 334.272 584.667 332.624 584.48C330.976 584.307 329.724 584.213 328.869 584.213C328.177 584.213 327.119 584.267 325.695 584.4C324.269 584.52 323.212 584.573 322.52 584.573C321.501 584.573 320.993 584.107 320.993 583.173C320.993 578.653 321.207 571.867 321.635 562.813C322.061 553.76 322.275 546.973 322.275 542.453C322.275 529.587 321.807 515.867 320.871 501.293L320.809 500.32C320.769 499.507 321.624 499.107 323.375 499.107C326.875 499.107 332.115 499.013 339.096 498.827C346.076 498.64 351.296 498.547 354.756 498.547C363.792 498.547 371.037 500.707 376.492 505.027C382.516 509.787 385.528 516.547 385.528 525.293C385.528 531.32 384.713 536.067 383.085 539.52C381.376 543.187 378.201 546.667 373.561 549.96C372.788 550.493 372.401 551 372.401 551.48C372.401 552.053 374.833 557.467 379.697 567.733C384.561 577.987 386.993 583.44 386.993 584.093Z" fill="#8F9295"/>
<path d="M461.24 541.533C461.24 533.56 458.747 526.613 453.787 520.72C448.573 514.453 442.04 511.307 434.187 511.307C426.413 511.307 419.947 514.493 414.773 520.84C409.893 526.787 407.44 533.747 407.44 541.72C407.44 549.653 409.893 556.6 414.773 562.533C419.947 568.893 426.413 572.067 434.187 572.067C442.08 572.067 448.64 568.893 453.853 562.533C458.773 556.6 461.24 549.6 461.24 541.533ZM475.947 541.72C475.947 553.8 472.08 564.213 464.347 572.92C456.293 581.947 446.28 586.467 434.307 586.467C422.307 586.467 412.293 581.973 404.267 572.973C396.539 564.307 392.671 553.893 392.671 541.72C392.671 529.667 396.579 519.267 404.4 510.52C412.453 501.44 422.427 496.907 434.307 496.907C446.24 496.907 456.227 501.44 464.293 510.52C472.067 519.227 475.947 529.627 475.947 541.72Z" fill="#8F9295"/>
<path d="M535.24 528.707C535.24 521.347 533.12 516.427 528.88 513.933C525.747 512.107 520.107 511.187 511.973 511.187C505.373 511.187 502.027 511.72 501.893 512.773C501.613 514.973 501.467 520.853 501.467 530.427V542.08C501.587 542.16 501.853 542.253 502.267 542.333C503 542.413 504.2 542.507 505.867 542.64C509.733 542.84 513.907 542.933 518.387 542.933C529.613 542.933 535.24 538.2 535.24 528.707ZM551.96 584.093C551.96 584.413 551.64 584.573 550.987 584.573C550.213 584.573 549.027 584.52 547.44 584.4C545.853 584.267 544.68 584.213 543.907 584.213C543.053 584.213 541.773 584.267 540.093 584.4C538.4 584.52 537.12 584.573 536.267 584.573C535.333 584.573 534.627 584.067 534.133 583.053C532.827 580.28 529.133 571.72 523.027 557.347C522.413 555.88 520.933 554.987 518.56 554.667C518.04 554.627 516.187 554.6 513.013 554.6C507.387 554.6 504.053 554.68 503 554.84C502.147 554.96 501.72 556 501.72 557.96C501.72 560.813 501.853 565.067 502.107 570.747C502.373 576.427 502.507 580.667 502.507 583.48C502.507 584.333 502.107 584.76 501.293 584.76C500.48 584.76 499.24 584.667 497.6 584.48C495.947 584.307 494.693 584.213 493.84 584.213C493.147 584.213 492.093 584.267 490.667 584.4C489.24 584.52 488.187 584.573 487.493 584.573C486.467 584.573 485.96 584.107 485.96 583.173C485.96 578.653 486.173 571.867 486.6 562.813C487.027 553.76 487.24 546.973 487.24 542.453C487.24 529.587 486.773 515.867 485.84 501.293L485.773 500.32C485.733 499.507 486.6 499.107 488.347 499.107C491.84 499.107 497.08 499.013 504.067 498.827C511.04 498.64 516.267 498.547 519.72 498.547C528.76 498.547 536.013 500.707 541.467 505.027C547.48 509.787 550.493 516.547 550.493 525.293C550.493 531.32 549.68 536.067 548.053 539.52C546.347 543.187 543.173 546.667 538.533 549.96C537.76 550.493 537.373 551 537.373 551.48C537.373 552.053 539.8 557.467 544.667 567.733C549.533 577.987 551.96 583.44 551.96 584.093Z" fill="#8F9295"/>
<path d="M327.439 227.987C325.62 228.507 323.651 227.64 323.107 226.067L320.707 219.187C320.247 217.867 318.751 217 317.139 217.133L306.372 218.027C304.848 218.147 303.613 219.133 303.363 220.413L302.179 226.454C301.907 227.84 300.496 228.854 298.844 228.854H288.964C287.096 228.854 285.583 227.56 285.583 225.973V219.173C285.583 217.653 284.195 216.387 282.412 216.293L271.981 215.747C270.252 215.653 268.72 216.68 268.436 218.133L266.881 226.067C266.579 227.613 264.877 228.667 263.055 228.44L248.863 226.667C248.701 226.653 248.551 226.627 248.395 226.587C245.427 225.827 217.732 217.427 222.861 167.787C223.016 166.294 224.471 165.133 226.233 165.133H229.664C231.531 165.133 233.045 166.427 233.045 168.013V172.44C233.045 174.027 234.559 175.32 236.425 175.32H243.205C244.849 175.32 246.255 174.307 246.536 172.933L247.507 168.187C247.843 166.534 249.752 165.48 251.657 165.88L255.972 166.8C257.477 167.12 258.533 168.28 258.533 169.6V177.307C258.533 178.893 260.047 180.187 261.915 180.187H272.915C274.285 180.187 275.52 179.48 276.041 178.4L277.959 174.44C278.48 173.36 279.715 172.654 281.084 172.654H287.924C289.791 172.654 291.304 173.947 291.304 175.533V178.627C291.304 180.227 292.819 181.507 294.685 181.507H300.928C302.795 181.507 304.309 180.227 304.309 178.627V173.454C304.309 171.987 305.596 170.76 307.303 170.6L314.507 169.893C316.331 169.707 317.98 170.8 318.243 172.347C318.684 174.947 319.457 178.413 320.435 178.413C321.499 178.413 327.159 177.587 330.652 177.067C332.268 176.827 333.439 175.627 333.439 174.227V168.013C333.439 166.427 334.952 165.133 336.82 165.133H340.58C341.929 165.133 343.148 165.813 343.684 166.867L346.081 171.587C346.617 172.64 347.836 173.32 349.185 173.32H352.867C354.552 173.32 355.98 172.267 356.215 170.84L357.479 163.187C357.713 161.774 359.141 160.707 360.827 160.707H363.728C365.472 160.707 366.925 161.827 367.093 163.307C368.329 174.173 370.157 215.92 327.439 227.987ZM247.275 112.72C253.639 97.4802 265.353 87.8668 273.44 91.2401C281.525 94.6134 282.92 109.707 276.555 124.947C270.189 140.2 258.475 149.813 250.389 146.44C242.304 143.067 240.909 127.974 247.275 112.72ZM311.22 90.6401C319.479 87.7201 330.648 97.9601 336.168 113.533C341.688 129.107 339.468 144.107 331.209 147.027C322.951 149.96 311.781 139.707 306.261 124.133C300.741 108.573 302.961 93.5735 311.22 90.6401ZM556.04 373.067C522.813 345.373 401.899 203.227 390.821 148.773C379.745 94.3201 356.671 50.1602 292.981 50.1602C292.981 50.1602 216.371 46.3201 184.988 152.467C184.988 152.467 168.401 200.573 168.245 222.093C168.211 226.813 167.823 231.52 166.913 236.16C163.711 252.467 153.581 284.093 121.805 308.307C120.975 308.933 120.127 309.547 119.269 310.133C108.063 317.947 16.2373 384.347 47.4586 445.067C47.4586 445.067 53.0079 437.4 60.8559 430.773C58.3839 416.813 62.1253 398.24 95.56 387.44C152.428 369.08 137.027 326.867 137.027 326.867C137.027 326.867 161.313 380.333 103.261 408.173C94.7106 412.28 90.5199 417.52 89.5839 423.48C94.5853 426.373 99.2466 432.36 103.02 442.893C103.943 445.467 105.285 447.893 107.103 449.947C113.569 457.227 130.405 467.893 165.932 445.733C166.577 445.333 167.196 444.893 167.793 444.427C172.351 440.853 195.785 423.787 218.704 431.4C235.791 409.12 252.996 375.987 249.6 335.227C249.6 335.227 262.243 406.893 244.233 452.453C259.1 467.733 272.232 463.36 281.109 456.2C287.665 450.92 292.301 443.64 294.617 435.547C296.976 427.293 302.085 413.907 311.191 409.467C301.125 375.347 293.953 335.307 299.443 299.227C299.443 299.227 305.181 355.467 320.737 408.333C328.501 409.933 338.201 417.4 350.209 434.907C390.168 493.187 387.331 441.84 386.389 431.2C386.083 427.733 386.157 424.24 386.724 420.8C388.492 410.12 395.636 395.227 423.453 412.587C403.373 391.28 386.441 363.32 378.823 326.867C378.823 326.867 433.453 425.107 511 439.533C522.507 421.453 549.293 421.387 560.053 440.28C560.253 440.64 560.453 441 560.653 441.373C578.2 473.68 589.267 400.76 556.04 373.067Z" fill="#8F9295"/>
<rect x="-797" y="470" width="4012" height="222" fill="white"/>
</g>
</svg>
