<svg width="619" height="619" viewBox="0 0 619 619" fill="none" xmlns="http://www.w3.org/2000/svg">
<mask id="mask0_3_276" style="mask-type:alpha" maskUnits="userSpaceOnUse" x="0" y="0" width="619" height="619">
<circle cx="309.5" cy="309.5" r="309.5" fill="#D9D9D9"/>
</mask>
<g mask="url(#mask0_3_276)">
<path d="M2481.67 1563H-1785V-1637H2481.67V1563Z" fill="white"/>
<path d="M168.387 612.173C168.387 613.187 167.88 613.707 166.867 613.707C166.133 613.707 165.027 613.64 163.533 613.52C162.053 613.4 160.947 613.333 160.213 613.333C159.48 613.333 158.36 613.4 156.853 613.52C155.347 613.64 154.227 613.707 153.493 613.707C152.48 613.707 151.96 613.027 151.96 611.68C151.96 606.52 152.133 598.76 152.453 588.427C152.773 578.08 152.947 570.333 152.947 565.16C152.947 564.387 152.773 564 152.453 564C152.093 564 151.8 564.227 151.6 564.667C149.52 569.107 144.613 580.96 136.88 600.213C135.627 603.907 133.813 608.533 131.453 614.067C131.173 614.6 129.707 614.867 127.053 614.867C123.227 614.867 121.107 614.52 120.707 613.827C119.32 610.52 117.347 605.907 114.787 599.96C111.4 591.907 106.213 579.893 99.2132 563.947C99.0932 563.653 98.8266 563.373 98.4266 563.08C98.0933 563.333 97.9332 563.773 97.9332 564.427C97.9332 569.68 98.0265 577.56 98.2132 588.053C98.3865 598.56 98.4798 606.44 98.4798 611.68C98.4798 613.027 97.9733 613.707 96.9599 613.707C96.2666 613.707 95.1999 613.64 93.7866 613.52C92.3599 613.4 91.2932 613.333 90.5999 613.333C89.8799 613.333 88.7866 613.4 87.3332 613.52C85.8932 613.64 84.7999 613.707 84.0666 613.707C83.0532 613.707 82.5465 613.307 82.5465 612.547C82.5465 608.027 82.7599 601.253 83.1866 592.24C83.6133 583.227 83.8266 576.453 83.8266 571.933C83.8266 567.253 83.6133 560.227 83.1866 550.84C82.7599 541.467 82.5465 534.427 82.5465 529.747C82.5465 528.973 83.0132 528.533 83.9465 528.413C89.4798 527.68 93.6532 527.307 96.4666 527.307C96.8799 527.307 97.4399 528.147 98.1732 529.813C108.027 551.467 116.493 570.8 123.573 587.813C125.24 591.8 126.24 593.8 126.573 593.8C126.973 593.8 127.853 592.173 129.187 588.907C134.733 575.72 142.4 556.147 152.213 530.173C152.827 528.587 153.493 527.8 154.227 527.8C155.613 527.8 157.693 527.88 160.48 528.04C163.267 528.2 165.36 528.28 166.747 528.28C167.76 528.28 168.267 528.773 168.267 529.747C168.267 534.427 168.12 541.467 167.813 550.84C167.507 560.227 167.347 567.253 167.347 571.933C167.347 576.413 167.52 583.133 167.867 592.093C168.213 601.04 168.387 607.733 168.387 612.173Z" fill="#8F9295"/>
<path d="M251.307 529.387C251.307 534.107 251.107 541.173 250.72 550.6C250.333 560.027 250.147 567.093 250.147 571.813C250.147 573.36 250.16 575.667 250.2 578.747C250.24 581.813 250.267 584.107 250.267 585.613C250.267 594.12 249.467 600.027 247.88 603.32C245.44 608.373 240.693 611.787 233.653 613.573C229.347 614.68 223.253 615.227 215.4 615.227C201.16 615.227 191.813 612.867 187.373 608.147C183.96 604.48 182.253 597.16 182.253 586.16C182.253 584.827 182.267 582.547 182.307 579.36C182.347 576.16 182.373 573.653 182.373 571.813C182.373 567.013 182.173 558.16 181.76 545.253C181.76 541.92 181.573 536.933 181.213 530.293C181.173 529.813 181.147 529.48 181.147 529.32C181.147 528.467 181.68 528.04 182.733 528.04C184.4 528.04 186.667 528.067 189.52 528.107C192.813 528.147 195.053 528.16 196.227 528.16C197.173 528.16 197.64 528.533 197.64 529.267C197.64 535.453 197.507 544.747 197.24 557.16C196.973 569.573 196.84 578.88 196.84 585.067C196.84 592.067 198.413 596.813 201.547 599.293C204.227 601.493 209.173 602.587 216.373 602.587C222.933 602.587 227.587 601.693 230.36 599.907C233.867 597.667 235.613 593.467 235.613 587.32C235.613 580.893 235.507 571.24 235.307 558.36C235.107 545.467 235 535.813 235 529.387C235 528.733 235.587 528.32 236.773 528.16C237.627 528.04 238.853 528.04 240.44 528.16C242.307 528.32 243.2 528.413 243.12 528.413C243.853 528.413 244.96 528.347 246.453 528.227C247.933 528.107 249.04 528.04 249.773 528.04C250.787 528.04 251.307 528.493 251.307 529.387Z" fill="#8F9295"/>
<path d="M312.787 534.213C311.973 535.547 310.853 537.587 309.427 540.307C308.973 541.573 308.187 543.36 307.04 545.68C306.8 546.053 306.48 546.24 306.067 546.24C306.107 546.24 304.147 545.507 300.173 544.067C296.213 542.627 292.947 541.893 290.373 541.893C282.893 541.893 279.147 545.2 279.147 551.787C279.147 555.453 281.773 558.653 287.013 561.373C295.853 565.973 300.733 568.627 301.667 569.307C306.92 573.507 309.547 579.16 309.547 586.28C309.547 595.4 305.947 602.587 298.747 607.84C292.267 612.56 284.307 614.92 274.867 614.92C270.467 614.92 268.107 614.427 267.787 613.453C267.627 611.907 267.253 609.653 266.693 606.68C266.36 605.453 265.853 603.627 265.16 601.187C265.04 600.813 264.973 600.467 264.973 600.147C264.973 599.573 265.28 599.293 265.893 599.293C266.867 599.293 268.373 599.387 270.387 599.6C272.4 599.8 273.907 599.907 274.933 599.907C287.547 599.907 293.853 595.827 293.853 587.693C293.853 583.707 291.307 580.24 286.227 577.307C276.947 572.027 272.2 569.267 272 569.067C266.867 564.92 264.307 559.347 264.307 552.347C264.307 544.773 266.787 538.707 271.76 534.147C276.6 529.747 282.867 527.547 290.56 527.547C293.813 527.547 297.56 528.08 301.8 529.133C306.4 530.32 309.853 531.747 312.173 533.413C312.373 533.573 312.587 533.84 312.787 534.213Z" fill="#8F9295"/>
<path d="M339.04 612.413C339.04 613.267 338.453 613.707 337.267 613.707C336.533 613.707 335.413 613.64 333.907 613.52C332.4 613.4 331.28 613.333 330.547 613.333C329.773 613.333 328.64 613.4 327.133 613.52C325.627 613.64 324.507 613.707 323.773 613.707C322.76 613.707 322.253 613.227 322.253 612.293C322.253 607.653 322.467 600.667 322.893 591.32C323.32 581.987 323.533 574.973 323.533 570.293C323.533 565.773 323.32 558.987 322.893 549.933C322.467 540.867 322.253 534.08 322.253 529.573C322.253 528.547 322.72 528.04 323.653 528.04C324.427 528.04 325.6 528.107 327.187 528.227C328.787 528.347 329.987 528.413 330.8 528.413C331.533 528.413 332.627 528.347 334.093 528.227C335.56 528.107 336.653 528.04 337.387 528.04C338.453 528.04 338.973 528.453 338.973 529.267C338.973 533.827 338.813 540.653 338.493 549.773C338.16 558.893 338 565.733 338 570.293C338 574.973 338.173 581.987 338.52 591.36C338.867 600.72 339.04 607.733 339.04 612.413Z" fill="#8F9295"/>
<path d="M419.2 599.6C419.2 600.08 418.813 600.773 418.04 601.667C410.107 610.867 400.28 615.467 388.546 615.467C376.346 615.467 366.573 611.013 359.24 602.093C352.413 593.8 348.987 583.413 348.987 570.96C348.987 558.507 352.467 548.08 359.427 539.707C366.84 530.667 376.627 526.147 388.8 526.147C401.133 526.147 410.68 530.32 417.426 538.667C418.08 539.52 418.413 540.227 418.413 540.8C418.413 541.493 417.333 543.533 415.173 546.933C413.013 550.333 411.707 552.04 411.267 552.04C410.733 552.04 409.493 551.04 407.546 549.04C405.133 546.6 402.88 544.773 400.76 543.547C397.266 541.56 393.4 540.56 389.16 540.56C381.107 540.56 374.84 543.627 370.36 549.773C366.373 555.267 364.373 562.187 364.373 570.533C364.373 578.88 366.347 585.853 370.293 591.48C374.773 597.787 381.026 600.933 389.04 600.933C393.026 600.933 396.88 599.947 400.587 597.947C403.027 596.64 405.506 594.8 408.026 592.387C410.146 590.4 411.307 589.4 411.507 589.4C411.76 589.4 413.093 591.013 415.533 594.253C417.987 597.493 419.2 599.267 419.2 599.6Z" fill="#8F9295"/>
<path d="M473.053 579.267C473.053 578.08 471.226 572.8 467.56 563.387C464.013 554.28 461.507 548.293 460.053 545.44C451.627 566.933 447.413 578.187 447.413 579.2C447.413 580.587 448.96 581.4 452.053 581.64C452.213 581.693 454.213 581.707 458.026 581.707H464.32C470.147 581.707 473.053 580.893 473.053 579.267ZM501.507 612.973C501.507 613.453 501.013 613.707 500.04 613.707C499.267 613.707 498.133 613.64 496.653 613.52C495.16 613.4 494.04 613.333 493.267 613.333C492.493 613.333 491.333 613.4 489.787 613.52C488.24 613.64 487.08 613.707 486.307 613.707C485.16 613.707 483.707 610.613 481.933 604.453C480.16 598.28 478.36 595.16 476.533 595.08C475.027 595 471.093 594.96 464.747 594.96H455.107C448.387 594.96 444.56 595 443.626 595.08C442.16 595.2 440.6 598.333 438.947 604.48C437.307 610.627 436.027 613.707 435.133 613.707H421.4C420.587 613.707 420.173 613.413 420.173 612.84C420.173 612.44 420.467 611.52 421.04 610.093L435.987 569.187C437.253 565.893 441.08 556.387 447.467 540.68C448.613 538.08 450.16 534.147 452.107 528.893C452.6 527.347 453.133 526.573 453.693 526.573C454.466 526.573 455.613 526.68 457.12 526.88C458.627 527.08 459.76 527.187 460.533 527.187C461.267 527.187 462.373 527.08 463.867 526.853C465.347 526.627 466.44 526.52 467.133 526.52C467.493 526.52 468 527.267 468.653 528.773C469.627 531.053 474.453 543.32 483.12 565.587C495.373 596.893 501.507 612.68 501.507 612.973Z" fill="#8F9295"/>
<path d="M565.973 600.453C565.973 606.147 565.667 610.2 565.067 612.6C564.773 613.787 564.067 614.373 562.92 614.373C559.907 614.373 555.4 614.2 549.373 613.853C543.347 613.507 538.827 613.333 535.813 613.333C532.973 613.333 528.72 613.4 523.053 613.52C517.4 613.64 513.146 613.707 510.293 613.707C509.28 613.707 508.773 613.187 508.773 612.173C508.773 607.733 508.92 601.04 509.226 592.093C509.533 583.133 509.68 576.413 509.68 571.933C509.68 567.213 509.467 560.147 509.04 550.72C508.613 541.293 508.4 534.227 508.4 529.507C508.4 528.613 508.907 528.16 509.933 528.16C510.667 528.16 511.786 528.227 513.293 528.347C514.8 528.467 515.933 528.533 516.707 528.533C517.44 528.533 518.573 528.467 520.12 528.347C521.667 528.227 522.813 528.16 523.547 528.16C524.52 528.16 525.013 528.547 525.013 529.32C525.013 533.64 524.853 540.133 524.52 548.8C524.2 557.467 524.026 563.987 524.026 568.333C524.026 570.453 524.026 573.667 524.026 577.987C523.986 582.293 523.973 585.507 523.973 587.627C523.973 596.667 524.333 601.187 525.067 601.187C540.093 601.187 551.427 600.813 559.08 600.08C559.44 600.04 560.386 599.907 561.893 599.653C563.106 599.413 564.04 599.293 564.693 599.293C565.546 599.293 565.973 599.68 565.973 600.453Z" fill="#8F9295"/>
<path d="M402.947 313.627V87.7733C402.947 83.4133 398.88 80.1466 394.52 81.0133L198.547 120.253C195.28 120.92 192.933 123.747 192.933 127.027V134.093V195.72V330.32C182.387 323.227 168.72 318.947 153.787 318.947C120.427 318.947 93.4 340.253 93.4 366.547C93.4 392.827 120.427 414.133 153.787 414.133C187.133 414.133 214.16 392.827 214.16 366.547C214.16 364.853 214.053 363.187 213.84 361.547V194.8C213.84 192.893 215.2 191.253 217.093 190.88L377.16 158.827C379.68 158.32 382.053 160.213 382.053 162.747V282.4C371.507 275.307 357.84 271.027 342.893 271.027C309.547 271.027 282.507 292.333 282.507 318.613C282.507 344.907 309.547 366.213 342.893 366.213C376.253 366.213 403.28 344.907 403.28 318.613C403.28 316.933 403.173 315.267 402.947 313.627Z" fill="#8F9295"/>
<path d="M500.653 260.747C486.307 249.493 487.373 243.133 486.053 238.893C484.72 234.667 481.08 229.44 473.107 229.44H468.133C463.733 229.44 460.173 232.947 460.173 237.267V284.213V300.84V406.333C460.173 411.627 454.653 415.267 449.72 413.16C441.187 409.52 431.413 407.44 421.026 407.44C387.68 407.44 360.64 428.747 360.64 455.04C360.64 481.333 387.68 502.64 421.026 502.64C452 502.64 477.52 484.253 481 460.573C481.053 460.213 481.08 459.84 481.08 459.48V450.053V300.84V289.293C554.773 322.76 531.693 365.547 508.52 398.08C508.027 398.773 508.747 399.68 509.547 399.387C544.8 386.707 552.053 355.72 554.4 340.28C561.04 301.813 520.64 277.12 500.653 260.747Z" fill="#8F9295"/>
<rect x="-1652" y="499" width="4012" height="222" fill="white"/>
</g>
</svg>
