<svg width="619" height="619" viewBox="0 0 619 619" fill="none" xmlns="http://www.w3.org/2000/svg">
<mask id="mask0_3_276" style="mask-type:alpha" maskUnits="userSpaceOnUse" x="0" y="0" width="619" height="619">
<circle cx="309.5" cy="309.5" r="309.5" fill="#D9D9D9"/>
</mask>
<g mask="url(#mask0_3_276)">
<path d="M1587.67 1568H-2679V-1632H1587.67V1568Z" fill="white"/>
<path d="M135.4 617.72C135.4 618.747 134.893 619.253 133.88 619.253C133.147 619.253 132.04 619.187 130.547 619.067C129.067 618.947 127.96 618.88 127.226 618.88C126.493 618.88 125.373 618.947 123.867 619.067C122.36 619.187 121.24 619.253 120.507 619.253C119.493 619.253 118.987 618.573 118.987 617.24C118.987 612.067 119.147 604.307 119.467 593.973C119.8 583.64 119.96 575.88 119.96 570.707C119.96 569.933 119.8 569.547 119.467 569.547C119.107 569.547 118.813 569.773 118.613 570.227C116.547 574.653 111.64 586.507 103.907 605.76C102.64 609.467 100.827 614.08 98.4666 619.613C98.1866 620.147 96.7199 620.413 94.0666 620.413C90.2399 620.413 88.1333 620.067 87.72 619.373C86.3333 616.08 84.3599 611.453 81.7999 605.507C78.4266 597.453 73.2265 585.44 66.2265 569.493C66.1065 569.2 65.84 568.92 65.44 568.64C65.1067 568.88 64.9465 569.333 64.9465 569.973C64.9465 575.227 65.0398 583.107 65.2265 593.6C65.4131 604.107 65.4931 611.987 65.4931 617.24C65.4931 618.573 64.9867 619.253 63.9734 619.253C63.28 619.253 62.2266 619.187 60.7999 619.067C59.3733 618.947 58.3198 618.88 57.6265 618.88C56.8931 618.88 55.7998 618.947 54.3598 619.067C52.9065 619.187 51.8265 619.253 51.0931 619.253C50.0665 619.253 49.5598 618.867 49.5598 618.093C49.5598 613.573 49.7733 606.8 50.1999 597.787C50.6266 588.773 50.84 582 50.84 577.493C50.84 572.813 50.6266 565.773 50.1999 556.4C49.7733 547.013 49.5598 539.987 49.5598 535.293C49.5598 534.52 50.0267 534.08 50.9734 533.96C56.5067 533.227 60.6799 532.853 63.4799 532.853C63.8932 532.853 64.4666 533.693 65.1999 535.36C75.0399 557.013 83.5066 576.347 90.5866 593.36C92.2666 597.347 93.2533 599.347 93.5866 599.347C93.9866 599.347 94.8665 597.72 96.2132 594.467C101.747 581.28 109.413 561.693 119.226 535.733C119.84 534.133 120.507 533.347 121.24 533.347C122.627 533.347 124.706 533.427 127.493 533.587C130.293 533.747 132.373 533.84 133.76 533.84C134.773 533.84 135.28 534.32 135.28 535.293C135.28 539.987 135.133 547.013 134.826 556.4C134.52 565.773 134.373 572.813 134.373 577.493C134.373 581.96 134.546 588.68 134.893 597.64C135.226 606.587 135.4 613.28 135.4 617.72Z" fill="#8F9295"/>
<path d="M213.493 556.613C213.493 558.933 209.867 565.08 202.627 575.04C197.827 581.28 193.04 587.507 188.28 593.733C187.093 595.28 186.507 596.867 186.507 598.493C186.507 600.693 186.627 603.973 186.84 608.347C187.067 612.733 187.187 615.987 187.187 618.147C187.187 618.88 186.667 619.253 185.653 619.253H171.12C170.307 619.253 169.907 618.653 169.907 617.48C169.907 615.4 170.04 612.253 170.333 608.013C170.613 603.787 170.76 600.613 170.76 598.493C170.76 596.653 170.253 595.027 169.227 593.6C166.293 589.827 161.92 584.12 156.107 576.507C151.133 569.72 147.56 564.547 145.36 561C144.627 559.787 144.253 558.6 144.253 557.467C144.173 552.333 144.133 544.92 144.133 535.24C144.133 534.133 144.627 533.587 145.6 533.587C146.293 533.587 147.32 533.653 148.68 533.773C150.053 533.893 151.08 533.96 151.773 533.96C152.587 533.96 153.8 533.893 155.427 533.773C157.067 533.653 158.307 533.587 159.16 533.587C159.893 533.587 160.253 533.92 160.253 534.573C160.253 536.84 160.133 540.267 159.893 544.827C159.64 549.387 159.52 552.8 159.52 555.08C159.52 557.52 165.973 566.107 178.88 580.84C181.933 577.387 185.427 573.093 189.373 567.96C194.88 560.88 197.627 556.627 197.627 555.2C197.627 553 197.453 549.68 197.133 545.227C196.813 540.76 196.64 537.44 196.64 535.24C196.64 534.133 197.107 533.587 198.053 533.587C198.787 533.587 199.907 533.653 201.4 533.773C202.907 533.893 204.027 533.96 204.76 533.96C205.533 533.96 206.707 533.893 208.28 533.773C209.84 533.653 211.013 533.587 211.787 533.587C212.76 533.587 213.253 534.267 213.253 535.6C213.253 537.92 213.293 541.427 213.373 546.107C213.453 550.787 213.493 554.293 213.493 556.613Z" fill="#8F9295"/>
<path d="M270.64 539.76C269.827 541.093 268.706 543.133 267.28 545.867C266.84 547.12 266.04 548.92 264.907 551.24C264.653 551.6 264.333 551.787 263.92 551.787C263.973 551.787 262 551.067 258.04 549.613C254.067 548.173 250.8 547.453 248.24 547.453C240.747 547.453 237 550.747 237 557.347C237 561 239.626 564.2 244.88 566.92C253.706 571.52 258.6 574.173 259.533 574.867C264.786 579.053 267.4 584.707 267.4 591.84C267.4 600.96 263.8 608.133 256.6 613.387C250.133 618.107 242.173 620.467 232.733 620.467C228.333 620.467 225.973 619.987 225.64 619C225.48 617.453 225.12 615.2 224.546 612.227C224.226 611.013 223.706 609.173 223.013 606.733C222.893 606.373 222.84 606.027 222.84 605.693C222.84 605.12 223.146 604.84 223.746 604.84C224.733 604.84 226.227 604.947 228.24 605.147C230.253 605.347 231.773 605.453 232.786 605.453C245.4 605.453 251.72 601.387 251.72 593.24C251.72 589.253 249.173 585.787 244.08 582.867C234.8 577.573 230.066 574.827 229.853 574.613C224.733 570.467 222.16 564.893 222.16 557.893C222.16 550.32 224.653 544.253 229.613 539.693C234.453 535.293 240.72 533.107 248.413 533.107C251.68 533.107 255.413 533.627 259.653 534.693C264.253 535.867 267.706 537.293 270.026 538.96C270.24 539.12 270.44 539.387 270.64 539.76Z" fill="#8F9295"/>
<path d="M336.88 545.133C336.88 546.187 336.52 546.72 335.786 546.72C334.653 546.72 327.44 546.467 314.173 545.987C313.813 558.4 313.626 568.347 313.626 575.84C313.626 580.52 313.8 587.547 314.146 596.907C314.493 606.267 314.666 613.28 314.666 617.973C314.666 618.827 314.066 619.253 312.893 619.253C312.16 619.253 311.04 619.187 309.533 619.067C308.026 618.947 306.893 618.88 306.12 618.88C305.386 618.88 304.266 618.947 302.76 619.067C301.253 619.187 300.133 619.253 299.4 619.253C298.386 619.253 297.866 618.747 297.866 617.72C297.866 613.08 298.066 606.107 298.453 596.813C298.84 587.507 299.026 580.52 299.026 575.84C299.026 568.6 298.813 558.64 298.36 545.987C287.853 546.64 280.173 546.96 275.28 546.96C274.8 546.96 274.546 546.76 274.546 546.347C274.546 545.613 274.733 544.56 275.093 543.173C275.546 541.387 275.813 540.32 275.893 540C275.973 538.573 276.253 536.6 276.746 534.08C276.946 533.547 277.293 533.28 277.786 533.28L278.52 533.347C292.933 534.2 302.426 534.627 307.026 534.627C311.106 534.627 317.76 534.32 327 533.707C333.306 533.307 335.933 533.107 334.866 533.107C335.933 533.107 336.52 533.467 336.64 534.2C336.56 533.747 336.52 535.733 336.52 540.12C336.52 540.653 336.587 541.48 336.707 542.6C336.827 543.72 336.88 544.56 336.88 545.133Z" fill="#8F9295"/>
<path d="M402.093 606.973C402.093 607.627 401.933 608.56 401.6 609.787C401.24 611.333 401.013 612.267 400.933 612.6C400.813 614.053 400.52 616.2 400.08 619C399.88 619.733 399.347 620.107 398.493 620.107C398.08 620.107 397.307 620.027 396.173 619.867C391.16 619.133 383.413 618.76 372.907 618.76C369.933 618.76 365.467 618.84 359.48 619C353.493 619.173 349.013 619.253 346.04 619.253C344.707 619.253 344.027 618.653 344.027 617.48C344.027 612.92 344.28 606.067 344.787 596.933C345.307 587.8 345.56 580.947 345.56 576.387C345.56 571.747 345.307 563.093 344.827 550.44C344.747 547.187 344.52 542.32 344.147 535.853L344.093 535C344.053 534.053 344.573 533.587 345.68 533.587C348.533 533.587 352.8 533.667 358.507 533.84C364.2 534 368.467 534.08 371.32 534.08C374.053 534.08 378.133 534 383.56 533.84C389 533.667 393.08 533.587 395.8 533.587C397.72 533.587 398.76 534.187 398.92 535.36C399.773 540.733 400.2 544.067 400.2 545.373C400.2 546.307 399.747 546.773 398.853 546.773C395.4 546.773 390.16 546.587 383.133 546.2C376.12 545.813 370.827 545.613 367.293 545.613C363.96 545.613 361.853 546.067 360.973 546.96C360.093 547.853 359.653 550.08 359.653 553.613V562.707C359.653 565.2 359.72 566.64 359.84 567.053C360.213 568.307 361.267 568.947 363.013 568.947C363.507 568.947 364.2 568.92 365.093 568.88C366.027 568.88 366.72 568.88 367.173 568.88C375.147 568.88 382.307 568.733 388.667 568.453C391.147 568.373 394.08 568.173 397.453 567.84C398.307 567.76 398.733 568.12 398.733 568.947C398.733 570.24 398.587 572.24 398.28 574.92C397.973 577.613 397.813 579.627 397.813 580.973C397.813 581.707 397.213 582.067 395.987 582.067C395.493 582.067 393.693 581.92 390.56 581.64C388.28 581.4 383.147 581.28 375.173 581.28C368.453 581.28 364.2 581.36 362.413 581.52C360.773 581.64 359.84 582.493 359.6 584.08C359.64 583.8 359.653 585.36 359.653 588.787V597.813C359.653 602.053 360.307 604.693 361.613 605.76C362.627 606.613 365.173 607.04 369.24 607.04L375.96 606.973C378.813 606.973 386.813 606.493 399.96 605.507L400.867 605.453C401.68 605.373 402.093 605.88 402.093 606.973Z" fill="#8F9295"/>
<path d="M460.827 563.387C460.827 556.013 458.707 551.093 454.48 548.613C451.347 546.773 445.707 545.867 437.56 545.867C430.973 545.867 427.613 546.387 427.493 547.453C427.213 549.653 427.067 555.533 427.067 565.093V576.76C427.187 576.84 427.453 576.92 427.853 577C428.587 577.08 429.787 577.187 431.467 577.307C435.333 577.507 439.493 577.613 443.973 577.613C455.213 577.613 460.827 572.867 460.827 563.387ZM477.56 618.76C477.56 619.093 477.227 619.253 476.573 619.253C475.8 619.253 474.627 619.187 473.04 619.067C471.453 618.947 470.267 618.88 469.493 618.88C468.64 618.88 467.373 618.947 465.68 619.067C463.987 619.187 462.72 619.253 461.867 619.253C460.933 619.253 460.213 618.747 459.733 617.72C458.427 614.96 454.72 606.387 448.613 592.013C448 590.56 446.52 589.653 444.16 589.333C443.627 589.293 441.773 589.267 438.6 589.267C432.987 589.267 429.653 589.347 428.587 589.52C427.733 589.64 427.307 590.68 427.307 592.627C427.307 595.48 427.44 599.747 427.707 605.427C427.973 611.093 428.107 615.347 428.107 618.147C428.107 619 427.693 619.427 426.88 619.427C426.067 619.427 424.84 619.347 423.187 619.16C421.533 618.973 420.293 618.88 419.427 618.88C418.747 618.88 417.68 618.947 416.253 619.067C414.827 619.187 413.773 619.253 413.08 619.253C412.067 619.253 411.56 618.787 411.56 617.84C411.56 613.333 411.773 606.547 412.2 597.48C412.627 588.427 412.84 581.64 412.84 577.12C412.84 564.253 412.373 550.547 411.44 535.973L411.373 535C411.333 534.187 412.187 533.773 413.933 533.773C417.44 533.773 422.68 533.68 429.653 533.493C436.64 533.32 441.853 533.227 445.32 533.227C454.36 533.227 461.6 535.387 467.053 539.693C473.08 544.453 476.093 551.213 476.093 559.96C476.093 565.987 475.28 570.733 473.653 574.187C471.933 577.853 468.76 581.333 464.12 584.627C463.347 585.16 462.96 585.667 462.96 586.16C462.96 586.733 465.4 592.147 470.267 602.4C475.12 612.653 477.56 618.107 477.56 618.76Z" fill="#8F9295"/>
<path d="M551 556.613C551 558.933 547.387 565.08 540.133 575.04C535.333 581.28 530.547 587.507 525.787 593.733C524.613 595.28 524.013 596.867 524.013 598.493C524.013 600.693 524.133 603.973 524.36 608.347C524.573 612.733 524.693 615.987 524.693 618.147C524.693 618.88 524.186 619.253 523.16 619.253H508.626C507.813 619.253 507.413 618.653 507.413 617.48C507.413 615.4 507.56 612.253 507.84 608.013C508.12 603.787 508.267 600.613 508.267 598.493C508.267 596.653 507.76 595.027 506.747 593.6C503.813 589.827 499.44 584.12 493.613 576.507C488.653 569.72 485.067 564.547 482.867 561C482.133 559.787 481.773 558.6 481.773 557.467C481.693 552.333 481.653 544.92 481.653 535.24C481.653 534.133 482.133 533.587 483.107 533.587C483.8 533.587 484.827 533.653 486.2 533.773C487.56 533.893 488.587 533.96 489.28 533.96C490.093 533.96 491.32 533.893 492.947 533.773C494.573 533.653 495.813 533.587 496.667 533.587C497.4 533.587 497.76 533.92 497.76 534.573C497.76 536.84 497.64 540.267 497.4 544.827C497.16 549.387 497.026 552.8 497.026 555.08C497.026 557.52 503.48 566.107 516.387 580.84C519.44 577.387 522.946 573.093 526.893 567.96C532.386 560.88 535.133 556.627 535.133 555.2C535.133 553 534.973 549.68 534.64 545.227C534.32 540.76 534.16 537.44 534.16 535.24C534.16 534.133 534.626 533.587 535.56 533.587C536.293 533.587 537.413 533.653 538.92 533.773C540.427 533.893 541.547 533.96 542.28 533.96C543.053 533.96 544.213 533.893 545.787 533.773C547.347 533.653 548.52 533.587 549.293 533.587C550.266 533.587 550.76 534.267 550.76 535.6C550.76 537.92 550.8 541.427 550.88 546.107C550.96 550.787 551 554.293 551 556.613Z" fill="#8F9295"/>
<path d="M281.8 319.907C280.413 317.587 279.04 315.24 277.68 312.92C275.72 309.56 273.693 306.093 271.653 302.76C262.027 287.053 252.32 275.867 241.107 267.573C228.32 258.107 212.947 254.213 197.653 256.613C197.213 256.68 196.773 256.76 196.333 256.84C194.973 248.933 194.853 240.84 195.987 232.907C211.507 230.907 227.187 233.04 241.507 239.147C254.387 244.627 265.68 253.107 276.08 265.08C282.027 271.947 287.387 279.533 292.56 286.88C295.947 291.667 299.44 296.627 303.08 301.347C305.467 304.44 307.907 307.413 310.426 310.267C301.493 315.427 291.747 318.64 281.8 319.907ZM217.68 298.08C210.28 290.68 204.707 282.147 200.973 273.027C203.987 272.573 207.053 272.413 210.053 272.613C223.307 273.427 234.973 283.04 242.413 290.933C250.413 299.413 256.587 309.8 262.507 319.96C246.107 317.933 230.24 310.653 217.68 298.08ZM217.68 189.48C220.2 186.96 222.853 184.64 225.613 182.56C244.893 186.227 264.813 195.72 286.24 211.453C302.187 223.16 316.827 237.027 330.987 250.44C333.64 252.96 336.293 255.467 338.96 257.973C340.84 259.747 343.36 260.533 345.853 260.133C346.267 260.067 346.653 259.973 347.04 259.853C344.067 273.88 337.147 287.213 326.28 298.08C325.493 298.867 324.706 299.627 323.893 300.373C321.747 298.013 319.68 295.573 317.72 293.08C313.453 287.64 309.373 281.92 305.426 276.387C300.426 269.373 295.253 262.133 289.64 255.347C279.213 242.747 267.053 232.973 253.507 226.307C239.52 219.427 223.747 215.653 207.88 215.413C205.453 215.373 203 215.427 200.533 215.6C204.28 206.08 209.987 197.16 217.68 189.48ZM291.413 169.507C291.413 169.507 291.413 169.507 291.426 169.507C302.84 174.933 314.307 181.413 325.707 188.907L325.72 188.92C325.907 189.107 326.08 189.28 326.28 189.48C341.387 204.587 348.867 224.48 348.733 244.32C346.573 242.307 344.427 240.293 342.28 238.28C325.92 222.947 309.013 207.107 290.253 193.853C275.893 183.707 261.427 176.133 247.013 171.16C247.013 171.16 247.013 171.16 247.027 171.16C261.36 166.267 276.84 165.707 291.413 169.507ZM529.293 457.64L445.747 374.107C441.6 369.947 434.853 369.947 430.707 374.107L364.24 307.653C394.533 263.92 390.253 203.333 351.347 164.413C340.707 153.773 328.453 145.72 315.36 140.267C304.627 135.773 293.307 133.027 281.867 132.04C268.667 130.867 255.267 132.04 242.4 135.533C242.387 135.533 242.387 135.533 242.387 135.533C232.04 138.347 222.04 142.653 212.693 148.467C204.093 153.8 196.067 160.427 188.893 168.307C173.747 184.973 164.533 205.187 161.253 226.16C160.227 232.72 159.773 239.373 159.92 246.013C160.093 255.253 161.4 264.467 163.84 273.44C165.44 279.36 167.533 285.16 170.12 290.8C174.413 300.187 180.053 309.067 187.067 317.173C188.24 318.547 189.467 319.893 190.733 321.213C193.307 323.92 195.987 326.453 198.76 328.827C208.44 337.2 219.213 343.613 230.587 348.093C237.76 350.933 245.16 353 252.667 354.293C263.853 356.227 275.28 356.467 286.507 355C293 354.16 299.427 352.747 305.72 350.773C316.28 347.467 326.453 342.547 335.84 336.053L402.293 402.507C400.227 404.587 399.187 407.307 399.187 410.027C399.187 412.747 400.227 415.467 402.293 417.547L485.84 501.093C490 505.24 496.733 505.24 500.893 501.093L529.293 472.68C531.373 470.613 532.4 467.893 532.4 465.173C532.4 462.453 531.373 459.72 529.293 457.64Z" fill="#8F9295"/>
<path d="M147.706 318.173C146.853 317.907 146 317.827 145.16 317.96C142.906 318.32 141.226 320.067 140.88 322.427C140.213 327 139.573 331.787 138.973 336.653C136.706 355.053 136.053 370.08 136.906 383.96C137.013 385.653 137.853 387.187 139.226 388.173L139.333 388.253C140.56 389.12 142.026 389.48 143.48 389.253C146.4 388.8 148.453 386.227 148.266 383.293C147.64 373.627 147.8 363.307 148.746 351.733C149.386 343.907 150.373 335.68 151.96 325.027C152.4 322.133 150.493 319.053 147.706 318.173Z" fill="#8F9295"/>
<path d="M195.107 370.307C194.987 369.04 194.893 367.76 194.827 366.52C194.733 364.8 193.307 363.427 191.573 363.413C190.027 363.387 188.427 363.347 186.893 363.307C184.907 363.227 183.387 364.867 183.48 366.787C184.16 380.427 187.307 393.853 192.813 406.667C193.667 408.653 195.547 409.987 197.707 410.12L197.813 410.133C198.24 410.16 198.653 410.133 199.053 410.067C200.76 409.8 202.213 408.773 203.053 407.24C203.92 405.68 204 403.853 203.293 402.213C198.867 391.947 196.107 381.213 195.107 370.307Z" fill="#8F9295"/>
<path d="M272.773 374.773C268.92 372.613 265.293 370.093 261.986 367.28C255.533 361.8 250.546 355.453 245.813 346.72C243.8 343 241.346 338.773 237.76 335.747C233.386 332.067 227.8 330.84 222.48 332.427C210.546 335.987 208.267 349.347 207.973 357C207.627 365.88 208.613 375.56 210.907 385.787C212.36 392.293 214.453 398.8 217.12 405.107C218.12 407.493 220.613 408.88 223.16 408.48L223.48 408.427C225.133 408.093 226.533 407.053 227.32 405.56C228.12 404.053 228.2 402.28 227.533 400.693C223.96 392.133 221.506 383.213 220.266 374.187C219.586 369.28 219.266 364.093 219.293 358.787C219.32 354.533 219.653 349.24 222.107 346.107C223.16 344.76 224.453 343.76 225.773 343.307C226.56 343.027 226.653 343.027 227.426 343.053C227.72 343.147 228.053 343.2 228.386 343.24C228.546 343.293 228.667 343.333 228.773 343.36C228.92 343.427 229.053 343.493 229.2 343.56C229.48 343.707 229.746 343.88 230.053 344.08C230.24 344.28 230.467 344.48 230.707 344.627L230.693 344.64C231 344.92 231.293 345.227 231.626 345.587C231.786 345.84 232.013 346.133 232.28 346.36C233.52 348 234.546 349.8 235.586 351.667C239.96 359.56 243.96 365.267 248.533 370.147C253.546 375.507 259.613 380.28 266.586 384.333C268.253 385.307 270.506 385.053 271.96 383.76C272.52 383.253 273.08 382.747 273.626 382.24C274.746 381.213 275.28 379.76 275.107 378.267C274.92 376.773 274.08 375.507 272.773 374.773Z" fill="#8F9295"/>
<path d="M105.92 136.773C106.48 136.68 107 136.48 107.493 136.16L107.654 136.053C123.974 125.387 143.413 117.307 165.427 112.053C170.453 110.853 175.6 109.827 180.747 109.027C193.387 107.027 206.334 106.24 219.214 106.653C222.267 106.747 224.734 104.533 225.054 101.507C225.32 98.88 223.907 96.5867 221.44 95.64L221.054 95.4934H220.88C204.454 94.8668 187.827 96.0934 171.64 99.1334C150.334 103.147 129.92 110.44 110.947 120.84L110.68 121.053C107.787 124.027 104.974 127.227 102.32 130.56C101.307 131.827 101.174 133.467 101.974 134.827C102.8 136.24 104.374 137.013 105.92 136.773Z" fill="#8F9295"/>
<path d="M234.653 363.187C233.587 360.053 230.693 359.04 228.307 359.413C226.547 359.693 225 360.68 224.16 362.067C223.613 362.973 223.093 364.48 223.787 366.507C227.627 377.853 233.107 388.667 240.08 398.627C241.293 400.373 243.453 401.293 245.56 400.973V400.96C246.093 400.88 246.613 400.72 247.2 400.44C248.68 399.72 249.76 398.4 250.187 396.813C250.6 395.2 250.293 393.493 249.333 392.133C243.04 383.133 238.107 373.387 234.653 363.187Z" fill="#8F9295"/>
<path d="M73.0665 248.387C74.7465 248.12 75.9998 246.893 76.3332 245.187C77.2932 240.32 78.1064 235.333 78.8798 230.52C79.9598 223.893 81.0665 217.027 82.5865 210.4C85.0265 199.72 88.7599 190.627 93.9733 182.627C98.8799 175.093 105.52 167.933 114.28 160.747C132.56 145.733 156.173 135.6 182.573 131.453C189.987 130.28 197.667 129.573 205.387 129.36C207.987 129.28 210.16 127.413 210.64 124.933L210.733 124.453C211.053 122.813 210.613 121.147 209.546 119.867C208.466 118.6 206.907 117.893 205.253 117.947C203.973 117.973 202.693 118.013 201.413 118.08C194.76 118.387 188.04 119.067 181.466 120.107C143.093 126.147 110.6 143.493 89.9733 168.973C84.2133 176.067 79.7198 183.613 76.6131 191.373C73.7331 198.56 71.5331 206.693 69.6798 216.987C69.3064 219.067 68.9465 221.173 68.5998 223.387C68.1332 230.347 68.0399 237.467 68.3199 244.547C68.3732 245.733 68.8798 246.787 69.7464 247.507C70.6398 248.24 71.8798 248.573 73.0665 248.387Z" fill="#8F9295"/>
<path d="M223.96 124.413L223.974 124.84C224.027 127.587 226.147 129.867 228.947 130.133C239.92 131.173 251.28 133.213 262.693 136.187C263.48 136.387 264.267 136.44 265.027 136.32C267.053 136 268.774 134.493 269.44 132.493C270.094 130.507 269.6 128.413 268.093 126.893L267.974 126.76C267.267 126.053 266.374 125.533 265.387 125.28C253.374 122.147 241.454 119.987 229.974 118.867C229.507 118.813 229.04 118.827 228.587 118.907C225.894 119.32 223.907 121.693 223.96 124.413Z" fill="#8F9295"/>
<path d="M85.5198 286.96C89.5198 255.947 95.8265 233.427 105.986 213.92C107.093 211.787 106.333 209.12 104.266 207.867L102.426 206.747C101.493 206.187 100.387 205.96 99.3065 206.133C97.8665 206.36 96.5998 207.28 95.9198 208.573C85.3865 228.8 78.533 253.16 74.3463 285.267C74.253 285.987 74.2931 286.693 74.4664 287.4L74.5198 287.627C75.3331 290.88 78.3198 292.173 80.8531 291.773C83.3598 291.387 85.1865 289.493 85.5198 286.96Z" fill="#8F9295"/>
<path d="M290.48 353.253C288.8 352.44 287.146 351.573 285.56 350.68C278.04 346.413 271.173 341 265.08 334.6C259.186 334.227 253.426 333.307 247.866 331.92C257.533 345.107 270.52 356.093 285.333 363.4C286.2 363.84 287.186 363.987 288.146 363.84C289.413 363.64 290.546 362.933 291.28 361.893C291.653 361.36 292.013 360.827 292.387 360.293C293.173 359.133 293.413 357.707 293.053 356.36C292.693 355 291.76 353.867 290.48 353.253Z" fill="#8F9295"/>
<path d="M199.013 302.4C198.973 302.453 198.947 302.493 198.92 302.533C191.84 314.707 187.093 328.147 184.813 342.467C184.666 343.373 184.906 344.293 185.48 345.013C186.053 345.747 186.906 346.2 187.826 346.28L192.56 346.64C194.253 346.773 195.813 345.533 196.093 343.853C198.013 332.2 201.826 321.067 207.4 310.693C204.44 308.107 201.64 305.333 199.013 302.4Z" fill="#8F9295"/>
<path d="M181.293 274.147C177.746 279.707 174.733 286.333 172.067 294.4C168.587 304.907 166.32 316.027 164.387 326.467C162.227 338.24 160.813 349.787 160.2 360.773C159.467 373.84 160.04 386.467 161.893 398.307C162.2 400.253 163.533 401.92 165.4 402.667L165.773 401.72L165.493 402.707C166.44 403.08 167.453 403.2 168.44 403.053C171.533 402.56 173.653 399.64 173.16 396.533C171.386 385.253 170.867 372.973 171.587 360.027C172.147 349.973 173.533 339.213 175.8 327.147C177.627 317.48 179.987 306.173 183.64 295.533C184.747 292.32 186.013 289.32 187.4 286.52C185.093 282.56 183.04 278.427 181.293 274.147Z" fill="#8F9295"/>
<path d="M292.507 332.533C294.587 333.867 296.72 335.12 298.92 336.293L299.32 336.507L306.2 334.093L306.667 333.853L306.84 333.427C307.56 331.72 307.347 329.827 306.453 328.333C301.947 330.067 297.294 331.48 292.507 332.533Z" fill="#8F9295"/>
<path d="M174.147 240.294C171.44 242.654 168.893 245.213 166.56 247.973C160.48 255.2 155.533 264 151.453 274.88C149.013 281.4 147.027 288.534 145.2 297.32C144.853 299.014 145.28 300.747 146.387 302.08C147.493 303.413 149.133 304.174 150.893 304.134C153.533 304.094 155.787 302.2 156.32 299.667C157.16 295.707 158.027 292.08 158.973 288.613C161.773 278.373 165.413 269.774 170.093 262.294C171.746 259.667 173.613 257.187 175.653 254.84C174.8 250.107 174.28 245.24 174.147 240.294Z" fill="#8F9295"/>
<path d="M182.933 196.893C175.867 200.307 169.093 204.6 162.693 209.747C125.72 239.52 114.68 288.907 111.92 325.08C111.027 336.867 111.04 348.947 111.96 360.987C112.053 362.173 112.533 363.32 113.307 364.227L113.413 364.347C114.707 365.853 116.56 366.547 118.493 366.24C121 365.853 123.533 363.6 123.253 360.227C120.667 328 124.893 296.173 135.48 268.2C143.013 248.293 154.56 231.387 168.853 219.293C171.493 217.067 174.28 215.013 177.173 213.093C178.613 207.48 180.56 202.067 182.933 196.893Z" fill="#8F9295"/>
<path d="M205.347 166C201.947 166.267 198.573 166.64 195.253 167.16C179.64 169.627 165.307 174.76 152.64 182.44C136.107 192.467 122.213 207.933 111.347 228.413C101.227 247.48 94.36 268.627 90.92 291.28C89.24 302.413 88.4665 313.813 88.6265 325.173C88.6399 326.013 88.8399 326.867 89.2265 327.627L89.32 327.827C90.4267 330.04 92.7334 331.227 95.1867 330.84C97.5067 330.48 99.9734 328.573 99.92 325.267C99.4667 295 106.067 264.96 119.027 238.373C128.8 218.32 141.48 203.147 156.693 193.307C167.44 186.36 179.84 181.56 193.6 179C197.12 174.32 201.053 169.973 205.347 166Z" fill="#8F9295"/>
<path d="M220.187 154.667C225.973 151.067 232.16 148.053 238.68 145.707C236.173 145.267 233.68 144.867 231.2 144.52C214.613 142.2 198.627 142.213 183.693 144.56C177 145.613 170.44 147.16 164.187 149.147C143.973 155.573 126.12 167.493 112.493 183.667C111.507 184.827 111.174 186.4 111.574 187.853C111.987 189.32 113.08 190.493 114.52 190.987L116.653 191.72C118.4 192.32 120.467 191.747 121.68 190.333C132.147 178.16 145.32 168.64 159.774 162.787C167.787 159.547 176.427 157.187 185.453 155.76C196.373 154.04 208.053 153.693 220.187 154.667Z" fill="#8F9295"/>
<rect x="-2546" y="504" width="4012" height="222" fill="white"/>
</g>
</svg>
