<svg width="619" height="619" viewBox="0 0 619 619" fill="none" xmlns="http://www.w3.org/2000/svg">
<mask id="mask0_3_276" style="mask-type:alpha" maskUnits="userSpaceOnUse" x="0" y="0" width="619" height="619">
<circle cx="309.5" cy="309.5" r="309.5" fill="#D9D9D9"/>
</mask>
<g mask="url(#mask0_3_276)">
<path d="M732.666 1524H-3534V-1676H732.666V1524Z" fill="white"/>
<path d="M80.7333 518.707C80.7333 511.347 78.6133 506.427 74.3867 503.933C71.2533 502.107 65.6133 501.187 57.4666 501.187C50.88 501.187 47.52 501.72 47.4 502.773C47.12 504.973 46.9734 510.853 46.9734 520.427V532.08C47.0934 532.16 47.3599 532.253 47.7599 532.333C48.4932 532.413 49.6934 532.507 51.3734 532.64C55.2401 532.84 59.3999 532.933 63.8799 532.933C75.1199 532.933 80.7333 528.2 80.7333 518.707ZM97.4666 574.093C97.4666 574.413 97.1332 574.573 96.4932 574.573C95.7198 574.573 94.5332 574.52 92.9466 574.4C91.3599 574.267 90.1733 574.213 89.4 574.213C88.5466 574.213 87.28 574.267 85.5867 574.4C83.8933 574.52 82.6267 574.573 81.7734 574.573C80.8401 574.573 80.1201 574.067 79.6401 573.053C78.3334 570.28 74.6267 561.72 68.52 547.347C67.92 545.88 66.4266 544.987 64.0666 544.667C63.5333 544.627 61.6801 544.6 58.5067 544.6C52.8934 544.6 49.5599 544.68 48.4932 544.84C47.6399 544.96 47.2132 546 47.2132 547.96C47.2132 550.813 47.3466 555.067 47.6132 560.747C47.8799 566.427 48.0132 570.667 48.0132 573.48C48.0132 574.333 47.6 574.76 46.7867 574.76C45.9733 574.76 44.7465 574.667 43.0932 574.48C41.4399 574.307 40.2 574.213 39.3333 574.213C38.6533 574.213 37.5865 574.267 36.1599 574.4C34.7465 574.52 33.68 574.573 32.9867 574.573C31.9733 574.573 31.4666 574.107 31.4666 573.173C31.4666 568.653 31.6801 561.867 32.1067 552.813C32.5334 543.76 32.7466 536.973 32.7466 532.453C32.7466 519.587 32.2799 505.867 31.3466 491.293L31.2799 490.32C31.2399 489.507 32.0934 489.107 33.8401 489.107C37.3467 489.107 42.5867 489.013 49.5734 488.827C56.5467 488.64 61.7732 488.547 65.2265 488.547C74.2665 488.547 81.5065 490.707 86.9599 495.027C92.9865 499.787 96 506.547 96 515.293C96 521.32 95.1865 526.067 93.5599 529.52C91.8532 533.187 88.6665 536.667 84.0265 539.96C83.2532 540.493 82.8666 541 82.8666 541.48C82.8666 542.053 85.3067 547.467 90.1734 557.733C95.0267 567.987 97.4666 573.44 97.4666 574.093Z" fill="#8F9295"/>
<path d="M171.707 531.533C171.707 523.56 169.227 516.613 164.253 510.72C159.053 504.453 152.52 501.307 144.653 501.307C136.88 501.307 130.413 504.493 125.24 510.84C120.36 516.787 117.92 523.747 117.92 531.72C117.92 539.653 120.36 546.6 125.24 552.533C130.413 558.893 136.88 562.067 144.653 562.067C152.56 562.067 159.107 558.893 164.32 552.533C169.24 546.6 171.707 539.6 171.707 531.533ZM186.426 531.72C186.426 543.8 182.56 554.213 174.826 562.92C166.76 571.947 156.747 576.467 144.787 576.467C132.773 576.467 122.76 571.973 114.746 562.973C107.013 554.307 103.146 543.893 103.146 531.72C103.146 519.667 107.053 509.267 114.867 500.52C122.92 491.44 132.893 486.907 144.787 486.907C156.707 486.907 166.693 491.44 174.76 500.52C182.533 509.227 186.426 519.627 186.426 531.72Z" fill="#8F9295"/>
<path d="M282.28 573.053C282.28 574.067 281.773 574.573 280.746 574.573C280.013 574.573 278.906 574.52 277.426 574.4C275.933 574.267 274.826 574.213 274.093 574.213C273.36 574.213 272.24 574.267 270.733 574.4C269.227 574.52 268.107 574.573 267.373 574.573C266.36 574.573 265.853 573.907 265.853 572.56C265.853 567.4 266.013 559.64 266.346 549.307C266.666 538.96 266.826 531.213 266.826 526.04C266.826 525.267 266.666 524.88 266.346 524.88C265.973 524.88 265.693 525.107 265.48 525.547C263.413 529.987 258.507 541.827 250.773 561.08C249.507 564.787 247.693 569.413 245.333 574.947C245.053 575.467 243.586 575.733 240.946 575.733C237.12 575.733 235 575.387 234.587 574.707C233.213 571.4 231.24 566.787 228.667 560.84C225.293 552.787 220.107 540.773 213.107 524.813C212.973 524.533 212.72 524.253 212.307 523.96C211.987 524.213 211.813 524.653 211.813 525.307C211.813 530.56 211.906 538.44 212.093 548.933C212.28 559.44 212.373 567.307 212.373 572.56C212.373 573.907 211.867 574.573 210.84 574.573C210.147 574.573 209.093 574.52 207.667 574.4C206.24 574.267 205.186 574.213 204.493 574.213C203.76 574.213 202.666 574.267 201.226 574.4C199.786 574.52 198.693 574.573 197.96 574.573C196.946 574.573 196.44 574.187 196.44 573.413C196.44 568.893 196.653 562.133 197.08 553.12C197.506 544.107 197.72 537.333 197.72 532.813C197.72 528.133 197.506 521.107 197.08 511.72C196.653 502.347 196.44 495.307 196.44 490.627C196.44 489.853 196.907 489.413 197.84 489.28C203.373 488.547 207.546 488.187 210.36 488.187C210.76 488.187 211.333 489.027 212.067 490.693C221.92 512.347 230.373 531.68 237.467 548.693C239.133 552.68 240.133 554.68 240.453 554.68C240.867 554.68 241.733 553.053 243.08 549.787C248.613 536.6 256.293 517.027 266.093 491.053C266.706 489.467 267.373 488.68 268.107 488.68C269.493 488.68 271.587 488.76 274.373 488.92C277.16 489.08 279.24 489.16 280.626 489.16C281.64 489.16 282.16 489.653 282.16 490.627C282.16 495.307 282 502.347 281.693 511.72C281.386 521.107 281.24 528.133 281.24 532.813C281.24 537.293 281.413 544.013 281.76 552.96C282.106 561.92 282.28 568.613 282.28 573.053Z" fill="#8F9295"/>
<path d="M342.293 540.147C342.293 538.96 340.467 533.667 336.8 524.267C333.253 515.147 330.76 509.173 329.293 506.32C320.867 527.813 316.653 539.067 316.653 540.08C316.653 541.467 318.2 542.28 321.293 542.52C321.453 542.56 323.453 542.587 327.28 542.587H333.56C339.387 542.587 342.293 541.773 342.293 540.147ZM370.747 573.84C370.747 574.333 370.253 574.573 369.28 574.573C368.507 574.573 367.373 574.52 365.893 574.4C364.4 574.267 363.28 574.213 362.507 574.213C361.733 574.213 360.573 574.267 359.027 574.4C357.48 574.52 356.32 574.573 355.547 574.573C354.4 574.573 352.947 571.493 351.173 565.333C349.4 559.16 347.6 556.04 345.773 555.96C344.267 555.88 340.333 555.84 333.987 555.84H324.347C317.627 555.84 313.8 555.88 312.867 555.96C311.4 556.08 309.84 559.213 308.2 565.36C306.547 571.507 305.28 574.573 304.373 574.573H290.64C289.827 574.573 289.413 574.293 289.413 573.72C289.413 573.32 289.707 572.4 290.28 570.973L305.227 530.067C306.493 526.773 310.32 517.267 316.707 501.56C317.853 498.947 319.4 495.027 321.347 489.773C321.84 488.227 322.373 487.453 322.933 487.453C323.707 487.453 324.853 487.56 326.36 487.76C327.867 487.96 329 488.067 329.773 488.067C330.507 488.067 331.613 487.947 333.107 487.733C334.587 487.507 335.68 487.387 336.373 487.387C336.733 487.387 337.24 488.147 337.893 489.653C338.88 491.933 343.693 504.2 352.373 526.467C364.613 557.773 370.747 573.56 370.747 573.84Z" fill="#8F9295"/>
<path d="M454.453 490.267C454.453 494.947 454.293 502 453.96 511.453C453.64 520.893 453.48 527.973 453.48 532.693C453.48 537.133 453.52 543.773 453.6 552.627C453.68 561.48 453.72 568.133 453.72 572.56C453.72 573.907 453.213 574.573 452.187 574.573C451.587 574.573 450.667 574.52 449.44 574.4C448.227 574.267 447.306 574.213 446.693 574.213C446.04 574.213 445.053 574.267 443.707 574.4C442.36 574.52 441.36 574.573 440.707 574.573C439.987 574.573 439.106 573.907 438.093 572.56C429.293 560.72 415.96 543.053 398.093 519.573C395.333 515.987 393.72 513.987 393.28 513.587C392.866 513.587 392.666 514.413 392.666 516.093C392.666 522.36 392.76 531.773 392.973 544.32C393.173 556.88 393.28 566.293 393.28 572.56C393.28 573.907 392.867 574.573 392.053 574.573C391.36 574.573 390.306 574.52 388.88 574.4C387.453 574.267 386.4 574.213 385.707 574.213C384.973 574.213 383.88 574.267 382.44 574.4C380.987 574.52 379.907 574.573 379.173 574.573C378.147 574.573 377.64 574.173 377.64 573.36C377.64 568.88 377.853 562.133 378.28 553.12C378.706 544.107 378.92 537.333 378.92 532.813C378.92 527.893 378.747 519.013 378.373 506.2C378.293 502.853 378.093 497.853 377.76 491.173L377.707 490.387C377.667 489.773 378.147 489.453 379.173 489.413C381.813 489.373 383.893 489.28 385.4 489.16C385.973 489.12 387.04 488.96 388.64 488.68C389.973 488.427 391.04 488.307 391.813 488.307C392.173 488.307 392.8 488.893 393.707 490.08C403.067 502.947 417.386 522.067 436.68 547.467C437.533 548.533 438.333 549.44 439.066 550.213C439.346 548.507 439.493 544.6 439.493 538.493C439.493 533.2 439.293 525.267 438.907 514.68C438.52 504.107 438.333 496.187 438.333 490.933C438.333 489.587 438.733 488.92 439.546 488.92C440.28 488.92 441.4 488.973 442.88 489.107C444.36 489.227 445.48 489.28 446.213 489.28C446.986 489.28 448.146 489.227 449.693 489.107C451.24 488.973 452.4 488.92 453.173 488.92C454.027 488.92 454.453 489.373 454.453 490.267Z" fill="#8F9295"/>
<path d="M534.733 560.48C534.733 560.96 534.347 561.653 533.573 562.547C525.64 571.747 515.813 576.347 504.093 576.347C491.88 576.347 482.107 571.893 474.787 562.973C467.947 554.68 464.52 544.293 464.52 531.84C464.52 519.387 468 508.96 474.96 500.573C482.373 491.547 492.16 487.027 504.333 487.027C516.667 487.027 526.213 491.2 532.973 499.547C533.613 500.4 533.947 501.107 533.947 501.68C533.947 502.373 532.867 504.413 530.707 507.813C528.547 511.213 527.253 512.907 526.8 512.907C526.267 512.907 525.027 511.92 523.08 509.92C520.68 507.48 518.413 505.653 516.293 504.427C512.8 502.427 508.933 501.44 504.693 501.44C496.64 501.44 490.373 504.507 485.893 510.653C481.907 516.147 479.907 523.067 479.907 531.413C479.907 539.76 481.88 546.733 485.827 552.36C490.307 558.667 496.56 561.813 504.573 561.813C508.56 561.813 512.413 560.827 516.12 558.827C518.56 557.52 521.04 555.667 523.56 553.267C525.68 551.28 526.84 550.28 527.04 550.28C527.293 550.28 528.627 551.893 531.08 555.133C533.52 558.373 534.733 560.147 534.733 560.48Z" fill="#8F9295"/>
<path d="M599.333 562.307C599.333 562.96 599.173 563.893 598.84 565.12C598.48 566.667 598.253 567.6 598.173 567.92C598.053 569.387 597.76 571.52 597.32 574.333C597.12 575.067 596.587 575.427 595.733 575.427C595.32 575.427 594.547 575.347 593.413 575.187C588.4 574.453 580.653 574.093 570.147 574.093C567.173 574.093 562.707 574.173 556.72 574.333C550.733 574.493 546.253 574.573 543.28 574.573C541.947 574.573 541.267 573.987 541.267 572.813C541.267 568.253 541.52 561.4 542.04 552.267C542.547 543.12 542.8 536.28 542.8 531.72C542.8 527.08 542.547 518.427 542.067 505.773C541.987 502.507 541.76 497.653 541.387 491.173L541.333 490.32C541.293 489.387 541.813 488.92 542.92 488.92C545.773 488.92 550.04 489 555.747 489.16C561.44 489.32 565.706 489.413 568.56 489.413C571.293 489.413 575.373 489.32 580.8 489.16C586.24 489 590.32 488.92 593.04 488.92C594.96 488.92 596 489.507 596.16 490.693C597.013 496.067 597.44 499.4 597.44 500.707C597.44 501.64 596.986 502.107 596.093 502.107C592.64 502.107 587.4 501.92 580.373 501.52C573.36 501.133 568.067 500.947 564.533 500.947C561.2 500.947 559.093 501.4 558.213 502.293C557.333 503.187 556.907 505.4 556.907 508.947V518.04C556.907 520.52 556.96 521.973 557.08 522.373C557.453 523.64 558.507 524.267 560.253 524.267C560.747 524.267 561.44 524.253 562.333 524.213C563.267 524.213 563.96 524.213 564.413 524.213C572.387 524.213 579.547 524.067 585.907 523.787C588.387 523.693 591.32 523.493 594.693 523.173C595.546 523.093 595.973 523.453 595.973 524.267C595.973 525.573 595.827 527.56 595.52 530.253C595.213 532.933 595.053 534.96 595.053 536.293C595.053 537.027 594.453 537.4 593.226 537.4C592.733 537.4 590.933 537.253 587.8 536.973C585.52 536.72 580.387 536.6 572.413 536.6C565.693 536.6 561.44 536.68 559.653 536.84C558.013 536.973 557.08 537.827 556.84 539.413C556.88 539.12 556.907 540.693 556.907 544.107V553.147C556.907 557.387 557.547 560.027 558.853 561.08C559.867 561.933 562.413 562.373 566.48 562.373L573.2 562.307C576.053 562.307 584.053 561.813 597.2 560.84L598.107 560.773C598.92 560.693 599.333 561.213 599.333 562.307Z" fill="#8F9295"/>
<path d="M311.213 434.667C311.32 434.693 311.96 434.48 311.987 434.547L311.827 434.173C529.427 50.5467 226.52 132.56 222.453 226.667C222.4 227.627 220.867 228.293 220.133 227.667C148.507 166.507 -118.227 332.347 310.427 434.773L310.6 435.16C310.573 435.093 311.16 434.76 311.213 434.667Z" fill="#8F9295"/>
<path d="M463.813 312.04C463.266 312.4 462.28 311.827 462.333 311.173C464.213 285.48 433.12 257.267 403.013 250.867C397.133 282.347 383.52 321.987 359.533 371.24C365.387 392.053 373.867 416.053 385.507 443.613L385.36 443.853C385.386 443.813 385.8 444 385.88 443.987C385.906 444.067 386.28 444.333 386.253 444.373L386.387 444.12C683.187 408.947 516.826 276.48 463.813 312.04Z" fill="#8F9295"/>
<rect x="-3401" y="460" width="4012" height="222" fill="white"/>
</g>
</svg>
