<svg width="619" height="619" viewBox="0 0 619 619" fill="none" xmlns="http://www.w3.org/2000/svg">
<mask id="mask0_3_276" style="mask-type:alpha" maskUnits="userSpaceOnUse" x="0" y="0" width="619" height="619">
<circle cx="309.5" cy="309.5" r="309.5" fill="#D9D9D9"/>
</mask>
<g mask="url(#mask0_3_276)">
<path d="M4236.67 785H-30V-2415H4236.67V785Z" fill="white"/>
<path d="M206.168 570.4C205.355 571.747 204.235 573.787 202.811 576.507C202.363 577.773 201.569 579.56 200.429 581.88C200.185 582.253 199.86 582.427 199.452 582.427C199.493 582.427 197.529 581.707 193.561 580.267C189.592 578.813 186.325 578.093 183.761 578.093C176.272 578.093 172.528 581.387 172.528 587.987C172.528 591.653 175.153 594.84 180.404 597.573C189.236 602.173 194.12 604.813 195.057 605.507C200.308 609.707 202.933 615.36 202.933 622.48C202.933 631.6 199.331 638.787 192.127 644.04C185.655 648.76 177.697 651.12 168.253 651.12C163.857 651.12 161.497 650.627 161.172 649.653C161.008 648.107 160.643 645.84 160.072 642.88C159.747 641.653 159.237 639.827 158.547 637.373C158.424 637.013 158.363 636.667 158.363 636.347C158.363 635.773 158.668 635.493 159.279 635.493C160.256 635.493 161.752 635.587 163.767 635.787C165.781 636 167.297 636.093 168.315 636.093C180.933 636.093 187.241 632.027 187.241 623.893C187.241 619.893 184.697 616.44 179.609 613.507C170.329 608.213 165.588 605.467 165.384 605.267C160.256 601.107 157.691 595.533 157.691 588.533C157.691 580.96 160.175 574.907 165.14 570.347C169.984 565.947 176.252 563.747 183.945 563.747C187.201 563.747 190.945 564.28 195.179 565.333C199.779 566.52 203.237 567.947 205.559 569.613C205.761 569.773 205.965 570.04 206.168 570.4Z" fill="#8F9295"/>
<path d="M282.976 635.787C282.976 636.28 282.589 636.973 281.816 637.867C273.879 647.067 264.048 651.667 252.325 651.667C240.115 651.667 230.347 647.213 223.02 638.293C216.181 629.987 212.763 619.613 212.763 607.16C212.763 594.707 216.243 584.28 223.203 575.893C230.611 566.867 240.4 562.347 252.571 562.347C264.903 562.347 274.448 566.52 281.205 574.867C281.856 575.72 282.181 576.427 282.181 577C282.181 577.693 281.103 579.733 278.945 583.133C276.788 586.533 275.487 588.227 275.039 588.227C274.509 588.227 273.268 587.24 271.313 585.24C268.912 582.8 266.653 580.96 264.537 579.747C261.036 577.747 257.169 576.747 252.936 576.747C244.877 576.747 238.609 579.827 234.132 585.973C230.143 591.467 228.148 598.387 228.148 606.733C228.148 615.08 230.123 622.053 234.071 627.667C238.548 633.987 244.796 637.133 252.815 637.133C256.803 637.133 260.649 636.133 264.353 634.147C266.796 632.84 269.279 630.987 271.803 628.587C273.919 626.6 275.079 625.6 275.283 625.6C275.527 625.6 276.869 627.213 279.312 630.453C281.755 633.68 282.976 635.467 282.976 635.787Z" fill="#8F9295"/>
<path d="M306.543 648.613C306.543 649.467 305.952 649.893 304.772 649.893C304.039 649.893 302.92 649.84 301.413 649.707C299.908 649.587 298.788 649.533 298.056 649.533C297.283 649.533 296.143 649.587 294.637 649.707C293.131 649.84 292.012 649.893 291.279 649.893C290.261 649.893 289.752 649.427 289.752 648.493C289.752 643.853 289.967 636.867 290.393 627.52C290.821 618.173 291.035 611.173 291.035 606.48C291.035 601.973 290.821 595.187 290.393 586.12C289.967 577.067 289.752 570.28 289.752 565.76C289.752 564.747 290.22 564.24 291.157 564.24C291.931 564.24 293.111 564.293 294.697 564.413C296.285 564.547 297.487 564.6 298.3 564.6C299.033 564.6 300.132 564.547 301.597 564.413C303.063 564.293 304.161 564.24 304.895 564.24C305.952 564.24 306.481 564.64 306.481 565.453C306.481 570.013 306.319 576.853 305.993 585.973C305.668 595.093 305.504 601.933 305.504 606.48C305.504 611.173 305.677 618.187 306.024 627.547C306.369 636.907 306.543 643.933 306.543 648.613Z" fill="#8F9295"/>
<path d="M357.951 605.813L357.889 606.36C357.523 607.787 357.035 609.88 356.424 612.653C356.303 614 356.037 615.947 355.631 618.52C355.549 618.88 354.389 619.12 352.151 619.253C350.604 619.333 348.405 619.333 345.556 619.253C341.893 619.16 340.184 619.12 340.428 619.12C337.904 619.12 334.16 619.36 329.193 619.827C324.228 620.293 320.504 620.533 318.021 620.533C316.921 620.533 316.372 619.853 316.372 618.52C316.372 616.64 317.552 612.76 319.913 606.853C320.117 606.28 320.687 606 321.623 606C323.048 606 325.144 606.053 327.912 606.147C330.68 606.253 332.776 606.307 334.2 606.307C336.683 606.307 340.428 606.053 345.435 605.533C350.441 605.027 354.185 604.773 356.668 604.773C357.564 604.773 357.991 605.12 357.951 605.813Z" fill="#8F9295"/>
<path d="M426.332 576.747C426.332 577.52 425.904 577.907 425.049 577.907C421.875 577.907 416.665 577.733 409.42 577.36C402.663 577.04 397.453 576.92 393.789 577L389.332 577.053C386.484 577.093 384.977 577.16 384.815 577.24C384 577.573 383.593 578.853 383.593 581.093V595.8C383.593 598.573 384.184 599.96 385.364 599.96C389.312 599.96 395.265 599.773 403.223 599.4C411.18 599.04 417.133 598.853 421.081 598.853C421.936 598.853 422.363 599.187 422.363 599.827C422.363 600.52 422.312 601.547 422.211 602.92C422.109 604.28 422.057 605.307 422.057 606C422.057 606.733 422.099 607.84 422.18 609.32C422.261 610.813 422.303 611.92 422.303 612.653C422.303 613.147 421.875 613.387 421.02 613.387C418.212 613.387 413.948 613.307 408.229 613.147C402.511 612.973 398.227 612.893 395.377 612.893C390.127 612.893 387.155 612.933 386.463 613.013C384.632 613.227 383.716 613.973 383.716 615.28C383.716 618.947 383.817 624.44 384.021 631.76C384.224 639.093 384.327 644.587 384.327 648.253C384.327 649.467 383.837 650.08 382.861 650.08C382.047 650.08 380.836 649.987 379.228 649.8C377.62 649.627 376.389 649.533 375.535 649.533C374.843 649.533 373.784 649.587 372.36 649.707C370.935 649.84 369.876 649.893 369.184 649.893C368.167 649.893 367.659 649.453 367.659 648.547C367.659 644.04 367.852 637.24 368.239 628.16C368.625 619.08 368.819 612.28 368.819 607.773C368.819 603.573 368.391 589.947 367.536 566.867V566.067C367.496 565.213 368.004 564.72 369.063 564.6C369.388 564.6 371.973 564.667 376.816 564.787C383.207 564.907 389.129 564.933 394.583 564.853C401.951 564.76 411.332 564.36 422.729 563.627C424.276 563.507 425.151 564.173 425.355 565.64C425.315 566.733 425.396 568.413 425.599 570.653C426.088 573.787 426.332 575.813 426.332 576.747Z" fill="#8F9295"/>
<path d="M451.12 648.613C451.12 649.467 450.529 649.893 449.349 649.893C448.616 649.893 447.497 649.84 445.991 649.707C444.485 649.587 443.365 649.533 442.633 649.533C441.86 649.533 440.72 649.587 439.215 649.707C437.708 649.84 436.589 649.893 435.856 649.893C434.839 649.893 434.329 649.427 434.329 648.493C434.329 643.853 434.544 636.867 434.971 627.52C435.399 618.173 435.612 611.173 435.612 606.48C435.612 601.973 435.399 595.187 434.971 586.12C434.544 577.067 434.329 570.28 434.329 565.76C434.329 564.747 434.797 564.24 435.735 564.24C436.508 564.24 437.688 564.293 439.275 564.413C440.863 564.547 442.064 564.6 442.877 564.6C443.611 564.6 444.709 564.547 446.175 564.413C447.64 564.293 448.739 564.24 449.472 564.24C450.529 564.24 451.059 564.64 451.059 565.453C451.059 570.013 450.896 576.853 450.571 585.973C450.245 595.093 450.081 601.933 450.081 606.48C450.081 611.173 450.255 618.187 450.601 627.547C450.947 636.907 451.12 643.933 451.12 648.613Z" fill="#8F9295"/>
<path d="M503.511 117.44C503.333 117.267 503.032 117.227 502.667 117.24C502.639 117.24 502.701 117.147 502.675 117.147C502.677 117.12 502.535 117.24 502.537 117.213C502.552 116.84 502.555 116.493 502.377 116.307L503.511 117.44Z" fill="#8F9295"/>
<path d="M499.692 120.133L499.371 119.107L499.253 119L499.215 118.96L499.063 118.8L499.811 117.547C499.812 117.507 499.292 117.987 499.289 117.947C499.291 117.96 498.768 118.507 498.78 118.52H498.777L499.601 117.747L500.32 116.92L502.06 117.12L502.407 116.773L501.592 115.387L503.137 114.573L503.925 115.253L503.088 116.093L504.331 117.333L504.435 117.44L505.015 119.08L504.816 118.853L504.431 119.24L504.417 119.773C504.044 120 503.328 119.76 502.971 119.773C503.053 119.8 502.949 119.64 502.988 119.64L501.636 119.813L499.692 120.133Z" fill="#8F9295"/>
<path d="M503.932 193.4C459.049 171.8 443.759 156.533 426.877 115.867C454.591 114.347 479.905 114.213 505.316 114.427C505.313 114.453 505.315 114.493 505.312 114.52C505.34 114.507 505.371 114.52 505.399 114.507C505.608 140.053 505.492 165.533 503.932 193.4Z" fill="#8F9295"/>
<path d="M502.769 117.053C502.771 117.027 502.769 117 502.773 116.973C502.8 116.973 502.828 116.973 502.852 116.973C502.852 117 502.849 117.027 502.855 117.053C502.828 117.053 502.796 117.053 502.769 117.053Z" fill="#8F9295"/>
<path d="M236.217 219.253C194.639 196.36 108.5 237.467 109.472 333.973C134.104 332.573 171.148 280.4 189.384 302.773C204.391 269.387 220.083 241.893 236.217 219.253Z" fill="#8F9295"/>
<path d="M290.188 441.467C274.495 447.88 257.348 454.44 239.247 460.547C197.971 438.893 178.497 420.6 158.992 380.867H158.988C165.349 362.52 171.656 345.627 178.064 329.92C187.408 376 246.133 433.133 290.188 441.467Z" fill="#8F9295"/>
<path d="M236.148 463.64C226.976 466.733 217.488 469.787 207.668 472.8C207.668 472.8 205.259 470.48 201.199 466.507C191.532 457.08 172.525 438.4 154.512 419.893C151.988 417.307 149.48 414.707 147.021 412.16C150.031 402.333 153.087 392.853 156.184 383.68C175.736 423.36 194.871 441.987 236.148 463.64Z" fill="#8F9295"/>
<path d="M171.045 499.107C166.987 502.04 160.828 499.227 159.969 494.013C158.463 484.84 163.344 475.6 154.981 478.707C146.269 489.613 108.212 519.987 103.819 509.56C100.614 500.933 124.124 481.56 118.703 477.653C113.627 481.627 103.448 489.067 103.333 480.4C113.528 443.293 152.023 422.92 156.207 418.2C174.221 436.707 193.228 455.387 202.895 464.813C198.911 477.587 180.712 492.12 171.045 499.107Z" fill="#8F9295"/>
<path d="M325.483 293.107C294.307 261.933 292.245 213.267 320.885 184.627C349.525 155.987 398.188 158.053 429.364 189.227C460.54 220.4 462.601 269.067 433.961 297.707C405.321 326.347 356.659 324.28 325.483 293.107ZM279.005 339.733C267.771 328.507 267.067 310.933 277.433 300.56C287.801 290.187 305.375 290.893 316.611 302.133C327.844 313.36 328.549 330.933 318.181 341.307C307.815 351.68 290.24 350.973 279.005 339.733ZM233.723 385.013C222.488 373.787 221.784 356.213 232.151 345.84C242.519 335.48 260.092 336.173 271.328 347.413C282.561 358.653 283.267 376.227 272.899 386.587C262.532 396.96 244.957 396.253 233.723 385.013ZM503.084 197.64C458.201 176.04 439.52 157.387 422.637 116.72C340.681 121.213 252.589 152.747 181.747 326.24C191.091 372.32 249.525 429.747 293.58 438.08C466.759 367.373 498.484 279.48 503.084 197.64Z" fill="#8F9295"/>
<path d="M400.504 383.707C377.004 400.453 349.287 415.973 317.101 430.427C338.707 448.747 286.991 485.573 285.603 510.093C381.827 511.067 422.971 425.413 400.504 383.707Z" fill="#8F9295"/>
<rect x="85" y="525" width="4012" height="222" fill="white"/>
</g>
</svg>
