<svg width="619" height="619" viewBox="0 0 619 619" fill="none" xmlns="http://www.w3.org/2000/svg">
<mask id="mask0_3_276" style="mask-type:alpha" maskUnits="userSpaceOnUse" x="0" y="0" width="619" height="619">
<circle cx="309.5" cy="309.5" r="309.5" fill="#D9D9D9"/>
</mask>
<g mask="url(#mask0_3_276)">
<path d="M3356.67 780H-910V-2420H3356.67V780Z" fill="white"/>
<path d="M178.457 565.28C177.643 566.627 176.524 568.667 175.1 571.387C174.652 572.653 173.857 574.44 172.719 576.76C172.473 577.12 172.148 577.307 171.741 577.307C171.783 577.307 169.819 576.587 165.849 575.147C161.881 573.693 158.615 572.973 156.051 572.973C148.561 572.973 144.816 576.267 144.816 582.867C144.816 586.533 147.441 589.72 152.692 592.453C161.525 597.053 166.409 599.693 167.345 600.387C172.596 604.573 175.221 610.24 175.221 617.36C175.221 626.48 171.619 633.667 164.415 638.907C157.943 643.64 149.985 646 140.543 646C136.147 646 133.785 645.507 133.46 644.533C133.297 642.987 132.931 640.72 132.361 637.747C132.036 636.533 131.527 634.693 130.835 632.253C130.712 631.893 130.652 631.547 130.652 631.213C130.652 630.653 130.957 630.36 131.568 630.36C132.544 630.36 134.04 630.467 136.055 630.667C138.069 630.88 139.585 630.973 140.604 630.973C153.221 630.973 159.531 626.907 159.531 618.76C159.531 614.773 156.987 611.32 151.899 608.387C142.619 603.093 137.876 600.347 137.673 600.147C132.544 595.987 129.98 590.413 129.98 583.413C129.98 575.84 132.463 569.773 137.428 565.213C142.272 560.827 148.54 558.627 156.233 558.627C159.489 558.627 163.235 559.16 167.468 560.213C172.067 561.4 175.527 562.813 177.847 564.493C178.051 564.653 178.253 564.92 178.457 565.28Z" fill="#8F9295"/>
<path d="M241.709 591.653C241.709 585.547 240.061 580.667 236.764 577C233.345 573.173 228.624 571.267 222.6 571.267C220.728 571.267 217.389 571.427 212.587 571.747C207.092 572.08 204.263 572.4 204.1 572.733C203.816 573.213 203.673 580.213 203.673 593.733C203.673 595.44 203.724 598 203.825 601.427C203.927 604.84 203.979 607.413 203.979 609.12C203.979 609.48 204.425 609.773 205.321 609.973C207.56 610.427 213.768 610.64 223.943 610.64C229.641 610.64 234.079 608.88 237.253 605.333C240.224 601.96 241.709 597.4 241.709 591.653ZM257.096 590.747C257.096 600.307 254.511 607.96 249.341 613.693C244.009 619.6 236.623 622.547 227.179 622.547C224.859 622.547 221.348 622.453 216.647 622.28C211.945 622.093 208.415 622 206.055 622C204.752 622 204.1 622.84 204.1 624.507C204.1 626.667 204.232 629.893 204.497 634.213C204.761 638.52 204.895 641.76 204.895 643.92C204.895 644.613 204.507 644.96 203.733 644.96C202.879 644.96 201.587 644.867 199.857 644.68C198.127 644.493 196.835 644.413 195.98 644.413C195.248 644.413 194.169 644.467 192.744 644.587C191.32 644.707 190.261 644.773 189.569 644.773C188.552 644.773 188.043 644.147 188.043 642.88C188.043 638.44 188.236 631.747 188.623 622.8C189.009 613.84 189.203 607.12 189.203 602.64C189.203 589.947 188.735 576.307 187.799 561.733L187.737 560.827C187.697 559.933 188.227 559.48 189.325 559.48C191.523 559.48 194.831 559.507 199.247 559.547C203.663 559.587 206.991 559.6 209.229 559.6C211.141 559.6 214.012 559.52 217.837 559.36C221.664 559.2 224.533 559.12 226.447 559.12C235.441 559.12 242.829 562.173 248.609 568.267C254.267 574.253 257.096 581.747 257.096 590.747Z" fill="#8F9295"/>
<path d="M331.888 601.733C331.888 593.76 329.405 586.813 324.439 580.907C319.229 574.64 312.696 571.507 304.84 571.507C297.067 571.507 290.595 574.68 285.425 581.027C280.541 586.973 278.099 593.933 278.099 601.92C278.099 609.853 280.541 616.787 285.425 622.733C290.595 629.08 297.067 632.253 304.84 632.253C312.737 632.253 319.291 629.08 324.5 622.733C329.425 616.787 331.888 609.787 331.888 601.733ZM346.601 601.92C346.601 614 342.735 624.4 335.001 633.107C326.943 642.147 316.929 646.667 304.963 646.667C292.955 646.667 282.943 642.173 274.924 633.173C267.191 624.507 263.323 614.08 263.323 601.92C263.323 589.867 267.231 579.467 275.045 570.72C283.105 561.64 293.077 557.093 304.963 557.093C316.888 557.093 326.881 561.64 334.94 570.72C342.715 579.427 346.601 589.827 346.601 601.92Z" fill="#8F9295"/>
<path d="M405.885 588.907C405.885 581.547 403.769 576.613 399.536 574.133C396.403 572.307 390.765 571.387 382.624 571.387C376.031 571.387 372.672 571.92 372.551 572.973C372.265 575.173 372.123 581.053 372.123 590.613V602.28C372.245 602.36 372.509 602.44 372.916 602.52C373.649 602.6 374.849 602.707 376.519 602.827C380.385 603.04 384.557 603.133 389.035 603.133C400.269 603.133 405.885 598.4 405.885 588.907ZM422.615 644.28C422.615 644.613 422.289 644.773 421.639 644.773C420.864 644.773 419.684 644.707 418.097 644.587C416.509 644.467 415.329 644.413 414.556 644.413C413.701 644.413 412.429 644.467 410.74 644.587C409.051 644.707 407.779 644.773 406.924 644.773C405.988 644.773 405.276 644.267 404.787 643.253C403.484 640.48 399.78 631.907 393.675 617.547C393.064 616.08 391.579 615.187 389.219 614.853C388.689 614.813 386.837 614.8 383.663 614.8C378.045 614.8 374.708 614.88 373.649 615.04C372.795 615.16 372.367 616.2 372.367 618.16C372.367 621 372.499 625.267 372.764 630.947C373.028 636.627 373.16 640.867 373.16 643.68C373.16 644.533 372.753 644.96 371.94 644.96C371.125 644.96 369.895 644.867 368.245 644.68C366.597 644.493 365.345 644.413 364.491 644.413C363.799 644.413 362.74 644.467 361.316 644.587C359.892 644.707 358.833 644.773 358.141 644.773C357.124 644.773 356.615 644.307 356.615 643.373C356.615 638.853 356.828 632.067 357.256 623.013C357.683 613.947 357.897 607.16 357.897 602.64C357.897 589.787 357.429 576.067 356.493 561.493L356.432 560.52C356.391 559.707 357.245 559.293 358.996 559.293C362.496 559.293 367.737 559.2 374.717 559.027C381.699 558.84 386.919 558.747 390.379 558.747C399.415 558.747 406.66 560.907 412.113 565.213C418.137 569.987 421.149 576.733 421.149 585.493C421.149 591.52 420.336 596.253 418.708 599.72C416.997 603.373 413.823 606.853 409.183 610.16C408.409 610.68 408.023 611.2 408.023 611.68C408.023 612.253 410.455 617.667 415.319 627.92C420.183 638.187 422.615 643.64 422.615 644.28Z" fill="#8F9295"/>
<path d="M487.693 570.653C487.693 571.707 487.333 572.24 486.6 572.24C485.467 572.24 478.253 572 464.987 571.507C464.627 583.92 464.44 593.88 464.44 601.36C464.44 606.04 464.613 613.067 464.96 622.427C465.307 631.787 465.48 638.813 465.48 643.493C465.48 644.347 464.88 644.773 463.707 644.773C462.973 644.773 461.853 644.707 460.347 644.587C458.84 644.467 457.707 644.413 456.933 644.413C456.2 644.413 455.08 644.467 453.573 644.587C452.067 644.707 450.947 644.773 450.213 644.773C449.2 644.773 448.68 644.267 448.68 643.253C448.68 638.613 448.88 631.64 449.267 622.333C449.653 613.04 449.84 606.04 449.84 601.36C449.84 594.12 449.627 584.173 449.173 571.507C438.667 572.16 430.973 572.48 426.093 572.48C425.6 572.48 425.36 572.28 425.36 571.88C425.36 571.147 425.547 570.08 425.907 568.693C426.36 566.907 426.627 565.853 426.707 565.52C426.787 564.107 427.067 562.133 427.56 559.6C427.76 559.08 428.107 558.813 428.6 558.813L429.333 558.867C443.733 559.72 453.24 560.147 457.84 560.147C461.92 560.147 468.573 559.853 477.813 559.24C484.12 558.827 486.747 558.627 485.68 558.627C486.747 558.627 487.333 558.987 487.453 559.72C487.373 559.28 487.333 561.253 487.333 565.653C487.333 566.173 487.4 567 487.52 568.12C487.64 569.24 487.693 570.08 487.693 570.653Z" fill="#8F9295"/>
<path d="M238.557 429.493L276.525 377.8H340.279L378.247 429.493L361.239 481.92C344.647 486.96 327.056 489.68 308.84 489.68C290.272 489.68 272.351 486.853 255.476 481.64L238.557 429.493ZM249.168 138.32L293.135 170.28V237.667L243.377 273.973L181.295 253.28L164.184 200.68C185.512 172.253 215.015 150.293 249.168 138.32ZM435.507 253.28L373.427 273.973L321.313 235.947V171.987L367.908 138.107C401.991 149.92 431.467 171.667 452.88 199.867L435.507 253.28ZM401.031 412.92L362.867 360.947L382.391 300.693L444.24 280.067L489.533 312.947C488.72 350.093 476.64 384.52 456.587 412.933L401.031 412.92ZM172.563 280.067L234.413 300.68L253.937 360.947L215.772 412.92L161.1 412.933C140.928 384.373 128.831 349.72 128.136 312.333L172.563 280.067ZM477.56 179.893L477.36 179.653C451.973 146.587 417.921 121.92 378.893 108.32C356.452 100.507 332.925 96.5334 308.965 96.5334C284.691 96.5334 260.887 100.6 238.213 108.6C198.972 122.48 164.873 147.427 139.6 180.747C111.451 217.88 96.572 262.213 96.572 308.933C96.572 309.72 96.572 310.427 96.5813 311.133C96.584 311.933 96.5947 312.667 96.6067 313.44C97.472 355.4 110.516 395.733 134.329 430.053C162.555 470.733 203.632 500.787 247.028 512.507L248.355 512.867H248.805C268.045 518.547 288.255 521.413 308.892 521.413C329.205 521.413 349.419 518.493 368.965 512.72L369.72 512.467C369.737 512.467 369.755 512.453 369.773 512.453C415.479 498.76 455.747 469.453 483.213 429.867C507.44 394.933 520.333 355.24 520.533 315.013L520.68 313.64C520.707 313.16 520.773 312.707 520.827 312.307C520.947 311.373 521.107 310.213 521.107 308.933C521.107 261.733 506.067 217.133 477.56 179.893Z" fill="#8F9295"/>
<rect x="-795" y="520" width="4012" height="222" fill="white"/>
</g>
</svg>
