<svg width="619" height="619" viewBox="0 0 619 619" fill="none" xmlns="http://www.w3.org/2000/svg">
<mask id="mask0_3_276" style="mask-type:alpha" maskUnits="userSpaceOnUse" x="0" y="0" width="619" height="619">
<circle cx="309.5" cy="309.5" r="309.5" fill="#D9D9D9"/>
</mask>
<g mask="url(#mask0_3_276)">
<path d="M2442.67 770H-1824V-2430H2442.67V770Z" fill="white"/>
<path d="M78.7334 561.693C78.7334 562.747 78.3733 563.28 77.64 563.28C76.5067 563.28 69.2934 563.04 56.0267 562.547C55.6667 574.96 55.48 584.92 55.48 592.4C55.48 597.08 55.6534 604.107 56 613.467C56.3467 622.827 56.5201 629.853 56.5201 634.533C56.5201 635.387 55.92 635.813 54.7466 635.813C54.0133 635.813 52.8934 635.747 51.3867 635.627C49.8801 635.507 48.7467 635.44 47.9733 635.44C47.24 635.44 46.12 635.507 44.6133 635.627C43.1066 635.747 41.9867 635.813 41.2534 635.813C40.2401 635.813 39.7201 635.307 39.7201 634.28C39.7201 629.64 39.92 622.68 40.3067 613.373C40.6933 604.08 40.88 597.08 40.88 592.4C40.88 585.16 40.6666 575.2 40.2133 562.547C29.7066 563.2 22.0134 563.52 17.1334 563.52C16.6534 563.52 16.4 563.32 16.4 562.907C16.4 562.187 16.5866 561.12 16.9466 559.733C17.4 557.947 17.6666 556.893 17.7466 556.56C17.8266 555.133 18.1067 553.16 18.6 550.64C18.8 550.107 19.1467 549.853 19.64 549.853L20.3733 549.907C34.7867 550.76 44.28 551.187 48.88 551.187C52.96 551.187 59.6134 550.88 68.8534 550.28C75.1601 549.867 77.7867 549.667 76.7201 549.667C77.7867 549.667 78.3734 550.027 78.4934 550.76C78.4134 550.32 78.3733 552.293 78.3733 556.68C78.3733 557.213 78.44 558.04 78.56 559.16C78.68 560.28 78.7334 561.12 78.7334 561.693Z" fill="#8F9295"/>
<path d="M163.12 634.413C163.12 635.347 162.507 635.813 161.28 635.813C160.6 635.813 159.52 635.747 158.08 635.627C156.64 635.507 155.547 635.44 154.813 635.44C154.04 635.44 152.867 635.507 151.307 635.627C149.733 635.747 148.56 635.813 147.787 635.813C146.853 635.813 146.387 635.347 146.387 634.413C146.387 630.747 146.507 625.253 146.72 617.92C146.947 610.6 147.053 605.107 147.053 601.44C147.053 599.853 146.587 598.933 145.653 598.693C144.44 598.36 137.387 598.2 124.533 598.2C111.707 598.2 104.667 598.36 103.4 598.693C102.507 598.933 102.067 599.853 102.067 601.44C102.067 605.013 102.16 610.413 102.373 617.613C102.573 624.827 102.667 630.213 102.667 633.8C102.667 635.147 102.16 635.813 101.147 635.813C100.373 635.813 99.2133 635.747 97.6666 635.627C96.12 635.507 94.96 635.44 94.1867 635.44C93.4534 635.44 92.36 635.507 90.92 635.627C89.48 635.747 88.3867 635.813 87.6534 635.813C86.64 635.813 86.1333 635.347 86.1333 634.413C86.1333 629.933 86.3466 623.2 86.7733 614.227C87.1999 605.253 87.4132 598.533 87.4132 594.053C87.4132 589.333 87.1999 582.24 86.7733 572.773C86.3466 563.307 86.1333 556.213 86.1333 551.493C86.1333 550.6 86.64 550.147 87.6534 550.147C88.3867 550.147 89.5066 550.213 91.0132 550.333C92.5199 550.453 93.6533 550.52 94.4267 550.52C95.16 550.52 96.3067 550.453 97.8534 550.333C99.4 550.213 100.533 550.147 101.267 550.147C102.2 550.147 102.667 550.52 102.667 551.253C102.667 554.747 102.52 560.013 102.213 567.04C101.907 574.053 101.76 579.32 101.76 582.813C101.76 583.96 102.187 584.653 103.04 584.893C104.053 585.253 111.227 585.44 124.533 585.44C137.56 585.44 144.68 585.253 145.893 584.893C146.84 584.653 147.307 583.773 147.307 582.267C147.307 578.853 147.187 573.693 146.973 566.813C146.747 559.947 146.627 554.787 146.627 551.373C146.627 550.56 147.107 550.147 148.04 550.147C148.813 550.147 149.933 550.213 151.427 550.333C152.907 550.453 154.04 550.52 154.813 550.52C155.547 550.52 156.64 550.453 158.107 550.333C159.573 550.213 160.68 550.147 161.413 550.147C162.467 550.147 163 550.6 163 551.493C163 556.213 162.787 563.307 162.387 572.773C161.973 582.24 161.773 589.333 161.773 594.053C161.773 598.533 162 605.253 162.44 614.227C162.893 623.2 163.12 629.933 163.12 634.413Z" fill="#8F9295"/>
<path d="M224.907 579.947C224.907 572.587 222.787 567.653 218.56 565.173C215.427 563.347 209.787 562.427 201.64 562.427C195.053 562.427 191.693 562.96 191.573 564.013C191.28 566.213 191.147 572.093 191.147 581.653V593.32C191.267 593.4 191.533 593.48 191.933 593.56C192.667 593.64 193.867 593.747 195.533 593.867C199.4 594.067 203.573 594.173 208.053 594.173C219.293 594.173 224.907 589.427 224.907 579.947ZM241.627 635.32C241.627 635.653 241.307 635.813 240.653 635.813C239.88 635.813 238.707 635.747 237.12 635.627C235.533 635.507 234.347 635.44 233.573 635.44C232.72 635.44 231.453 635.507 229.76 635.627C228.067 635.747 226.8 635.813 225.947 635.813C225 635.813 224.293 635.307 223.8 634.28C222.507 631.52 218.8 622.947 212.693 608.587C212.08 607.12 210.6 606.227 208.24 605.893C207.707 605.853 205.853 605.84 202.68 605.84C197.067 605.84 193.72 605.92 192.667 606.08C191.813 606.2 191.387 607.24 191.387 609.187C191.387 612.04 191.52 616.307 191.787 621.987C192.053 627.667 192.173 631.907 192.173 634.707C192.173 635.573 191.773 636 190.96 636C190.147 636 188.907 635.907 187.267 635.72C185.613 635.533 184.36 635.44 183.507 635.44C182.813 635.44 181.76 635.507 180.333 635.627C178.907 635.747 177.853 635.813 177.16 635.813C176.147 635.813 175.627 635.347 175.627 634.413C175.627 629.893 175.853 623.107 176.28 614.04C176.707 604.987 176.92 598.2 176.92 593.68C176.92 580.827 176.453 567.107 175.507 552.533L175.453 551.56C175.413 550.747 176.267 550.333 178.013 550.333C181.52 550.333 186.76 550.24 193.733 550.067C200.72 549.88 205.933 549.787 209.4 549.787C218.427 549.787 225.68 551.947 231.133 556.253C237.16 561.013 240.173 567.773 240.173 576.533C240.173 582.547 239.36 587.293 237.72 590.76C236.013 594.413 232.84 597.893 228.2 601.2C227.427 601.72 227.04 602.227 227.04 602.72C227.04 603.293 229.467 608.707 234.333 618.96C239.2 629.213 241.627 634.667 241.627 635.32Z" fill="#8F9295"/>
<path d="M266.733 634.533C266.733 635.387 266.133 635.813 264.96 635.813C264.226 635.813 263.106 635.747 261.6 635.627C260.093 635.507 258.973 635.44 258.24 635.44C257.466 635.44 256.333 635.507 254.826 635.627C253.32 635.747 252.2 635.813 251.466 635.813C250.44 635.813 249.933 635.347 249.933 634.413C249.933 629.773 250.146 622.773 250.573 613.44C251 604.093 251.213 597.08 251.213 592.4C251.213 587.88 251 581.093 250.573 572.04C250.146 562.987 249.933 556.2 249.933 551.68C249.933 550.667 250.4 550.147 251.346 550.147C252.12 550.147 253.293 550.213 254.88 550.333C256.466 550.453 257.666 550.52 258.48 550.52C259.213 550.52 260.32 550.453 261.786 550.333C263.253 550.213 264.346 550.147 265.08 550.147C266.133 550.147 266.666 550.56 266.666 551.373C266.666 555.933 266.506 562.773 266.173 571.893C265.853 581 265.693 587.84 265.693 592.4C265.693 597.08 265.866 604.107 266.213 613.467C266.56 622.827 266.733 629.853 266.733 634.533Z" fill="#8F9295"/>
<path d="M337.12 622.56C337.12 628.267 336.813 632.307 336.213 634.707C335.92 635.893 335.213 636.48 334.066 636.48C331.053 636.48 326.546 636.307 320.52 635.96C314.493 635.613 309.973 635.44 306.96 635.44C304.106 635.44 299.853 635.507 294.2 635.627C288.546 635.747 284.293 635.813 281.44 635.813C280.426 635.813 279.92 635.307 279.92 634.28C279.92 629.853 280.066 623.147 280.373 614.2C280.68 605.24 280.826 598.533 280.826 594.053C280.826 589.333 280.613 582.253 280.186 572.84C279.76 563.413 279.546 556.333 279.546 551.613C279.546 550.72 280.053 550.28 281.08 550.28C281.813 550.28 282.92 550.333 284.426 550.453C285.933 550.573 287.08 550.64 287.853 550.64C288.586 550.64 289.72 550.573 291.266 550.453C292.813 550.333 293.96 550.28 294.693 550.28C295.666 550.28 296.16 550.667 296.16 551.44C296.16 555.747 295.986 562.24 295.666 570.907C295.346 579.587 295.173 586.093 295.173 590.453C295.173 592.56 295.173 595.787 295.173 600.093C295.133 604.413 295.12 607.627 295.12 609.747C295.12 618.773 295.48 623.293 296.213 623.293C311.24 623.293 322.573 622.933 330.226 622.2C330.586 622.16 331.52 622.013 333.026 621.773C334.253 621.52 335.186 621.4 335.84 621.4C336.693 621.4 337.12 621.787 337.12 622.56Z" fill="#8F9295"/>
<path d="M401.773 622.56C401.773 628.267 401.48 632.307 400.867 634.707C400.573 635.893 399.867 636.48 398.733 636.48C395.72 636.48 391.2 636.307 385.173 635.96C379.147 635.613 374.627 635.44 371.613 635.44C368.773 635.44 364.52 635.507 358.853 635.627C353.2 635.747 348.947 635.813 346.093 635.813C345.08 635.813 344.573 635.307 344.573 634.28C344.573 629.853 344.72 623.147 345.027 614.2C345.333 605.24 345.493 598.533 345.493 594.053C345.493 589.333 345.28 582.253 344.84 572.84C344.413 563.413 344.2 556.333 344.2 551.613C344.2 550.72 344.72 550.28 345.733 550.28C346.467 550.28 347.587 550.333 349.093 550.453C350.6 550.573 351.733 550.64 352.507 550.64C353.24 550.64 354.387 550.573 355.933 550.453C357.48 550.333 358.613 550.28 359.347 550.28C360.32 550.28 360.813 550.667 360.813 551.44C360.813 555.747 360.653 562.24 360.32 570.907C360 579.587 359.84 586.093 359.84 590.453C359.84 592.56 359.84 595.787 359.84 600.093C359.8 604.413 359.773 607.627 359.773 609.747C359.773 618.773 360.147 623.293 360.867 623.293C375.893 623.293 387.227 622.933 394.88 622.2C395.253 622.16 396.187 622.013 397.693 621.773C398.907 621.52 399.84 621.4 400.493 621.4C401.347 621.4 401.773 621.787 401.773 622.56Z" fill="#8F9295"/>
<path d="M466.68 623.547C466.68 624.187 466.52 625.133 466.187 626.347C465.827 627.893 465.6 628.827 465.52 629.16C465.4 630.627 465.12 632.76 464.667 635.573C464.467 636.307 463.933 636.667 463.08 636.667C462.667 636.667 461.893 636.587 460.76 636.427C455.747 635.693 448 635.32 437.493 635.32C434.52 635.32 430.053 635.4 424.067 635.573C418.08 635.733 413.6 635.813 410.627 635.813C409.293 635.813 408.613 635.227 408.613 634.04C408.613 629.48 408.867 622.64 409.387 613.493C409.893 604.36 410.147 597.507 410.147 592.947C410.147 588.307 409.907 579.667 409.413 567C409.333 563.747 409.107 558.88 408.733 552.413L408.68 551.56C408.64 550.627 409.173 550.147 410.267 550.147C413.12 550.147 417.387 550.24 423.093 550.4C428.787 550.56 433.067 550.64 435.907 550.64C438.64 550.64 442.72 550.56 448.147 550.4C453.587 550.24 457.667 550.147 460.387 550.147C462.307 550.147 463.347 550.747 463.507 551.92C464.36 557.293 464.787 560.627 464.787 561.933C464.787 562.867 464.347 563.347 463.44 563.347C459.987 563.347 454.747 563.147 447.72 562.76C440.707 562.373 435.427 562.187 431.88 562.187C428.547 562.187 426.44 562.627 425.56 563.52C424.68 564.413 424.253 566.64 424.253 570.173V579.28C424.253 581.76 424.307 583.2 424.427 583.613C424.8 584.867 425.853 585.507 427.6 585.507C428.093 585.507 428.787 585.48 429.68 585.44C430.613 585.44 431.307 585.44 431.76 585.44C439.733 585.44 446.893 585.293 453.253 585.013C455.733 584.933 458.667 584.733 462.04 584.4C462.893 584.32 463.32 584.693 463.32 585.507C463.32 586.8 463.173 588.8 462.867 591.48C462.56 594.173 462.413 596.187 462.413 597.533C462.413 598.267 461.8 598.627 460.573 598.627C460.093 598.627 458.28 598.493 455.147 598.2C452.867 597.96 447.733 597.84 439.76 597.84C433.04 597.84 428.787 597.92 427 598.08C425.373 598.2 424.427 599.053 424.187 600.64C424.227 600.36 424.253 601.92 424.253 605.347V614.387C424.253 618.613 424.893 621.267 426.2 622.32C427.213 623.173 429.76 623.6 433.84 623.6L440.547 623.547C443.4 623.547 451.4 623.053 464.547 622.08L465.453 622.013C466.28 621.933 466.68 622.44 466.68 623.547Z" fill="#8F9295"/>
<path d="M525.413 579.947C525.413 572.587 523.293 567.653 519.067 565.173C515.933 563.347 510.293 562.427 502.16 562.427C495.56 562.427 492.2 562.96 492.08 564.013C491.8 566.213 491.653 572.093 491.653 581.653V593.32C491.773 593.4 492.04 593.48 492.44 593.56C493.173 593.64 494.373 593.747 496.053 593.867C499.92 594.067 504.093 594.173 508.56 594.173C519.8 594.173 525.413 589.427 525.413 579.947ZM542.147 635.32C542.147 635.653 541.813 635.813 541.173 635.813C540.4 635.813 539.213 635.747 537.627 635.627C536.04 635.507 534.853 635.44 534.08 635.44C533.227 635.44 531.96 635.507 530.267 635.627C528.587 635.747 527.307 635.813 526.453 635.813C525.52 635.813 524.8 635.307 524.32 634.28C523.013 631.52 519.307 622.947 513.2 608.587C512.6 607.12 511.107 606.227 508.747 605.893C508.213 605.853 506.36 605.84 503.187 605.84C497.573 605.84 494.24 605.92 493.173 606.08C492.32 606.2 491.893 607.24 491.893 609.187C491.893 612.04 492.027 616.307 492.293 621.987C492.56 627.667 492.693 631.907 492.693 634.707C492.693 635.573 492.28 636 491.467 636C490.653 636 489.427 635.907 487.773 635.72C486.133 635.533 484.88 635.44 484.027 635.44C483.333 635.44 482.267 635.507 480.84 635.627C479.427 635.747 478.36 635.813 477.667 635.813C476.653 635.813 476.147 635.347 476.147 634.413C476.147 629.893 476.36 623.107 476.787 614.04C477.213 604.987 477.427 598.2 477.427 593.68C477.427 580.827 476.96 567.107 476.027 552.533L475.96 551.56C475.92 550.747 476.773 550.333 478.52 550.333C482.027 550.333 487.267 550.24 494.253 550.067C501.227 549.88 506.453 549.787 509.907 549.787C518.947 549.787 526.187 551.947 531.64 556.253C537.667 561.013 540.68 567.773 540.68 576.533C540.68 582.547 539.867 587.293 538.24 590.76C536.533 594.413 533.347 597.893 528.707 601.2C527.933 601.72 527.547 602.227 527.547 602.72C527.547 603.293 529.987 608.707 534.853 618.96C539.707 629.213 542.147 634.667 542.147 635.32Z" fill="#8F9295"/>
<path d="M346.387 389.947C346.2 391.373 345.893 392.707 345.627 393.733C345.56 394 345.493 394.24 345.44 394.453C345.373 394.693 345.333 394.88 345.307 395.053C345.227 395.387 345.16 395.627 345.16 395.627L344.053 396.187C344.053 396.187 343.84 396.053 343.507 395.747C343.333 395.6 343.12 395.4 342.96 395.147C342.787 394.907 342.573 394.6 342.413 394.28C342.267 393.947 342.107 393.573 341.987 393.173C341.893 392.787 341.773 392.36 341.733 391.933C341.693 391.507 341.627 391.053 341.653 390.613C341.653 390.173 341.707 389.72 341.773 389.293C342.027 387.547 342.733 385.947 343.507 384.867C343.893 384.333 344.267 383.907 344.573 383.627C344.867 383.347 345.08 383.2 345.08 383.2L346.24 383.64C346.24 383.64 346.307 383.88 346.373 384.253C346.44 384.64 346.52 385.173 346.56 385.773C346.64 387 346.573 388.52 346.387 389.947ZM360.533 388.56C360.253 386.36 359.733 384.24 359.107 382.173C358.52 380.267 357.893 378.373 357.227 376.52C356.52 374.56 355.76 372.627 354.973 370.72C354.24 368.893 353.44 367.107 352.667 365.307C352.44 364.8 352.2 364.307 351.96 363.773C351.72 364.093 351.52 364.36 351.32 364.653C350 366.547 348.667 368.44 347.387 370.373C346.253 372.067 345.133 373.773 344.08 375.533C343.013 377.32 342.013 379.16 341.013 381.013C340.067 382.76 339.227 384.587 338.613 386.533C338.36 387.36 338.147 388.24 338.053 389.12C337.853 391.08 338.027 393.013 338.533 394.88C339.067 396.8 339.907 398.493 341.08 399.92C342.533 401.68 344.267 402.893 346.307 403.44C346.653 403.533 346.987 403.627 347.333 403.72C347.76 403.76 348.173 403.8 348.6 403.853C348.68 403.84 348.76 403.813 348.84 403.813C350.08 403.827 351.307 403.613 352.493 403.133C354.387 402.373 356.027 401.12 357.413 399.36C358.707 397.733 359.627 395.84 360.173 393.693C360.6 392 360.76 390.293 360.533 388.56Z" fill="#8F9295"/>
<path d="M325.293 465.72C325.093 467.173 324.786 468.52 324.52 469.573C324.453 469.84 324.386 470.093 324.333 470.307C324.266 470.547 324.226 470.747 324.186 470.907C324.12 471.253 324.04 471.507 324.04 471.507L322.92 472.067C322.92 472.067 322.693 471.933 322.36 471.627C322.186 471.467 321.973 471.267 321.813 471.013C321.64 470.76 321.413 470.453 321.253 470.12C321.106 469.787 320.933 469.4 320.813 469.013C320.72 468.613 320.6 468.173 320.56 467.747C320.52 467.307 320.453 466.84 320.48 466.4C320.48 465.947 320.52 465.493 320.6 465.053C320.853 463.28 321.573 461.653 322.36 460.56C322.76 460.013 323.146 459.587 323.453 459.293C323.746 459.013 323.96 458.867 323.96 458.867L325.146 459.307C325.146 459.307 325.213 459.547 325.28 459.933C325.346 460.32 325.426 460.867 325.466 461.48C325.546 462.72 325.48 464.267 325.293 465.72ZM339.68 464.307C339.386 462.067 338.866 459.92 338.226 457.813C337.626 455.88 336.986 453.96 336.306 452.067C335.586 450.067 334.826 448.107 334.026 446.16C333.28 444.307 332.466 442.493 331.68 440.667C331.453 440.147 331.213 439.653 330.96 439.107C330.72 439.427 330.506 439.707 330.306 439.987C328.973 441.933 327.613 443.853 326.306 445.813C325.16 447.533 324.026 449.267 322.946 451.067C321.866 452.88 320.84 454.76 319.826 456.627C318.866 458.413 318.013 460.267 317.386 462.253C317.133 463.093 316.92 463.987 316.826 464.88C316.613 466.88 316.786 468.84 317.306 470.733C317.853 472.693 318.706 474.413 319.893 475.867C321.373 477.653 323.133 478.88 325.213 479.44C325.56 479.533 325.906 479.64 326.253 479.733C326.68 479.773 327.12 479.813 327.546 479.867C327.626 479.853 327.706 479.827 327.786 479.827C329.053 479.84 330.293 479.613 331.506 479.133C333.426 478.36 335.093 477.093 336.506 475.307C337.813 473.64 338.746 471.72 339.306 469.533C339.746 467.813 339.906 466.08 339.68 464.307Z" fill="#8F9295"/>
<path d="M374.04 322.76C373.827 324.387 373.507 325.893 373.213 327.053C373.133 327.36 373.067 327.64 373.013 327.88C372.947 328.147 372.893 328.36 372.867 328.547C372.787 328.933 372.707 329.213 372.707 329.213L371.547 329.853C371.547 329.853 371.307 329.707 370.96 329.36C370.787 329.187 370.56 328.96 370.4 328.68C370.213 328.4 369.987 328.067 369.827 327.693C369.667 327.32 369.493 326.893 369.373 326.453C369.28 326.013 369.16 325.52 369.107 325.04C369.067 324.56 369.013 324.053 369.04 323.56C369.053 323.053 369.093 322.547 369.173 322.053C369.453 320.067 370.2 318.253 371.027 317.04C371.44 316.413 371.853 315.947 372.173 315.627C372.48 315.293 372.707 315.133 372.707 315.133L373.933 315.627C373.933 315.627 374 315.893 374.067 316.32C374.133 316.747 374.213 317.347 374.253 318.04C374.333 319.427 374.253 321.147 374.04 322.76ZM388.987 321.093C388.693 318.613 388.173 316.213 387.52 313.88C386.907 311.72 386.267 309.587 385.56 307.48C384.827 305.267 384.04 303.093 383.24 300.92C383.24 300.92 380.653 281.28 388.733 268.667L371.533 274.96C371.533 274.96 381.187 290.107 375.227 300.587C374.013 302.507 372.827 304.453 371.707 306.453C370.573 308.48 369.493 310.573 368.427 312.68C367.413 314.667 366.52 316.733 365.867 318.947C365.587 319.893 365.36 320.893 365.253 321.88C365.027 324.107 365.2 326.293 365.72 328.4C366.267 330.573 367.147 332.48 368.373 334.093C369.893 336.08 371.72 337.44 373.867 338.04C374.227 338.147 374.587 338.253 374.947 338.36C375.4 338.4 375.84 338.453 376.293 338.493C376.373 338.48 376.453 338.467 376.533 338.467C377.853 338.467 379.147 338.2 380.4 337.653C382.4 336.787 384.147 335.36 385.613 333.36C386.987 331.493 387.973 329.347 388.56 326.92C389.027 325 389.213 323.067 388.987 321.093Z" fill="#8F9295"/>
<path d="M290.613 424.293C290.346 426.36 289.907 428.28 289.52 429.773C289.427 430.147 289.333 430.507 289.253 430.813C289.16 431.147 289.107 431.427 289.053 431.667C288.947 432.16 288.853 432.507 288.853 432.507L287.253 433.307C287.253 433.307 286.933 433.12 286.453 432.68C286.213 432.453 285.906 432.173 285.68 431.813C285.44 431.453 285.107 431.027 284.893 430.547C284.68 430.08 284.44 429.533 284.28 428.96C284.133 428.4 283.96 427.787 283.893 427.173C283.84 426.56 283.76 425.893 283.8 425.267C283.8 424.627 283.853 423.987 283.96 423.36C284.32 420.84 285.347 418.533 286.453 416.973C287.027 416.2 287.573 415.587 288 415.187C288.426 414.773 288.733 414.573 288.733 414.573L290.413 415.2C290.413 415.2 290.506 415.547 290.6 416.093C290.706 416.64 290.8 417.4 290.866 418.28C290.986 420.053 290.893 422.24 290.613 424.293ZM311.04 422.293C310.626 419.12 309.88 416.067 308.973 413.08C308.12 410.333 307.227 407.613 306.253 404.92C305.24 402.093 304.146 399.307 303.013 396.547C303.013 396.547 293.893 372.84 315.76 355.96L286.813 363.373C286.813 363.373 300.133 382.747 292.053 396.053C290.427 398.493 288.826 400.96 287.306 403.507C285.76 406.08 284.306 408.733 282.866 411.4C281.506 413.933 280.293 416.56 279.413 419.373C279.04 420.573 278.733 421.84 278.6 423.107C278.306 425.947 278.56 428.72 279.293 431.413C280.053 434.2 281.28 436.627 282.973 438.68C285.053 441.227 287.56 442.973 290.506 443.773C291 443.907 291.493 444.04 291.987 444.173C292.6 444.24 293.213 444.307 293.813 444.36C293.933 444.347 294.04 444.32 294.16 444.32C295.947 444.333 297.72 444.013 299.427 443.32C302.16 442.227 304.533 440.427 306.533 437.893C308.4 435.533 309.72 432.8 310.506 429.707C311.133 427.267 311.36 424.8 311.04 422.293Z" fill="#8F9295"/>
<path d="M206.013 382.867C199.533 376.013 199.667 365.253 206.307 358.84C212.933 352.413 223.56 352.76 230.04 359.6C236.52 366.453 236.4 377.213 229.76 383.627C223.12 390.053 212.493 389.707 206.013 382.867ZM128.32 481.827C121.68 488.253 111.053 487.907 104.573 481.053C98.0932 474.213 98.2266 463.453 104.853 457.027C111.493 450.613 122.12 450.96 128.6 457.8C135.08 464.653 134.947 475.4 128.32 481.827ZM230.493 410.627L270.133 372.253L219.307 318.533L87.8399 445.8C73.4665 459.72 73.1866 483.027 87.2266 497.853C101.253 512.693 124.293 513.44 138.667 499.52L168.293 470.84C166.867 452.587 171.8 435.787 183.76 424.2C195.72 412.627 212.533 408.373 230.493 410.627Z" fill="#8F9295"/>
<path d="M307.707 370.067C311.88 366.027 317.32 364.08 322.733 364.2C324.76 364.253 326.693 363.467 328.053 361.96C328.187 361.813 328.32 361.653 328.467 361.507C329.773 360.027 330.373 358.053 330.173 356.067C329.493 349.667 331.613 343.093 336.507 338.347C340.333 334.653 345.2 332.707 350.147 332.493C352.107 332.413 353.92 331.533 355.16 330.013C355.733 329.307 356.307 328.587 356.88 327.88C357.973 326.52 358.507 324.787 358.387 323.04C357.96 316.88 360.093 310.627 364.8 306.08C367.96 303.013 371.84 301.16 375.893 300.493C377.6 300.213 379.12 299.28 380.16 297.893C380.986 296.8 381.8 295.693 382.626 294.587C383.72 293.12 384.187 291.253 383.907 289.413C382.893 282.707 384.973 275.68 390.133 270.693C393.307 267.613 397.213 265.76 401.28 265.093C403.093 264.8 404.72 263.787 405.773 262.267C406.187 261.667 406.587 261.067 407 260.467C408.187 258.747 408.467 256.573 407.92 254.533C405.933 247.12 407.84 238.96 413.613 233.36C416.987 230.093 421.16 228.2 425.493 227.653C427.533 227.387 429.373 226.267 430.453 224.507C430.733 224.067 431 223.627 431.267 223.173C432.267 221.547 432.52 219.573 432.04 217.68C430.16 210.347 432.08 202.293 437.8 196.747C440.507 194.147 443.72 192.4 447.12 191.533C448.96 191.067 450.52 189.853 451.413 188.173C452.187 186.733 452.947 185.293 453.68 183.853C454.467 182.36 454.667 180.6 454.24 178.933C452.4 171.613 454.333 163.6 460.026 158.08C461.773 156.4 463.733 155.08 465.813 154.12C467.36 153.413 468.573 152.133 469.213 150.533C470.293 147.88 471.307 145.253 472.253 142.667C472.84 141.067 472.88 139.28 472.227 137.68C468.96 129.64 470.573 120.16 477.053 113.907C477.573 113.387 478.12 112.92 478.68 112.48C480.093 111.373 480.973 109.707 481.173 107.907C482.827 93.0933 480.493 81.04 472.92 73.04L224.64 313.373L298.933 391.88L299.173 391.64C300.587 390.28 301.333 388.347 301.253 386.347C301.013 380.413 303.173 374.453 307.707 370.067Z" fill="#8F9295"/>
<rect x="-1709" y="510" width="4012" height="222" fill="white"/>
</g>
</svg>
