<svg width="619" height="619" viewBox="0 0 619 619" fill="none" xmlns="http://www.w3.org/2000/svg">
<mask id="mask0_3_276" style="mask-type:alpha" maskUnits="userSpaceOnUse" x="0" y="0" width="619" height="619">
<circle cx="309.5" cy="309.5" r="309.5" fill="#D9D9D9"/>
</mask>
<g mask="url(#mask0_3_276)">
<path d="M1567.67 819H-2699V-2381H1567.67V819Z" fill="white"/>
<path d="M261.573 631.08C261.573 631.413 257.493 640.12 249.36 657.213C246.627 663.16 242.453 672.027 236.84 683.84C236.307 684.933 235.76 685.48 235.187 685.48H224.2C223.427 685.48 222.8 684.933 222.307 683.84C219.293 676.747 214.96 665.6 209.307 650.373C206.493 657.867 202.12 669.013 196.173 683.84C195.733 684.933 195.12 685.48 194.347 685.48H183.413C182.813 685.48 182.24 684.933 181.707 683.84C178.907 677.933 174.693 669.053 169.067 657.213C161.293 641.013 157.413 632.307 157.413 631.08C157.413 627.747 157.507 622.72 157.72 616C157.92 609.293 158.013 604.267 158.013 600.92C158.013 600.187 158.533 599.827 159.547 599.827C160.28 599.827 161.387 599.88 162.88 600.013C164.36 600.133 165.467 600.187 166.2 600.187C166.893 600.187 167.933 600.147 169.32 600.067C170.693 599.987 171.733 599.947 172.427 599.947C173.28 599.947 173.707 600.253 173.707 600.867C173.707 604.16 173.52 609.133 173.133 615.787C172.747 622.44 172.547 627.427 172.547 630.72C172.547 632.787 176.667 642.2 184.88 658.92C187.613 664.467 189.093 667.227 189.347 667.227C189.427 667.187 189.52 667.04 189.64 666.8C190.133 665.867 191.173 663.253 192.76 658.987C195.693 651.053 198.707 642.027 201.8 631.933C201.92 630.92 201.973 627.707 201.973 622.293C201.973 619.893 201.907 616.293 201.76 611.52C201.627 606.733 201.547 603.147 201.547 600.733C201.547 600.133 201.973 599.827 202.84 599.827C203.613 599.827 204.773 599.88 206.32 600.013C207.867 600.133 209.04 600.187 209.853 600.187C210.547 600.187 211.587 600.133 212.973 600.013C214.347 599.88 215.387 599.827 216.08 599.827C217.013 599.827 217.493 600.147 217.493 600.8C217.493 603.36 217.4 607.227 217.24 612.373C217.08 617.52 217 621.373 217 623.947C217 628.133 217.013 630.68 217.053 631.573C217.187 633.613 220.253 642.547 226.28 658.373C226.933 660.16 227.987 662.733 229.453 666.067C229.493 666.227 229.573 666.373 229.693 666.493C229.947 666.493 231.387 663.787 234.027 658.373C242.053 641.973 246.067 632.707 246.067 630.6C246.067 627.253 245.88 622.267 245.507 615.64C245.147 609 244.96 604.04 244.96 600.733C244.96 600.133 245.12 599.827 245.453 599.827C246.267 599.827 247.48 599.88 249.08 600.013C250.693 600.133 251.907 600.187 252.72 600.187C253.453 600.187 254.573 600.133 256.08 600.013C257.573 599.88 258.72 599.827 259.493 599.827C260.347 599.827 260.84 600.067 260.96 600.56C260.96 600.52 260.96 601.08 260.96 602.267C260.96 605.48 261.053 610.28 261.267 616.68C261.467 623.067 261.573 627.867 261.573 631.08Z" fill="#8F9295"/>
<path d="M318.653 651.053C318.653 649.867 316.826 644.573 313.16 635.173C309.613 626.053 307.12 620.08 305.653 617.227C297.227 638.72 293.013 649.973 293.013 650.987C293.013 652.373 294.56 653.187 297.653 653.427C297.813 653.467 299.813 653.493 303.64 653.493H309.92C315.747 653.493 318.653 652.68 318.653 651.053ZM347.107 684.747C347.107 685.24 346.613 685.48 345.64 685.48C344.867 685.48 343.733 685.427 342.253 685.307C340.76 685.173 339.64 685.12 338.867 685.12C338.093 685.12 336.933 685.173 335.387 685.307C333.84 685.427 332.68 685.48 331.907 685.48C330.76 685.48 329.307 682.4 327.533 676.24C325.773 670.067 323.96 666.947 322.133 666.867C320.627 666.787 316.707 666.733 310.347 666.733H300.707C293.987 666.733 290.16 666.787 289.226 666.867C287.76 666.987 286.2 670.12 284.56 676.267C282.906 682.413 281.64 685.48 280.733 685.48H267C266.187 685.48 265.787 685.2 265.787 684.627C265.787 684.227 266.067 683.307 266.64 681.88L281.6 640.973C282.853 637.68 286.68 628.173 293.067 612.467C294.213 609.853 295.76 605.933 297.707 600.68C298.2 599.133 298.733 598.36 299.307 598.36C300.08 598.36 301.213 598.467 302.72 598.667C304.227 598.867 305.36 598.973 306.133 598.973C306.867 598.973 307.987 598.853 309.467 598.627C310.947 598.413 312.04 598.293 312.733 598.293C313.093 598.293 313.613 599.053 314.253 600.56C315.24 602.84 320.053 615.107 328.733 637.373C340.987 668.667 347.107 684.467 347.107 684.747Z" fill="#8F9295"/>
<path d="M403.28 629.613C403.28 622.253 401.16 617.32 396.933 614.84C393.787 613.013 388.16 612.093 380.013 612.093C373.427 612.093 370.067 612.627 369.947 613.68C369.653 615.88 369.52 621.76 369.52 631.333V642.987C369.64 643.067 369.907 643.147 370.307 643.24C371.04 643.32 372.24 643.413 373.907 643.533C377.773 643.747 381.947 643.84 386.427 643.84C397.653 643.84 403.28 639.107 403.28 629.613ZM420 685C420 685.32 419.68 685.48 419.027 685.48C418.253 685.48 417.08 685.427 415.493 685.307C413.907 685.173 412.72 685.12 411.947 685.12C411.093 685.12 409.813 685.173 408.133 685.307C406.44 685.427 405.173 685.48 404.32 685.48C403.373 685.48 402.667 684.973 402.173 683.96C400.88 681.187 397.173 672.627 391.067 658.253C390.453 656.787 388.973 655.893 386.613 655.573C386.08 655.52 384.227 655.507 381.053 655.507C375.44 655.507 372.093 655.587 371.04 655.747C370.187 655.867 369.76 656.907 369.76 658.867C369.76 661.707 369.893 665.973 370.16 671.653C370.413 677.333 370.547 681.573 370.547 684.387C370.547 685.24 370.147 685.667 369.333 685.667C368.52 685.667 367.28 685.573 365.64 685.387C363.987 685.213 362.733 685.12 361.88 685.12C361.187 685.12 360.133 685.173 358.707 685.307C357.28 685.427 356.227 685.48 355.533 685.48C354.52 685.48 354 685.013 354 684.08C354 679.56 354.213 672.773 354.64 663.72C355.08 654.667 355.293 647.88 355.293 643.36C355.293 630.493 354.813 616.773 353.88 602.2L353.827 601.227C353.787 600.413 354.64 600.013 356.387 600.013C359.893 600.013 365.133 599.92 372.107 599.733C379.093 599.547 384.307 599.453 387.773 599.453C396.8 599.453 404.053 601.613 409.507 605.933C415.533 610.693 418.547 617.453 418.547 626.2C418.547 632.227 417.72 636.96 416.093 640.427C414.387 644.093 411.213 647.573 406.573 650.867C405.8 651.4 405.413 651.907 405.413 652.387C405.413 652.96 407.84 658.373 412.707 668.627C417.573 678.893 420 684.347 420 685Z" fill="#8F9295"/>
<path d="M403.467 455.227L409.867 448.827C412.027 446.667 411.987 443.133 409.747 441.013C407.587 438.973 404.12 439.187 402.027 441.293L395.773 447.547L403.467 455.227Z" fill="#8F9295"/>
<path d="M169.36 221.133L175.613 214.88C177.72 212.773 177.933 209.32 175.88 207.16C173.773 204.907 170.24 204.867 168.08 207.04L161.667 213.44L169.36 221.133Z" fill="#8F9295"/>
<path d="M328.387 449.907L325.6 432.28L307.973 429.493L323.866 421.387L321.08 403.76L333.693 416.387L349.6 408.28L341.493 424.187L354.107 436.8L336.493 434.013L328.387 449.907ZM370.146 315.12L352.2 297.173C351.253 296.227 351.253 294.693 352.2 293.76C353.146 292.813 354.68 292.813 355.613 293.76L373.56 311.693C374.506 312.64 374.506 314.173 373.56 315.12C372.613 316.053 371.08 316.053 370.146 315.12ZM362.88 286.493L378.893 302.507C379.84 303.453 379.84 304.987 378.893 305.933C377.96 306.867 376.426 306.867 375.48 305.933L359.466 289.907C358.52 288.96 358.52 287.44 359.466 286.493C360.4 285.547 361.933 285.547 362.88 286.493ZM370.146 279.227L384.666 293.76C385.613 294.693 385.613 296.227 384.666 297.173C383.72 298.12 382.187 298.12 381.253 297.173L366.72 282.653C365.787 281.707 365.787 280.173 366.72 279.227C367.667 278.28 369.2 278.28 370.146 279.227ZM439.787 198.08L418.826 177.12C421.56 174.067 424.48 170.987 427.56 167.907C431.68 163.787 435.8 159.96 439.84 156.48L460.426 177.067C456.946 181.107 453.12 185.227 449 189.347C445.92 192.427 442.84 195.347 439.787 198.08ZM395.987 220.92C391.253 216.187 399.32 200.107 414.653 181.92L434.987 202.253C416.8 217.573 400.72 225.64 395.987 220.92ZM157.826 468.907C155.12 471.613 150.72 471.613 148 468.907C145.293 466.187 145.293 461.787 148 459.08L197.987 409.093C200.693 406.387 205.093 406.387 207.813 409.093C210.52 411.813 210.52 416.213 207.813 418.92L157.826 468.907ZM480.573 136.333C485.027 140.787 478.133 155.32 464.507 172.173L444.733 152.4C461.586 138.773 476.12 131.88 480.573 136.333ZM334.68 250.613L320.16 236.08C319.213 235.133 319.213 233.613 320.16 232.667C321.106 231.72 322.64 231.72 323.573 232.667L338.107 247.187C339.04 248.133 339.04 249.667 338.107 250.613C337.16 251.547 335.626 251.547 334.68 250.613ZM327.426 257.867L311.4 241.853C310.453 240.907 310.453 239.373 311.4 238.427C312.346 237.493 313.88 237.493 314.826 238.427L330.84 254.453C331.787 255.4 331.787 256.92 330.84 257.867C329.893 258.813 328.36 258.813 327.426 257.867ZM320.16 265.133L302.213 247.187C301.28 246.24 301.28 244.72 302.213 243.773C303.16 242.827 304.693 242.827 305.64 243.773L323.573 261.72C324.52 262.653 324.52 264.187 323.573 265.133C322.64 266.08 321.106 266.08 320.16 265.133ZM187.413 308.933L184.626 291.307L167 288.52L182.893 280.413L180.107 262.787L192.72 275.413L208.626 267.307L200.52 283.213L213.133 295.827L195.52 293.04L187.413 308.933ZM391.08 452.24L379.107 464.2L367.053 338.8C366.573 333.813 368.346 328.867 371.893 325.32L376.907 320.32C379.213 318 381.186 315.36 382.746 312.48L409.88 262.52C411.853 258.867 414.213 255.453 416.933 252.32C429.413 237.933 467.026 194.427 479.08 178.84C488.706 166.373 507.546 130.413 519.146 107.613C522.36 101.293 515.613 94.5467 509.293 97.76C486.493 109.36 450.533 128.2 438.066 137.827C422.48 149.88 378.973 187.48 364.573 199.973C361.453 202.693 358.04 205.053 354.387 207.027L304.426 234.147C301.546 235.72 298.907 237.693 296.587 240L291.587 245.013C288.04 248.56 283.093 250.333 278.107 249.853L152.707 237.787L164.666 225.827L156.973 218.147L92.0399 283.08L98.8798 289.907L109.133 279.653C111.013 277.773 114.08 277.773 115.96 279.653L195.32 359.013C197.733 361.427 197.733 365.347 195.32 367.76L166.36 396.72C165.826 397.253 165.08 397.52 164.333 397.467L82.7465 390.693C79.7065 390.44 76.6932 391.547 74.5332 393.707L60.4798 407.76C58.5331 409.707 57.4399 412.36 57.4399 415.12V418.88C57.4399 421.64 58.5331 424.293 60.4798 426.24L95.2399 461C96.8933 462.653 99.5731 462.653 101.226 461L102.76 459.467C104.426 457.8 107.066 457.933 108.76 459.56C110.413 461.16 113.053 461.133 114.68 459.507L136.28 437.907C137.186 437 138.64 436.8 139.68 437.547C140.88 438.427 141.067 440.093 140.187 441.213L107.333 482.707C106.533 483.733 106.613 485.187 107.533 486.107L119.173 497.733L130.8 509.373C131.72 510.293 133.173 510.373 134.2 509.573L175.693 476.72C176.706 475.92 178.173 476 179.093 476.92C180.093 477.92 180.093 479.533 179.093 480.533L157.36 502.267C155.693 503.933 155.826 506.56 157.466 508.267C159.053 509.92 159.026 512.56 157.4 514.187L155.907 515.68C154.253 517.333 154.253 520.013 155.907 521.667L190.666 556.413C192.613 558.373 195.266 559.467 198.026 559.467H201.787C204.547 559.467 207.2 558.373 209.146 556.413L223.2 542.373C225.36 540.213 226.453 537.2 226.213 534.16L219.44 452.573C219.373 451.813 219.653 451.08 220.187 450.547L249.133 421.587C251.56 419.173 255.48 419.173 257.893 421.587L337.253 500.947C339.133 502.827 339.133 505.893 337.253 507.773L327 518.027L333.826 524.867L398.76 459.933L391.08 452.24Z" fill="#8F9295"/>
<rect x="-2584" y="559" width="4012" height="222" fill="white"/>
</g>
</svg>
