<svg width="619" height="619" viewBox="0 0 619 619" fill="none" xmlns="http://www.w3.org/2000/svg">
<mask id="mask0_3_276" style="mask-type:alpha" maskUnits="userSpaceOnUse" x="0" y="0" width="619" height="619">
<circle cx="309.5" cy="309.5" r="309.5" fill="#D9D9D9"/>
</mask>
<g mask="url(#mask0_3_276)">
<path d="M711.666 722H-3555V-2478H711.666V722Z" fill="white"/>
<path d="M160.107 533.04C160.107 533.373 156.04 542.08 147.893 559.173C145.173 565.12 141 573.987 135.387 585.8C134.853 586.893 134.307 587.44 133.733 587.44H122.747C121.973 587.44 121.333 586.893 120.853 585.8C117.84 578.72 113.507 567.56 107.84 552.333C105.04 559.827 100.667 570.987 94.72 585.8C94.2666 586.893 93.6665 587.44 92.8932 587.44H81.9598C81.3465 587.44 80.7733 586.893 80.2533 585.8C77.44 579.893 73.2265 571.027 67.6132 559.173C59.8399 542.973 55.9465 534.267 55.9465 533.04C55.9465 529.707 56.0533 524.68 56.2533 517.96C56.4533 511.253 56.5598 506.227 56.5598 502.88C56.5598 502.147 57.0665 501.787 58.0799 501.787C58.8132 501.787 59.9332 501.853 61.4132 501.973C62.8932 502.093 64.0132 502.147 64.7465 502.147C65.4399 502.147 66.4666 502.107 67.8533 502.027C69.24 501.947 70.28 501.907 70.9734 501.907C71.8267 501.907 72.2533 502.213 72.2533 502.827C72.2533 506.12 72.0533 511.093 71.6666 517.747C71.2799 524.4 71.0931 529.387 71.0931 532.68C71.0931 534.76 75.1998 544.16 83.4265 560.893C86.1465 566.427 87.6399 569.187 87.8799 569.187C87.9599 569.147 88.0666 569.013 88.1866 568.76C88.68 567.827 89.7067 565.227 91.3067 560.947C94.2267 553.013 97.2399 544 100.333 533.907C100.453 532.88 100.52 529.667 100.52 524.253C100.52 521.853 100.453 518.267 100.307 513.48C100.16 508.693 100.093 505.107 100.093 502.707C100.093 502.093 100.52 501.787 101.373 501.787C102.147 501.787 103.307 501.853 104.853 501.973C106.4 502.093 107.587 502.147 108.4 502.147C109.093 502.147 110.12 502.093 111.507 501.973C112.893 501.853 113.933 501.787 114.626 501.787C115.56 501.787 116.026 502.107 116.026 502.76C116.026 505.333 115.947 509.187 115.787 514.333C115.627 519.48 115.533 523.333 115.533 525.907C115.533 530.093 115.56 532.64 115.6 533.533C115.72 535.573 118.8 544.507 124.813 560.333C125.467 562.133 126.533 564.693 128 568.027C128.04 568.187 128.12 568.333 128.24 568.453C128.48 568.453 129.933 565.747 132.573 560.333C140.587 543.933 144.6 534.68 144.6 532.56C144.6 529.213 144.413 524.24 144.053 517.6C143.68 510.96 143.507 506 143.507 502.707C143.507 502.093 143.667 501.787 143.987 501.787C144.8 501.787 146.013 501.853 147.626 501.973C149.226 502.093 150.44 502.147 151.253 502.147C151.987 502.147 153.107 502.093 154.613 501.973C156.12 501.853 157.253 501.787 158.026 501.787C158.893 501.787 159.373 502.027 159.493 502.52C159.493 502.48 159.493 503.053 159.493 504.227C159.493 507.44 159.6 512.253 159.8 518.64C160.013 525.027 160.107 529.827 160.107 533.04Z" fill="#8F9295"/>
<path d="M227.947 575.173C227.947 575.827 227.773 576.76 227.453 577.987C227.08 579.533 226.867 580.467 226.787 580.787C226.653 582.253 226.373 584.387 225.92 587.2C225.72 587.933 225.187 588.307 224.333 588.307C223.933 588.307 223.16 588.213 222.013 588.053C217.013 587.32 209.253 586.96 198.76 586.96C195.786 586.96 191.307 587.04 185.32 587.2C179.347 587.36 174.866 587.44 171.893 587.44C170.546 587.44 169.88 586.853 169.88 585.68C169.88 581.12 170.133 574.267 170.64 565.133C171.147 555.987 171.4 549.147 171.4 544.587C171.4 539.947 171.16 531.293 170.667 518.64C170.587 515.387 170.36 510.52 170 504.04L169.933 503.187C169.893 502.253 170.427 501.787 171.52 501.787C174.373 501.787 178.653 501.867 184.347 502.027C190.04 502.187 194.32 502.28 197.173 502.28C199.893 502.28 203.973 502.187 209.413 502.027C214.84 501.867 218.92 501.787 221.653 501.787C223.56 501.787 224.6 502.373 224.76 503.56C225.626 508.933 226.053 512.267 226.053 513.573C226.053 514.507 225.6 514.973 224.707 514.973C221.24 514.973 216 514.787 208.987 514.4C201.96 514.013 196.68 513.813 193.133 513.813C189.8 513.813 187.693 514.267 186.826 515.16C185.946 516.053 185.507 518.267 185.507 521.813V530.907C185.507 533.387 185.573 534.84 185.693 535.24C186.053 536.507 187.12 537.133 188.867 537.133C189.36 537.133 190.04 537.12 190.947 537.08C191.88 537.08 192.573 537.08 193.013 537.08C201 537.08 208.16 536.933 214.507 536.653C216.987 536.573 219.92 536.36 223.307 536.04C224.16 535.96 224.587 536.32 224.587 537.133C224.587 538.44 224.427 540.44 224.12 543.12C223.813 545.8 223.667 547.827 223.667 549.16C223.667 549.893 223.053 550.267 221.84 550.267C221.347 550.267 219.533 550.12 216.4 549.84C214.12 549.587 208.987 549.467 201.013 549.467C194.293 549.467 190.04 549.547 188.253 549.72C186.627 549.84 185.693 550.693 185.44 552.28C185.493 551.987 185.507 553.56 185.507 556.973V566.013C185.507 570.253 186.16 572.893 187.467 573.947C188.48 574.813 191.026 575.24 195.093 575.24L201.813 575.173C204.653 575.173 212.653 574.68 225.8 573.707L226.72 573.653C227.533 573.56 227.947 574.08 227.947 575.173Z" fill="#8F9295"/>
<path d="M286.307 507.947C285.493 509.293 284.373 511.333 282.946 514.053C282.506 515.32 281.707 517.107 280.573 519.427C280.32 519.8 280 519.987 279.587 519.987C279.64 519.987 277.667 519.253 273.707 517.813C269.733 516.373 266.467 515.64 263.907 515.64C256.413 515.64 252.667 518.947 252.667 525.533C252.667 529.2 255.293 532.4 260.546 535.12C269.373 539.72 274.267 542.373 275.2 543.053C280.453 547.253 283.067 552.907 283.067 560.027C283.067 569.147 279.467 576.333 272.267 581.587C265.8 586.307 257.84 588.667 248.4 588.667C244 588.667 241.64 588.173 241.307 587.2C241.147 585.653 240.786 583.4 240.213 580.427C239.893 579.2 239.373 577.373 238.68 574.933C238.56 574.56 238.507 574.213 238.507 573.893C238.507 573.32 238.813 573.04 239.413 573.04C240.4 573.04 241.893 573.133 243.907 573.347C245.92 573.547 247.44 573.653 248.453 573.653C261.067 573.653 267.387 569.573 267.387 561.44C267.387 557.453 264.84 553.987 259.746 551.053C250.466 545.76 245.733 543.013 245.52 542.813C240.4 538.667 237.826 533.08 237.826 526.08C237.826 518.52 240.32 512.453 245.28 507.893C250.12 503.493 256.386 501.293 264.08 501.293C267.346 501.293 271.08 501.827 275.32 502.88C279.92 504.067 283.373 505.493 285.693 507.16C285.906 507.32 286.107 507.587 286.307 507.947Z" fill="#8F9295"/>
<path d="M352.546 513.32C352.546 514.387 352.187 514.907 351.453 514.907C350.32 514.907 343.107 514.667 329.84 514.187C329.48 526.6 329.293 536.547 329.293 544.04C329.293 548.72 329.466 555.733 329.813 565.093C330.16 574.467 330.333 581.48 330.333 586.16C330.333 587.013 329.733 587.44 328.56 587.44C327.826 587.44 326.707 587.387 325.2 587.267C323.693 587.147 322.56 587.08 321.787 587.08C321.053 587.08 319.933 587.147 318.426 587.267C316.92 587.387 315.8 587.44 315.067 587.44C314.053 587.44 313.533 586.933 313.533 585.92C313.533 581.28 313.733 574.307 314.12 565.013C314.507 555.707 314.693 548.72 314.693 544.04C314.693 536.787 314.48 526.84 314.026 514.187C303.52 514.827 295.84 515.16 290.946 515.16C290.466 515.16 290.213 514.96 290.213 514.547C290.213 513.813 290.4 512.76 290.76 511.373C291.213 509.587 291.48 508.52 291.56 508.2C291.64 506.773 291.92 504.8 292.413 502.28C292.613 501.747 292.96 501.48 293.453 501.48L294.187 501.547C308.6 502.4 318.093 502.827 322.693 502.827C326.773 502.827 333.427 502.52 342.667 501.907C348.973 501.507 351.6 501.293 350.533 501.293C351.6 501.293 352.187 501.667 352.307 502.4C352.227 501.947 352.187 503.92 352.187 508.32C352.187 508.853 352.253 509.667 352.373 510.787C352.493 511.907 352.546 512.76 352.546 513.32Z" fill="#8F9295"/>
<path d="M417.76 575.173C417.76 575.827 417.6 576.76 417.267 577.987C416.907 579.533 416.68 580.467 416.6 580.787C416.48 582.253 416.187 584.387 415.747 587.2C415.547 587.933 415.013 588.307 414.16 588.307C413.747 588.307 412.974 588.213 411.84 588.053C406.827 587.32 399.08 586.96 388.574 586.96C385.6 586.96 381.12 587.04 375.147 587.2C369.16 587.36 364.68 587.44 361.707 587.44C360.374 587.44 359.693 586.853 359.693 585.68C359.693 581.12 359.947 574.267 360.454 565.133C360.974 555.987 361.227 549.147 361.227 544.587C361.227 539.947 360.973 531.293 360.493 518.64C360.413 515.387 360.187 510.52 359.813 504.04L359.76 503.187C359.72 502.253 360.24 501.787 361.347 501.787C364.2 501.787 368.467 501.867 374.16 502.027C379.867 502.187 384.134 502.28 386.987 502.28C389.72 502.28 393.8 502.187 399.227 502.027C404.667 501.867 408.747 501.787 411.467 501.787C413.387 501.787 414.427 502.373 414.587 503.56C415.44 508.933 415.867 512.267 415.867 513.573C415.867 514.507 415.414 514.973 414.52 514.973C411.067 514.973 405.827 514.787 398.8 514.4C391.787 514.013 386.493 513.813 382.96 513.813C379.627 513.813 377.52 514.267 376.64 515.16C375.76 516.053 375.32 518.267 375.32 521.813V530.907C375.32 533.387 375.387 534.84 375.507 535.24C375.88 536.507 376.933 537.133 378.68 537.133C379.173 537.133 379.867 537.12 380.76 537.08C381.693 537.08 382.387 537.08 382.84 537.08C390.814 537.08 397.973 536.933 404.333 536.653C406.813 536.573 409.747 536.36 413.12 536.04C413.974 535.96 414.4 536.32 414.4 537.133C414.4 538.44 414.253 540.44 413.947 543.12C413.64 545.8 413.48 547.827 413.48 549.16C413.48 549.893 412.88 550.267 411.654 550.267C411.16 550.267 409.36 550.12 406.227 549.84C403.947 549.587 398.814 549.467 390.84 549.467C384.12 549.467 379.867 549.547 378.08 549.72C376.44 549.84 375.507 550.693 375.267 552.28C375.307 551.987 375.32 553.56 375.32 556.973V566.013C375.32 570.253 375.973 572.893 377.28 573.947C378.293 574.813 380.84 575.24 384.907 575.24L391.627 575.173C394.48 575.173 402.48 574.68 415.627 573.707L416.533 573.653C417.347 573.56 417.76 574.08 417.76 575.173Z" fill="#8F9295"/>
<path d="M476.493 531.587C476.493 524.213 474.373 519.293 470.146 516.8C467.013 514.973 461.373 514.053 453.226 514.053C446.64 514.053 443.28 514.587 443.16 515.64C442.88 517.84 442.733 523.72 442.733 533.293V544.947C442.853 545.027 443.12 545.12 443.52 545.2C444.253 545.28 445.453 545.373 447.133 545.507C451 545.707 455.16 545.8 459.64 545.8C470.88 545.8 476.493 541.067 476.493 531.587ZM493.226 586.96C493.226 587.28 492.893 587.44 492.24 587.44C491.467 587.44 490.293 587.387 488.707 587.267C487.12 587.147 485.933 587.08 485.16 587.08C484.306 587.08 483.04 587.147 481.346 587.267C479.653 587.387 478.386 587.44 477.533 587.44C476.6 587.44 475.88 586.933 475.4 585.92C474.093 583.147 470.386 574.587 464.28 560.213C463.666 558.747 462.186 557.853 459.826 557.533C459.293 557.493 457.44 557.467 454.266 557.467C448.653 557.467 445.32 557.547 444.253 557.707C443.4 557.84 442.973 558.867 442.973 560.827C442.973 563.68 443.107 567.933 443.373 573.613C443.64 579.293 443.773 583.533 443.773 586.347C443.773 587.2 443.36 587.627 442.546 587.627C441.733 587.627 440.507 587.533 438.853 587.36C437.2 587.173 435.96 587.08 435.093 587.08C434.413 587.08 433.347 587.147 431.92 587.267C430.493 587.387 429.44 587.44 428.746 587.44C427.733 587.44 427.226 586.973 427.226 586.04C427.226 581.52 427.44 574.733 427.866 565.68C428.293 556.627 428.507 549.84 428.507 545.32C428.507 532.453 428.04 518.733 427.107 504.173L427.04 503.187C427 502.373 427.853 501.973 429.6 501.973C433.106 501.973 438.347 501.88 445.32 501.693C452.307 501.507 457.52 501.413 460.987 501.413C470.027 501.413 477.267 503.573 482.72 507.893C488.747 512.653 491.76 519.413 491.76 528.16C491.76 534.187 490.947 538.933 489.32 542.387C487.6 546.053 484.427 549.533 479.787 552.827C479.013 553.36 478.626 553.867 478.626 554.36C478.626 554.92 481.066 560.333 485.933 570.6C490.786 580.853 493.226 586.307 493.226 586.96Z" fill="#8F9295"/>
<path d="M578.333 503.133C578.333 507.813 578.173 514.867 577.84 524.32C577.52 533.76 577.36 540.84 577.36 545.56C577.36 550 577.4 556.64 577.48 565.493C577.56 574.347 577.6 581 577.6 585.427C577.6 586.773 577.093 587.44 576.08 587.44C575.467 587.44 574.547 587.387 573.333 587.267C572.107 587.147 571.187 587.08 570.573 587.08C569.933 587.08 568.933 587.147 567.587 587.267C566.24 587.387 565.253 587.44 564.6 587.44C563.867 587.44 562.987 586.773 561.973 585.427C553.173 573.587 539.853 555.92 521.973 532.44C519.213 528.853 517.6 526.853 517.16 526.453C516.747 526.453 516.547 527.28 516.547 528.96C516.547 535.227 516.653 544.64 516.853 557.187C517.053 569.747 517.16 579.16 517.16 585.427C517.16 586.773 516.747 587.44 515.933 587.44C515.24 587.44 514.187 587.387 512.76 587.267C511.333 587.147 510.28 587.08 509.587 587.08C508.853 587.08 507.76 587.147 506.32 587.267C504.88 587.387 503.787 587.44 503.053 587.44C502.04 587.44 501.52 587.04 501.52 586.227C501.52 581.747 501.747 575 502.173 565.987C502.6 556.973 502.813 550.2 502.813 545.68C502.813 540.76 502.627 531.88 502.253 519.067C502.173 515.72 501.973 510.72 501.653 504.04L501.587 503.253C501.547 502.64 502.04 502.32 503.053 502.28C505.693 502.24 507.773 502.147 509.28 502.027C509.853 501.987 510.933 501.827 512.52 501.547C513.853 501.293 514.92 501.173 515.693 501.173C516.053 501.173 516.693 501.76 517.587 502.947C526.947 515.813 541.267 534.933 560.56 560.333C561.427 561.4 562.213 562.307 562.947 563.08C563.227 561.373 563.373 557.467 563.373 551.36C563.373 546.067 563.187 538.133 562.8 527.547C562.413 516.973 562.213 509.053 562.213 503.8C562.213 502.453 562.627 501.787 563.44 501.787C564.173 501.787 565.28 501.853 566.76 501.973C568.253 502.093 569.36 502.147 570.093 502.147C570.867 502.147 572.027 502.093 573.573 501.973C575.12 501.853 576.28 501.787 577.053 501.787C577.907 501.787 578.333 502.24 578.333 503.133Z" fill="#8F9295"/>
<path d="M553.12 271.733C550.373 271.853 547.48 272.987 544.493 274.773C544.48 274.773 544.467 274.773 544.467 274.773C532.293 282.053 518.187 300.133 503.427 305.333C489.413 314.013 458.253 317.307 440.253 318.507C437.973 318.667 436.747 321.2 437.987 323.107C439.387 325.253 440.587 328.04 441.533 331.32C443.053 335.933 443.893 342.213 443.88 350C443.88 350.707 443.827 351.413 443.733 352.107C443.427 354.213 442.68 356.227 441.493 357.987C431.36 373.107 413.96 382.947 394.667 389.387C393.187 389.893 391.693 390.36 390.187 390.813C384.173 392.64 378.013 394.16 371.88 395.413C362.667 397.307 353.493 398.627 344.893 399.56C333.413 400.813 322.933 401.36 314.707 401.667C313.92 401.707 313.133 401.68 312.347 401.613C289.627 399.56 271.387 396.68 256.04 392.053C254.76 391.667 253.493 391.267 252.253 390.853C249.773 390.04 247.373 389.173 245.04 388.24C233.373 383.613 223.44 377.627 214.333 369.773C208.413 364.667 202.853 358.773 197.373 351.96C196.413 350.76 195.707 349.387 195.307 347.907C195.307 347.893 195.293 347.88 195.293 347.88C195.12 347.213 194.947 346.493 194.787 345.72C194.627 344.947 194.467 344.12 194.333 343.267C193.707 339.413 193.427 334.893 194.053 331.2C194.227 330.36 194.427 329.56 194.627 328.813C195.027 327.32 195.48 326 195.96 324.853C196.2 324.28 196.453 323.76 196.707 323.267C196.72 323.253 196.733 323.227 196.733 323.213C197.747 321.307 196.547 318.987 194.4 318.787C162.827 315.973 143.533 312.653 126.08 303.28C113.133 296.653 98.6001 278.72 86.8401 273.44C83.4134 271.893 80.2267 271.427 77.3867 272.627C55.3867 288.827 59.4932 327.733 85.8932 370.773C146.907 456.24 294.76 483.36 449.453 440.92C492.48 425.587 527.893 406.52 558.2 354.653C578.733 319.28 573.067 272.333 553.12 271.733Z" fill="#8F9295"/>
<path d="M348.053 316.6C348.613 316.28 349.253 316.093 349.947 316.093C352.067 316.093 353.774 317.813 353.774 319.92C353.774 322.04 352.067 323.76 349.947 323.76C347.84 323.76 346.133 322.04 346.133 319.92C346.133 319.893 346.133 319.867 346.133 319.827L328.427 319.76C328.427 319.76 322.04 330.48 319.187 335.253C320.253 335.947 320.96 337.133 320.96 338.493C320.96 338.507 320.96 338.533 320.96 338.56C320.96 338.573 320.96 338.6 320.96 338.613C320.96 340.733 319.253 342.453 317.133 342.453C315.027 342.453 313.32 340.733 313.32 338.613C313.32 338.6 313.32 338.573 313.32 338.56C313.32 338.533 313.32 338.507 313.32 338.493C313.32 337.213 313.947 336.08 314.92 335.373L305.6 319.76L287.974 319.827C287.974 319.867 287.987 319.893 287.987 319.92C287.987 322.04 286.28 323.76 284.16 323.76C282.053 323.76 280.347 322.04 280.347 319.92C280.347 317.8 282.053 316.093 284.16 316.093C284.84 316.093 285.467 316.267 286.013 316.56L294.52 301.44L285.68 286.56C285.213 286.76 284.707 286.88 284.16 286.88C282.053 286.88 280.347 285.16 280.347 283.04C280.347 280.92 282.053 279.2 284.16 279.2C286.267 279.2 287.96 280.907 287.987 283.013L305.853 282.88L315.013 267.093C313.947 266.413 313.24 265.227 313.24 263.853C313.24 261.733 314.947 260.013 317.053 260.013C319.173 260.013 320.88 261.733 320.88 263.853C320.88 265.24 320.147 266.44 319.067 267.12L328.187 282.88L346.133 283.013C346.147 280.907 347.853 279.2 349.947 279.2C352.067 279.2 353.774 280.92 353.774 283.04C353.774 285.16 352.067 286.88 349.947 286.88C349.387 286.88 348.854 286.747 348.374 286.533L339.52 301.44L348.053 316.6ZM426.707 319.173C422.267 305.133 414.493 283.093 408.587 256.747C400.373 201.92 402.72 170.347 390.387 174.48C390.827 163.587 372.093 175.627 317.493 174.48C262.907 175.627 244.16 163.587 244.6 174.48C232.573 165.64 234.04 218.093 227.88 249.04C226.8 259.067 219.773 290.147 207.933 320.747C206.88 323.427 205.814 326.107 204.707 328.773C204.64 330.653 204.96 332.547 205.64 334.44C206.094 335.707 206.707 336.973 207.467 338.227C210.133 342.64 214.64 347 220.6 351.147C222.307 352.32 224.12 353.493 226.053 354.64C229.907 356.92 234.2 359.12 238.853 361.2C241.173 362.24 243.587 363.24 246.08 364.213C248.587 365.187 251.16 366.133 253.813 367.027C256.453 367.933 259.173 368.8 261.96 369.613C273.093 372.893 285.227 375.493 297.774 377.147C300.907 377.56 304.067 377.907 307.24 378.2C319.947 379.36 332.92 379.52 345.56 378.4C348.72 378.12 351.853 377.76 354.96 377.32C367.4 375.56 379.347 372.453 390.24 367.747C392.96 366.56 395.613 365.293 398.187 363.907C405.92 359.76 412.973 354.693 419.093 348.56C423.173 344.48 426.827 339.933 430 334.88C430.6 333.28 428.4 324.92 426.707 319.173Z" fill="#8F9295"/>
<rect x="-3440" y="462" width="4012" height="222" fill="white"/>
</g>
</svg>
